<?xml version="1.0" standalone="no"?>
<!DOCTYPE svg PUBLIC "-//W3C//DTD SVG 1.1//EN" "http://www.w3.org/Graphics/SVG/1.1/DTD/svg11.dtd" >
<svg xmlns="http://www.w3.org/2000/svg" xmlns:xlink="http://www.w3.org/1999/xlink" version="1.1">
<metadata>
Created by FontForge 20200314 at Wed Feb 26 19:31:23 2014
 By Unknown
Copyright (c) 2013 by Gayane Bagdasaryan, Dmitry Rastvortsev. All rights reserved.
</metadata>
<defs>
<font id="BrutalType-Black" horiz-adv-x="626" >
  <font-face 
    font-family="Brutal Type"
    font-weight="900"
    font-stretch="normal"
    units-per-em="1000"
    panose-1="2 0 6 3 2 0 0 2 0 4"
    ascent="800"
    descent="-200"
    x-height="529"
    cap-height="700"
    bbox="-49 -267 1147 979.157"
    underline-thickness="50"
    underline-position="-150"
    unicode-range="U+000D-FEFF"
  />
<missing-glyph horiz-adv-x="500" 
d="M442 8v496h-384v-496h384zM50 512h400v-512h-400v512z" />
    <glyph glyph-name="fi" unicode="fi" horiz-adv-x="670" 
d="M436 393h-195v-393h-158v393h-73v136h73q0 50 18 84.5t49 55.5t71.5 30.5t85.5 9.5q7 0 17.5 -0.5t21.5 -1.5v-128h-24q-42 0 -61.5 -13.5t-19.5 -36.5h353v-529h-158v393zM436 705h158v-115h-158v115z" />
    <glyph glyph-name="fl" unicode="fl" horiz-adv-x="670" 
d="M83 393h-73v136h73q0 50 18 84.5t49 55.5t71.5 30.5t85.5 9.5q7 0 17.5 -0.5t21.5 -1.5v-128h-24q-42 0 -61.5 -13.5t-19.5 -36.5h96v-136h-96v-393h-158v393zM436 705h158v-705h-158v705z" />
    <glyph glyph-name=".notdef" horiz-adv-x="500" 
d="M442 8v496h-384v-496h384zM50 512h400v-512h-400v512z" />
    <glyph glyph-name=".null" horiz-adv-x="0" 
 />
    <glyph glyph-name=".null" horiz-adv-x="0" 
 />
    <glyph glyph-name="nonmarkingreturn" unicode="&#xd;" horiz-adv-x="225" 
 />
    <glyph glyph-name="space" unicode=" " horiz-adv-x="225" 
 />
    <glyph glyph-name="exclam" unicode="!" horiz-adv-x="333" 
d="M89 148h156v-148h-156v148zM89 700h156v-480h-156v480z" />
    <glyph glyph-name="quotedbl" unicode="&#x22;" horiz-adv-x="460" 
d="M50 643v62h156v-62l-33 -208h-91zM255 643v62h155v-62l-31 -208h-92z" />
    <glyph glyph-name="numbersign" unicode="#" horiz-adv-x="705" 
d="M83 56l20 91h-68v142h99l27 122h-78v142h108l33 147h140v-57l-20 -90h107l32 147h140v-57l-21 -90h68v-142h-98l-25 -122h76v-142h-108l-32 -147h-139v56l20 91h-109l-32 -147h-140v56zM393 289l27 122h-107l-28 -122h108z" />
    <glyph glyph-name="dollar" unicode="$" horiz-adv-x="597" 
d="M198 227q0 -29 8.5 -48t22.5 -30.5t32.5 -16.5t38.5 -5q38 0 58.5 18t20.5 47q0 26 -15.5 38.5t-35.5 21.5l-100 46q-39 18 -71 37t-54.5 43.5t-34.5 56t-12 75.5q0 42 13 76t35.5 59.5t53 41.5t65.5 23v91h156v-95q30 -7 58 -24.5t49.5 -46t34 -67.5t12.5 -89h-157
q0 50 -23.5 72t-61.5 22q-31 0 -52.5 -16t-21.5 -45q0 -17 7 -28.5t19.5 -20.5t30 -16.5t38.5 -17.5l75 -35q33 -15 61 -32.5t48.5 -40t32 -51.5t11.5 -68q0 -75 -37 -132t-124 -80v-110h-156v108q-38 6 -71.5 24t-58 47.5t-39 71.5t-14.5 96h158z" />
    <glyph glyph-name="percent" unicode="%" horiz-adv-x="815" 
d="M229 580q0 13 -9 21.5t-22 8.5q-15 0 -23 -9t-8 -21v-87q0 -13 7.5 -21.5t23.5 -8.5q14 0 22.5 8t8.5 22v87zM198 358q-74 0 -118.5 37.5t-44.5 113.5v55q0 76 44.5 113.5t118.5 37.5t118 -37.5t44 -113.5v-55q0 -76 -44 -113.5t-118 -37.5zM156 56l414 644h94v-57
l-414 -643h-94v56zM618 -15q-74 0 -118.5 39t-44.5 122v35q0 83 44.5 122t118.5 39t118 -38.5t44 -122.5v-35q0 -84 -44 -122.5t-118 -38.5zM649 207q0 13 -9 21.5t-22 8.5q-15 0 -23 -9t-8 -21v-87q0 -13 7.5 -21.5t23.5 -8.5q14 0 22.5 8t8.5 22v87z" />
    <glyph glyph-name="ampersand" unicode="&#x26;" horiz-adv-x="697" 
d="M656 0h-129l-59 59q-38 -33 -85.5 -52t-103.5 -19q-53 0 -95 14.5t-71.5 40t-45.5 61.5t-16 79q0 42 19 87t78 95l12 10q-11 10 -24 25.5t-24.5 35t-19.5 43.5t-8 52q0 38 13.5 70.5t38.5 56.5t60.5 37.5t79.5 13.5q42 0 76.5 -12.5t59 -35t38 -53t13.5 -67.5
q0 -48 -22 -82t-55 -63l-24 -22l88 -89q9 26 11.5 54t3.5 50h143q-1 -57 -13.5 -111.5t-38.5 -101.5l100 -103v-73zM286 127q27 0 47.5 8t39.5 25l-121 122l-10 -9q-23 -20 -30.5 -39.5t-7.5 -37.5q0 -32 24.5 -50.5t57.5 -18.5zM225 533q0 -17 7.5 -28t23.5 -26l15 -15
l22 17q16 13 24 24t8 27q0 19 -13 32t-38 13q-23 0 -36 -12t-13 -32z" />
    <glyph glyph-name="quotesingle" unicode="'" horiz-adv-x="256" 
d="M50 643v62h156v-62l-33 -208h-91z" />
    <glyph glyph-name="parenleft" unicode="(" horiz-adv-x="344" 
d="M227 31q0 -20 10.5 -34t30.5 -14h27v-143h-22q-91 0 -139.5 44.5t-48.5 145.5v563q0 102 48.5 147t139.5 45h22v-143h-27q-20 0 -30.5 -14t-10.5 -34v-563z" />
    <glyph glyph-name="parenright" unicode=")" horiz-adv-x="344" 
d="M117.014 31q0 -20 -10.499 -34t-30.498 -14h-26.999v-143h21.999q90.9941 0 139.491 44.5t48.4971 145.5v563q0 102 -48.4971 147t-139.491 45h-21.999v-143h26.999q19.999 0 30.498 -14t10.499 -34v-563z" />
    <glyph glyph-name="asterisk" unicode="*" horiz-adv-x="472" 
d="M191 442l-85 -70l-62 108l105 39l-105 39l62 108l85 -70l-17 109h123l-17 -109l86 70l61 -108l-102 -39l102 -39l-61 -108l-86 70l17 -109h-123z" />
    <glyph glyph-name="plus" unicode="+" horiz-adv-x="588" 
d="M223 248h-159v130h159v161h142v-161h159v-130h-159v-160h-142v160z" />
    <glyph glyph-name="comma" unicode="," horiz-adv-x="289" 
d="M75 148h153v-65l-86 -211h-109z" />
    <glyph glyph-name="hyphen" unicode="-" horiz-adv-x="447" 
d="M55 384h337v-142h-337v142z" />
    <glyph glyph-name="period" unicode="." horiz-adv-x="299" 
d="M65 148h169v-148h-169v148z" />
    <glyph glyph-name="slash" unicode="/" horiz-adv-x="460" 
d="M35 -44l264 829h125v-56l-263 -829h-126v56z" />
    <glyph glyph-name="zero" unicode="0" horiz-adv-x="623" 
d="M311 127q47 0 67.5 27t20.5 65v260q0 19 -5 36t-15.5 30t-27 20.5t-40.5 7.5t-40.5 -7.5t-27 -20.5t-15.5 -30t-5 -36v-260q0 -38 20.5 -65t67.5 -27zM311 -15q-56 0 -101.5 15.5t-77.5 46t-49.5 76t-17.5 106.5v241q0 61 17.5 106.5t49.5 76.5t77.5 46.5t101.5 15.5
q113 0 179.5 -62t66.5 -183v-241q0 -61 -17 -106.5t-49 -76t-77.5 -46t-102.5 -15.5z" />
    <glyph glyph-name="one" unicode="1" horiz-adv-x="354" 
d="M111 484h-65v85l203 131h20v-700h-158v484z" />
    <glyph glyph-name="two" unicode="2" horiz-adv-x="562" 
d="M41 128l212 212q32 32 51 54t29.5 39.5t14 32.5t3.5 33q0 12 -3.5 25t-12.5 24t-23.5 18t-36.5 7q-27 0 -43.5 -9.5t-25.5 -25t-12.5 -34.5t-3.5 -38h-148q0 58 17.5 104t49 78.5t74.5 49.5t95 17q61 0 104.5 -19t71.5 -49.5t41 -69t13 -78.5q0 -37 -6.5 -65.5t-22 -56.5
t-42 -57.5t-66.5 -67.5l-115 -110h253v-142h-468v128z" />
    <glyph glyph-name="three" unicode="3" horiz-adv-x="598" 
d="M296 -15q-114 0 -182.5 65t-70.5 191h150q2 -51 25.5 -82.5t81.5 -31.5q43 0 63.5 23t20.5 57q0 39 -24 60.5t-73 21.5h-40v142h40q35 0 58.5 16.5t23.5 56.5q0 32 -20 50.5t-54 18.5q-25 0 -41.5 -8t-26.5 -21.5t-14 -31.5t-4 -38h-150q0 118 63.5 179.5t172.5 61.5
q56 0 98.5 -15t71.5 -41.5t43.5 -62.5t14.5 -78q0 -51 -20 -87t-55 -63q19 -9 36 -24.5t30 -36.5t20.5 -47t7.5 -55q0 -100 -63 -160t-183 -60z" />
    <glyph glyph-name="four" unicode="4" horiz-adv-x="569" 
d="M327 117h-302v121l215 462h133v-57l-176 -384h130v152h154v-152h74v-142h-74v-117h-154v117z" />
    <glyph glyph-name="five" unicode="5" horiz-adv-x="595" 
d="M290 -15q-106 0 -171.5 56t-74.5 160h152q5 -29 28 -51.5t68 -22.5q48 0 69.5 32t21.5 87q0 48 -21.5 78t-66.5 30q-21 0 -35 -4.5t-23.5 -12t-15 -16t-9.5 -15.5h-150l39 394h400v-142h-279l-12 -100q13 6 24.5 11t25 8t29.5 4.5t37 1.5q39 0 77 -12t68.5 -39.5
t49.5 -73t19 -112.5q0 -66 -18.5 -115t-52 -81.5t-79.5 -48.5t-100 -16z" />
    <glyph glyph-name="six" unicode="6" horiz-adv-x="593" 
d="M296 -15q-56 0 -102.5 16t-79.5 46.5t-51.5 74t-18.5 98.5q0 47 16 97.5t52 107.5l177 275h144v-57l-126 -189q5 1 11 1.5t10 0.5q44 0 84 -11.5t70 -37.5t48 -67.5t18 -100.5q0 -62 -18.5 -109.5t-51.5 -79.5t-79.5 -48.5t-102.5 -16.5zM296 127q47 0 70.5 27.5
t23.5 74.5t-24 74.5t-70 27.5q-48 0 -71 -28t-23 -74q0 -47 23.5 -74.5t70.5 -27.5z" />
    <glyph glyph-name="seven" unicode="7" horiz-adv-x="548" 
d="M142 56l195 502h-161v-65h-145v207h467v-133l-214 -567h-142v56z" />
    <glyph glyph-name="eight" unicode="8" horiz-adv-x="622" 
d="M311 715q58 0 103 -16t75.5 -43.5t46 -63.5t15.5 -75q0 -54 -21.5 -88t-56.5 -62q19 -11 36 -27t30 -37t20.5 -46t7.5 -53q0 -50 -18 -90.5t-51.5 -69t-81 -44t-105.5 -15.5q-59 0 -106 15.5t-80.5 44t-51.5 69t-18 90.5q0 28 7.5 53t20.5 46t30 37t36 27
q-35 28 -56.5 62t-21.5 88q0 39 15.5 75t46 63.5t75.5 43.5t103 16zM311 423q15 0 30 4t27 14t19 25t7 38q0 30 -18.5 52.5t-64.5 22.5t-64.5 -22.5t-18.5 -52.5q0 -23 7 -38t19 -25t27 -14t30 -4zM311 127q26 0 44.5 7.5t30 20t17 29t5.5 33.5q0 22 -8 38t-21.5 27
t-31 16.5t-36.5 5.5t-36.5 -5.5t-31 -16.5t-21.5 -27t-8 -38q0 -17 5.5 -33.5t17 -29t30 -20t44.5 -7.5z" />
    <glyph glyph-name="nine" unicode="9" horiz-adv-x="593" 
d="M297 715q56 0 102.5 -16t79.5 -46.5t51.5 -74t18.5 -98.5q0 -47 -16 -97.5t-52 -107.5l-177 -275h-144v57l126 189q-5 -1 -11 -1.5t-10 -0.5q-44 0 -84 11.5t-70 37.5t-48 67.5t-18 100.5q0 62 18.5 109.5t51.5 79.5t79.5 48.5t102.5 16.5zM297 573q-47 0 -70.5 -27.5
t-23.5 -74.5t24 -74.5t70 -27.5q48 0 71 28t23 74q0 47 -23.5 74.5t-70.5 27.5z" />
    <glyph glyph-name="colon" unicode=":" horiz-adv-x="299" 
d="M65 148h169v-148h-169v148zM65 529h169v-148h-169v148z" />
    <glyph glyph-name="semicolon" unicode=";" horiz-adv-x="305" 
d="M75 148h153v-65l-86 -211h-109zM65 529h169v-148h-169v148z" />
    <glyph glyph-name="less" unicode="&#x3c;" horiz-adv-x="548" 
d="M64 249v128l346 175h74v-111l-263 -128l263 -128v-111h-74z" />
    <glyph glyph-name="equal" unicode="=" horiz-adv-x="588" 
d="M64 270h460v-130h-460v130zM64 486h460v-130h-460v130z" />
    <glyph glyph-name="greater" unicode="&#x3e;" horiz-adv-x="548" 
d="M64 185l263 128l-263 128v111h74l346 -175v-128l-346 -175h-74v111z" />
    <glyph glyph-name="question" unicode="?" horiz-adv-x="532" 
d="M171 339l108 78q27 20 43.5 38t16.5 49q0 30 -20 49.5t-55 19.5q-46 0 -67.5 -28.5t-21.5 -72.5h-150q0 59 18.5 104.5t51.5 76t77 46.5t95 16q58 0 101 -17.5t71.5 -46t42.5 -65.5t14 -76q0 -40 -12 -70t-31 -53t-43 -41.5t-47 -34.5l-36 -25v-66h-156v119zM171 148h156
v-148h-156v148z" />
    <glyph glyph-name="at" unicode="@" horiz-adv-x="987" 
d="M502 -151q-97 0 -177.5 32t-138 89.5t-89.5 137t-32 174.5q0 97 32 177t89.5 137t138 88t177.5 31q88 0 164.5 -27.5t133 -78.5t89 -123.5t32.5 -163.5q0 -54 -13.5 -100.5t-40.5 -81.5t-67 -55t-92 -20q-46 0 -80.5 12.5t-61.5 36.5q-21 -17 -47.5 -33t-68.5 -16
q-30 0 -57 8t-47.5 25t-33 45t-12.5 67v146q0 39 12.5 66.5t33 44.5t47.5 25t57 8q42 0 67 -14t48 -34l37 40h76v-264q0 -29 13.5 -43t36.5 -14q9 0 23.5 6.5t28 23t23 46t9.5 76.5q0 71 -25 126t-67 93t-98.5 57.5t-119.5 19.5q-71 0 -131.5 -23.5t-104 -67t-68 -106
t-24.5 -141.5t25 -141t68.5 -104.5t103.5 -65t131 -22.5h25v-99h-25zM479 190q23 0 38.5 9.5t25.5 20.5v127q-10 10 -25 19.5t-38 9.5q-14 0 -29.5 -10.5t-15.5 -33.5v-97q0 -24 15.5 -34.5t28.5 -10.5z" />
    <glyph glyph-name="A" unicode="A" horiz-adv-x="664" 
d="M439 151h-222l-50 -151h-152v56l232 644h169l233 -644v-56h-161zM265 295h126l-62 191z" />
    <glyph glyph-name="B" unicode="B" horiz-adv-x="674" 
d="M85 700h297q100 0 159 -49.5t59 -148.5q0 -45 -16.5 -80.5t-54.5 -58.5q20 -11 38.5 -24.5t32 -33t21.5 -45t8 -60.5q0 -103 -58.5 -151.5t-158.5 -48.5h-327v700zM372 423q8 0 17.5 3t17.5 10.5t13 19t5 29.5t-5 30.5t-13 20t-17.5 11t-17.5 3.5h-115v-127h115zM401 150
q8 0 17.5 3t17.5 10.5t13.5 19.5t5.5 30q0 19 -5.5 31.5t-13.5 20t-17.5 11t-17.5 3.5h-144v-129h144z" />
    <glyph glyph-name="C" unicode="C" horiz-adv-x="661" 
d="M343 -15q-137 0 -207.5 66t-70.5 186v226q0 120 70.5 186t207.5 66q52 0 100 -13.5t84.5 -43.5t58 -77.5t21.5 -114.5v-10h-172v10q0 26 -8.5 43.5t-23 28t-33 15t-38.5 4.5q-51 0 -73 -22t-22 -60v-249q0 -38 22 -60.5t73 -22.5q20 0 38.5 4t33 14.5t23 28.5t8.5 45v9
h172v-10q0 -67 -21.5 -114.5t-58 -77.5t-84.5 -43.5t-100 -13.5z" />
    <glyph glyph-name="D" unicode="D" horiz-adv-x="694" 
d="M344 150q29 0 50.5 8t35 20t20 27t6.5 30v230q0 15 -6.5 30t-20 27.5t-35 20t-50.5 7.5h-87v-400h87zM85 700h259q132 0 208 -62t76 -177v-222q0 -116 -76 -177.5t-208 -61.5h-259v700z" />
    <glyph glyph-name="E" unicode="E" horiz-adv-x="613" 
d="M85 700h468v-150h-296v-128h250v-142h-250v-130h298v-150h-470v700z" />
    <glyph glyph-name="F" unicode="F" horiz-adv-x="597" 
d="M85 700h476v-150h-304v-140h256v-142h-256v-268h-172v700z" />
    <glyph glyph-name="G" unicode="G" horiz-adv-x="691" 
d="M341 143q39 0 65.5 17t43.5 36v51h-110v142h277v-389h-91l-34 56q-25 -32 -71 -51.5t-97 -19.5q-60 0 -108 16.5t-81.5 48t-51.5 76.5t-18 102v239q0 120 72.5 184t207.5 64q58 0 108 -16t86.5 -47t57 -77t20.5 -105h-173q0 42 -26.5 64.5t-76.5 22.5q-54 0 -79 -25
t-25 -68v-228q0 -43 25 -68t79 -25z" />
    <glyph glyph-name="H" unicode="H" horiz-adv-x="725" 
d="M85 700h172v-275h210v275h172v-700h-172v275h-210v-275h-172v700z" />
    <glyph glyph-name="I" unicode="I" horiz-adv-x="343" 
d="M85 700h172v-700h-172v700z" />
    <glyph glyph-name="J" unicode="J" horiz-adv-x="592" 
d="M266 -15q-52 0 -97.5 11t-79.5 37t-54 69t-20 108v34h172v-25q0 -44 22.5 -60t56.5 -16q33 0 55.5 16t22.5 60v481h172v-489q0 -64 -20.5 -107t-55 -69.5t-79.5 -38t-95 -11.5z" />
    <glyph glyph-name="K" unicode="K" horiz-adv-x="662" 
d="M85 700h172v-275h62l155 275h152v-57l-166 -283l181 -304v-56h-163l-156 275h-65v-275h-172v700z" />
    <glyph glyph-name="L" unicode="L" horiz-adv-x="572" 
d="M85 700h172v-550h300v-150h-472v700z" />
    <glyph glyph-name="M" unicode="M" horiz-adv-x="821" 
d="M85 700h167l159 -283l159 283h165v-700h-167v395l-105 -188h-106l-105 188v-395h-167v700z" />
    <glyph glyph-name="N" unicode="N" horiz-adv-x="725" 
d="M85 700h158l229 -379v379h167v-700h-157l-230 379v-379h-167v700z" />
    <glyph glyph-name="O" unicode="O" horiz-adv-x="699" 
d="M349 143q31 0 52 8.5t34.5 21t19.5 28.5t6 31v237q0 15 -6 30.5t-19.5 28t-34.5 21t-52 8.5q-30 0 -51.5 -8.5t-35 -21t-19.5 -28t-6 -30.5v-237q0 -15 6 -31t19.5 -28.5t35 -21t51.5 -8.5zM349 -15q-65 0 -117 17t-89.5 49.5t-57.5 79.5t-20 107v222q0 61 20 108.5
t57.5 80t89.5 49.5t117 17t117.5 -17t89.5 -49.5t57 -80t20 -108.5v-222q0 -60 -20 -107t-57 -79.5t-89.5 -49.5t-117.5 -17z" />
    <glyph glyph-name="P" unicode="P" horiz-adv-x="655" 
d="M85 700h325q97 0 150.5 -61t53.5 -164q0 -52 -13.5 -94t-40 -71.5t-64.5 -45.5t-86 -16h-153v-248h-172v700zM377 398q10 0 21 3.5t20.5 12.5t15.5 23.5t6 35.5q0 22 -6 36.5t-15.5 23.5t-20.5 13t-21 4h-120v-152h120z" />
    <glyph glyph-name="Q" unicode="Q" horiz-adv-x="699" 
d="M349 -15q-65 0 -117 17t-89.5 49.5t-57.5 79.5t-20 107v222q0 61 20 108.5t57.5 80t89.5 49.5t117 17t117.5 -17t89.5 -49.5t57 -80t20 -108.5v-222q0 -66 -23.5 -116t-67.5 -82l90 -103v-56h-167l-90 105q-6 -1 -12.5 -1h-13.5zM349 143q31 0 52 8.5t34.5 21t19.5 28.5
t6 31v237q0 15 -6 30.5t-19.5 28t-34.5 21t-52 8.5q-30 0 -51.5 -8.5t-35 -21t-19.5 -28t-6 -30.5v-237q0 -15 6 -31t19.5 -28.5t35 -21t51.5 -8.5z" />
    <glyph glyph-name="R" unicode="R" horiz-adv-x="687" 
d="M85 700h307q113 0 169.5 -58.5t56.5 -163.5q0 -69 -28 -121t-79 -82l129 -219v-56h-167l-144 256h-72v-256h-172v700zM363 398q38 0 59.5 15.5t21.5 61.5q0 44 -21.5 59.5t-59.5 15.5h-106v-152h106z" />
    <glyph glyph-name="S" unicode="S" horiz-adv-x="657" 
d="M325 -15q-59 0 -111 15.5t-90.5 45.5t-61 75.5t-22.5 105.5h172q0 -27 12.5 -43.5t31.5 -25.5t41 -12t41 -3q45 0 67 14.5t22 40.5q0 24 -26.5 37t-76.5 30l-114 38q-19 6 -45 18.5t-50 35t-40.5 56t-16.5 81.5q0 50 18.5 91t53 70t84 44.5t111.5 15.5q58 0 107 -15
t85 -45t56 -75t20 -105h-173q0 42 -30.5 62t-72.5 20q-40 0 -62 -14t-22 -40q0 -25 18 -36t53 -23l111 -38q42 -14 76 -30t58 -38.5t37.5 -54t13.5 -76.5q0 -48 -16.5 -89t-50.5 -70.5t-86 -46t-122 -16.5z" />
    <glyph glyph-name="T" unicode="T" horiz-adv-x="578" 
d="M203 550h-188v150h547v-150h-187v-550h-172v550z" />
    <glyph glyph-name="U" unicode="U" horiz-adv-x="705" 
d="M352 -15q-64 0 -115.5 16.5t-87.5 48t-55 77t-19 102.5v471h172v-477q0 -13 5.5 -27t17.5 -26t32 -19.5t50 -7.5t50 7.5t32.5 19.5t17.5 26t5 27v477h172v-471q0 -57 -19 -102.5t-55 -77t-87.5 -48t-115.5 -16.5z" />
    <glyph glyph-name="V" unicode="V" horiz-adv-x="663" 
d="M15 643v57h165l155 -469l150 469h163v-57l-231 -643h-170z" />
    <glyph glyph-name="W" unicode="W" horiz-adv-x="856" 
d="M35 643v57h165l88 -425l84 273h114l87 -276l87 428h160v-57l-143 -643h-159l-90 284l-90 -284h-161z" />
    <glyph glyph-name="X" unicode="X" horiz-adv-x="653" 
d="M430 369l205 -313v-56h-172l-139 218l-140 -218h-166v56l205 311l-180 276v57h172l114 -180l116 180h166v-57z" />
    <glyph glyph-name="Y" unicode="Y" horiz-adv-x="619" 
d="M221 277l-215 366v57h164l141 -256l142 256h160v-57l-219 -360v-283h-173v277z" />
    <glyph glyph-name="Z" unicode="Z" horiz-adv-x="599" 
d="M35 150l308 400h-292v150h501v-149l-308 -401h321v-150h-530v150z" />
    <glyph glyph-name="bracketleft" unicode="[" horiz-adv-x="357" 
d="M85 785h214v-143h-72v-659h72v-143h-214v945z" />
    <glyph glyph-name="backslash" unicode="\" horiz-adv-x="460" 
d="M425.002 -44l-263.983 829h-124.993v-56l262.984 -829h125.992v56z" />
    <glyph glyph-name="bracketright" unicode="]" horiz-adv-x="347" 
d="M262.005 785h-213.986v-143h71.9951v-659h-71.9951v-143h213.986v945z" />
    <glyph glyph-name="asciicircum" unicode="^" horiz-adv-x="553" 
d="M64 443l147 262h131l147 -262v-56h-134l-79 139l-78 -139h-134v56z" />
    <glyph glyph-name="underscore" unicode="_" horiz-adv-x="582" 
d="M-1 -19h584v-130h-584v130z" />
    <glyph glyph-name="grave" unicode="`" horiz-adv-x="311" 
d="M56 676v54h141l57 -140h-124z" />
    <glyph glyph-name="a" unicode="a" horiz-adv-x="576" 
d="M253 126q23 0 48 8t48 31v50h-77q-34 0 -54 -10.5t-20 -34.5q0 -17 12.5 -30.5t42.5 -13.5zM219 -12q-37 0 -69.5 10.5t-57 31.5t-38.5 51.5t-14 69.5q0 82 52 126t160 44h97v23q0 55 -66 55q-35 0 -50 -12t-15 -29h-154q0 40 13 73.5t40 58t68.5 38t97.5 13.5t98 -13.5
t69.5 -38t41.5 -58.5t14 -75v-356h-90l-38 48q-29 -27 -65.5 -43.5t-93.5 -16.5z" />
    <glyph glyph-name="b" unicode="b" horiz-adv-x="605" 
d="M324 130q9 0 20 3.5t20.5 11t16 19.5t6.5 29v143q0 16 -6.5 28t-16 20t-21 11.5t-20.5 3.5q-33 0 -54.5 -14t-35.5 -28v-185q14 -14 36 -28t55 -14zM356 -12q-56 0 -91.5 18.5t-61.5 41.5l-38 -48h-90v705h158v-199q6 4 16 10t25 11.5t35.5 9.5t47.5 4q37 0 71 -11
t60 -34.5t41.5 -60t15.5 -87.5v-166q0 -51 -15.5 -88t-41.5 -60.5t-60.5 -34.5t-71.5 -11z" />
    <glyph glyph-name="c" unicode="c" horiz-adv-x="548" 
d="M210 186q0 -23 15 -39.5t50 -16.5t51.5 15.5t16.5 42.5v12h158v-7q0 -49 -16.5 -87t-46 -64.5t-70 -40t-87.5 -13.5q-51 0 -93 13t-72.5 38.5t-47 61.5t-16.5 83v162q0 46 16.5 82.5t47 61.5t72.5 38t93 13q49 0 89.5 -13t69.5 -39t45 -64t16 -87v-6h-158v6
q0 29 -16.5 45t-51.5 16t-50 -16.5t-15 -39.5v-157z" />
    <glyph glyph-name="d" unicode="d" horiz-adv-x="606" 
d="M281 130q33 0 55 14t36 28v185q-14 14 -35.5 28t-54.5 14q-9 0 -20.5 -3.5t-21 -11.5t-16 -20t-6.5 -28v-143q0 -17 6.5 -29t16 -19.5t20.5 -11t20 -3.5zM249 -12q-38 0 -72 11t-60 34.5t-41.5 60.5t-15.5 88v166q0 51 15.5 87.5t41.5 60t60 34.5t71 11q27 0 47.5 -4
t35.5 -9.5t25 -11.5t16 -10v199h158v-705h-90l-38 48q-26 -23 -61.5 -41.5t-91.5 -18.5z" />
    <glyph glyph-name="e" unicode="e" horiz-adv-x="563" 
d="M288 -12q-52 0 -95.5 12.5t-74.5 36.5t-48.5 60.5t-17.5 84.5v164q0 46 17.5 82.5t48.5 61.5t74.5 38t95.5 13q48 0 89 -12t71 -36.5t47 -60.5t17 -84v-136h-302v-29q0 -23 18 -38t60 -15q52 0 66 31h157q-8 -82 -66.5 -127.5t-156.5 -45.5zM354 325v28q0 24 -18.5 37.5
t-53.5 13.5t-53.5 -13.5t-18.5 -37.5v-28h144z" />
    <glyph glyph-name="f" unicode="f" horiz-adv-x="361" 
d="M83 393h-73v136h73q0 50 18 84.5t49 55.5t71.5 30.5t85.5 9.5q7 0 17.5 -0.5t21.5 -1.5v-128h-24q-42 0 -61.5 -13.5t-19.5 -36.5h96v-136h-96v-393h-158v393z" />
    <glyph glyph-name="g" unicode="g" horiz-adv-x="606" 
d="M281 187q33 0 54.5 14.5t36.5 28.5v127q-15 14 -36.5 28t-54.5 14q-9 0 -19.5 -3.5t-20.5 -11.5t-16.5 -20t-6.5 -28v-84q0 -17 6.5 -29.5t16.5 -20.5t20.5 -11.5t19.5 -3.5zM530 34q0 -52 -17 -90.5t-48 -64t-73.5 -38.5t-93.5 -13q-108 0 -166 47.5t-58 131.5h157
q0 -3 1.5 -9.5t8 -12.5t19.5 -10.5t37 -4.5q43 0 59 19.5t16 44.5v46q-6 -4 -16 -10t-25 -11.5t-35.5 -9.5t-47.5 -4q-37 0 -71 11t-60 34.5t-41.5 60t-15.5 87.5v110q0 51 15.5 87.5t41.5 60t60 34.5t72 11q56 0 91.5 -18.5t61.5 -41.5l38 48h90v-495z" />
    <glyph glyph-name="h" unicode="h" horiz-adv-x="610" 
d="M75 705h158v-200q22 14 51 25t71 11q90 0 137.5 -55.5t47.5 -152.5v-333h-158v325q0 38 -18 56t-45 18q-17 0 -31.5 -5.5t-25.5 -12.5t-18.5 -14t-10.5 -10v-357h-158v705z" />
    <glyph glyph-name="i" unicode="i" horiz-adv-x="309" 
d="M75 529h158v-529h-158v529zM75 705h158v-115h-158v115z" />
    <glyph glyph-name="j" unicode="j" horiz-adv-x="309" 
d="M38 -172h-16.5t-21.5 2v140h20q16 0 27 4.5t17 16t8.5 31.5t2.5 51v456h158v-501q0 -35 -10.5 -71t-34 -64.5t-60.5 -46.5t-90 -18zM75 705h158v-115h-158v115z" />
    <glyph glyph-name="k" unicode="k" horiz-adv-x="581" 
d="M75 705h158v-365h42l128 189h131v-73l-123 -180l135 -203v-73h-134l-137 204h-42v-204h-158v705z" />
    <glyph glyph-name="l" unicode="l" horiz-adv-x="309" 
d="M75 705h158v-705h-158v705z" />
    <glyph glyph-name="m" unicode="m" horiz-adv-x="879" 
d="M75 529h90l38 -48q11 10 25 20.5t32 19.5t39 14.5t46 5.5q48 0 83 -16.5t58 -45.5q24 24 60 43t88 19q45 0 78 -15t54.5 -41t32 -61t10.5 -74v-350h-158v338q0 32 -15.5 46.5t-38.5 14.5q-26 0 -47 -13t-29 -27v-359h-158v338q0 32 -15.5 46.5t-39.5 14.5q-25 0 -45 -12
t-30 -28v-359h-158v529z" />
    <glyph glyph-name="n" unicode="n" horiz-adv-x="610" 
d="M75 529h90l38 -48q26 24 62 42t90 18q89 0 137 -55.5t48 -152.5v-333h-158v325q0 38 -18 56t-45 18q-17 0 -31.5 -5.5t-25.5 -12.5t-18.5 -14t-10.5 -10v-357h-158v529z" />
    <glyph glyph-name="o" unicode="o" horiz-adv-x="574" 
d="M288 130q38 0 57 17.5t19 41.5v149q0 25 -19 43t-57 18q-42 0 -60 -19t-18 -42v-149q0 -23 18 -41t60 -18zM288 -12q-59 0 -103 15t-73.5 41.5t-44.5 62t-15 77.5v162q0 41 15 76.5t44.5 62t73.5 41.5t103 15q58 0 102 -15t73 -41.5t44 -62t15 -76.5v-162
q0 -42 -15 -77.5t-44 -62t-73 -41.5t-102 -15z" />
    <glyph glyph-name="p" unicode="p" horiz-adv-x="605" 
d="M324 399q-33 0 -55 -14t-36 -28v-185q14 -14 35.5 -28t54.5 -14q9 0 20.5 3.5t21 11.5t16 19.5t6.5 28.5v143q0 17 -6.5 29t-16 19.5t-20.5 11t-20 3.5zM356 541q37 0 71.5 -11t60.5 -34.5t41.5 -60.5t15.5 -88v-166q0 -51 -15.5 -87.5t-41.5 -60t-60 -34.5t-71 -11
q-27 0 -47.5 4t-35.5 9.5t-25 11.5t-16 10v-183h-158v689h90l38 -48q26 23 61.5 41.5t91.5 18.5z" />
    <glyph glyph-name="q" unicode="q" horiz-adv-x="606" 
d="M281 399q-9 0 -20 -3.5t-20.5 -11t-16 -19.5t-6.5 -29v-143q0 -17 6.5 -28.5t16 -19.5t21 -11.5t20.5 -3.5q33 0 54.5 14t35.5 28v185q-14 14 -36 28t-55 14zM249 541q56 0 91.5 -18.5t61.5 -41.5l38 48h90v-689h-158v183q-6 -4 -16 -10t-25 -11.5t-35.5 -9.5t-47.5 -4
q-37 0 -71 11t-60 34.5t-41.5 60t-15.5 87.5v166q0 51 15.5 88t41.5 60.5t60 34.5t72 11z" />
    <glyph glyph-name="r" unicode="r" horiz-adv-x="397" 
d="M75 529h90l38 -48q7 9 18 19.5t26.5 19.5t35.5 15t46 6h45v-149h-45q-33 0 -57 -8t-39 -28v-356h-158v529z" />
    <glyph glyph-name="s" unicode="s" horiz-adv-x="563" 
d="M285 -12q-56 0 -100.5 14.5t-75.5 40.5t-48.5 61.5t-18.5 78.5h152q7 -26 31 -43t75 -17q29 0 45 8t16 24q0 24 -37 33l-136 33q-21 5 -43.5 15t-41.5 26.5t-31.5 41.5t-12.5 60q0 85 59 131t164 46q49 0 90.5 -13.5t72.5 -37.5t48.5 -58t17.5 -75h-151q-5 27 -29 38.5
t-56 11.5q-36 0 -49.5 -9t-13.5 -23q0 -11 8.5 -16t25.5 -9l147 -35q24 -5 45.5 -16.5t38.5 -29.5t27 -43.5t10 -59.5q0 -43 -17 -76t-47 -55.5t-72 -34.5t-93 -12z" />
    <glyph glyph-name="t" unicode="t" horiz-adv-x="398" 
d="M296 0q-63 0 -103.5 18t-64 47.5t-32 68t-8.5 80.5v179h-73v136h73v111h158v-111h112v-136h-112v-176q0 -50 18.5 -65.5t50.5 -15.5h43v-136h-62v0z" />
    <glyph glyph-name="u" unicode="u" horiz-adv-x="606" 
d="M530 0h-90l-38 48q-23 -21 -59 -40.5t-91 -19.5q-88 0 -135.5 54.5t-47.5 150.5v336h158v-325q0 -33 11.5 -53.5t49.5 -20.5q16 0 30 5t25 12t18.5 13t10.5 9v360h158v-529z" />
    <glyph glyph-name="v" unicode="v" horiz-adv-x="543" 
d="M25 456v73h147l106 -312l97 312h143v-73l-176 -456h-141z" />
    <glyph glyph-name="w" unicode="w" horiz-adv-x="732" 
d="M490 217l60 312h142v-73l-105 -456h-147l-73 192l-72 -192h-151l-104 456v73h143l61 -312l70 224h105z" />
    <glyph glyph-name="x" unicode="x" horiz-adv-x="536" 
d="M364 271l137 -198v-73h-141l-96 159l-95 -159h-134v73l134 191l-132 192v73h142l87 -146l92 146h132v-73z" />
    <glyph glyph-name="y" unicode="y" horiz-adv-x="520" 
d="M146 -104l42 104l-173 456v73h145l106 -311l97 311h143v-73l-229 -616h-131v56z" />
    <glyph glyph-name="z" unicode="z" horiz-adv-x="540" 
d="M49 136l227 257h-222v136h415v-136l-231 -257h249v-136h-438v136z" />
    <glyph glyph-name="braceleft" unicode="{" horiz-adv-x="350" 
d="M103 179q0 37 -12.5 53t-41.5 16h-24v141h24q29 0 41.5 16t12.5 53v135q0 102 48 147t139 45h10v-143h-19q-21 0 -28.5 -15t-7.5 -34v-167q0 -47 -21 -72t-47 -35q13 -5 25 -13.5t21.5 -21.5t15.5 -31t6 -42v-179q0 -19 7.5 -34t28.5 -15h19v-143h-10q-91 0 -139 44
t-48 146v149z" />
    <glyph glyph-name="bar" unicode="|" horiz-adv-x="312" 
d="M85 785h142v-885h-142v885z" />
    <glyph glyph-name="braceright" unicode="}" horiz-adv-x="350" 
d="M247.006 179q0 37 12.5 53q12.499 16 41.4971 16h23.999v141h-23.999q-28.998 0 -41.4971 16q-12.5 16 -12.5 53v135q0 102 -47.9971 147t-138.991 45h-9.99902v-143h18.999q20.998 0 28.498 -15q7.49902 -15 7.49902 -34v-167q0 -47 20.999 -72t46.9971 -35
q-12.999 -5 -24.998 -13.5q-12 -8.5 -21.499 -21.5t-15.499 -31t-6 -42v-179q0 -19 -7.49902 -34q-7.5 -15 -28.498 -15h-18.999v-143h9.99902q90.9941 0 138.991 44t47.9971 146v149z" />
    <glyph glyph-name="asciitilde" unicode="~" horiz-adv-x="510" 
d="M42 284q7 19 19.5 41.5t30 41t40.5 31t52 12.5q18 0 37.5 -6.5t34.5 -15.5l30 -19q8 -5 14 -7.5t17 -2.5q12 0 21.5 8.5t22.5 33.5l107 -60q-7 -19 -19 -41t-29.5 -40.5t-40.5 -31t-52 -12.5q-19 0 -39 6.5t-35 16.5l-29 17q-8 5 -14.5 8t-16.5 3q-11 0 -20.5 -8.5
t-23.5 -33.5z" />
    <glyph glyph-name="nonbreakingspace" unicode="&#xa0;" horiz-adv-x="0" 
 />
    <glyph glyph-name="exclamdown" unicode="&#xa1;" horiz-adv-x="286" 
d="M65 309h156v-469h-156v469zM65 529h156v-148h-156v148z" />
    <glyph glyph-name="cent" unicode="&#xa2;" horiz-adv-x="556" 
d="M336 620q78 -12 125.5 -62.5t47.5 -135.5v-8h-143v13q0 26 -14 43t-31 21v-288q17 4 31 20.5t14 43.5v14h143v-7q0 -42 -13 -76t-36.5 -59.5t-55 -42t-68.5 -23.5v-73h-113v74q-76 17 -123.5 65.5t-47.5 127.5v161q0 78 47.5 126.5t123.5 64.5v81h113v-80zM191 298
q0 -38 7.5 -61t37.5 -34v288q-30 -11 -37.5 -34t-7.5 -61v-98z" />
    <glyph glyph-name="sterling" unicode="&#xa3;" horiz-adv-x="583" 
d="M35 142h63v139h-63v142h63v96q0 46 16.5 82.5t46.5 62t72 38.5t93 13q49 0 90 -13.5t70.5 -40.5t45.5 -67.5t16 -95.5v-34h-158v35q0 39 -16.5 56.5t-50.5 17.5q-39 0 -53 -18t-14 -43v-89h108v-142h-108v-139h292v-142h-513v142z" />
    <glyph glyph-name="yen" unicode="&#xa5;" horiz-adv-x="569" 
d="M206 88h-150v122h150v70h-150v122h96l-146 241v57h144l136 -244l136 244h141v-57l-146 -241h96v-122h-150v-70h150v-122h-150v-88h-157v88z" />
    <glyph glyph-name="brokenbar" unicode="&#xa6;" horiz-adv-x="312" 
d="M85 256h142v-356h-142v356zM85 785h142v-336h-142v336z" />
    <glyph glyph-name="section" unicode="&#xa7;" horiz-adv-x="604" 
d="M205 28q0 -20 10 -32.5t25.5 -19.5t33 -10t32.5 -3q39 0 57 11.5t18 31.5q0 24 -23 35.5t-72 25.5l-37 11q-92 27 -139 70t-47 116q0 49 21 82t50 62q-36 24 -49.5 54.5t-13.5 71.5q0 37 15 69t43.5 55.5t69.5 37t94 13.5t98 -10.5t78 -34t51.5 -61t18.5 -91.5h-149
q0 18 -9.5 29.5t-24 18.5t-31.5 10t-33 3q-42 0 -56.5 -12t-14.5 -27q0 -20 18.5 -33t72.5 -29l43 -13q92 -28 140.5 -71t48.5 -117q0 -50 -17.5 -82t-46.5 -64q17 -14 28 -27.5t17 -27t8.5 -29t2.5 -34.5q0 -38 -15 -71t-45 -57t-75 -37.5t-105 -13.5q-49 0 -93 12t-77 37
t-52.5 62.5t-19.5 88.5h151zM370 187q14 20 17.5 34t3.5 30q0 29 -19.5 44.5t-60.5 29.5l-62 21q-14 -19 -22 -33t-8 -31q0 -26 20.5 -43t65.5 -31z" />
    <glyph glyph-name="dieresis" unicode="&#xa8;" horiz-adv-x="507" 
d="M69 705h157v-115h-157v115zM280 705h158v-115h-158v115z" />
    <glyph glyph-name="copyright" unicode="&#xa9;" horiz-adv-x="828" 
d="M411 140q-76 0 -123.5 37t-47.5 105v137q0 68 47.5 105t123.5 37q78 0 124 -39.5t46 -111.5v-4h-122v4q0 17 -11.5 29.5t-36.5 12.5q-27 0 -38 -11.5t-11 -28.5v-126q0 -15 11 -26.5t38 -11.5q25 0 36.5 11.5t11.5 29.5v8h122v-6q0 -35 -13 -63t-35.5 -47.5t-53.5 -30
t-68 -10.5zM414 -15q-76 0 -142 28t-114.5 77t-76 116t-27.5 144t27.5 144t76 116t114.5 77t142 28t142 -28t114.5 -77t76 -116t27.5 -144t-27.5 -144t-76 -116t-114.5 -77t-142 -28zM414 65q57 0 106.5 21.5t86 60t57.5 90.5t21 113t-21 113t-57.5 90t-86 60t-106.5 22
t-106.5 -22t-86 -60t-57.5 -90t-21 -113t21 -113t57.5 -90.5t86 -60t106.5 -21.5z" />
    <glyph glyph-name="ordfeminine" unicode="&#xaa;" horiz-adv-x="361" 
d="M137 353q-24 0 -45 6.5t-37 20t-25.5 32.5t-9.5 45q0 52 35 78.5t110 26.5h47v21q0 15 -10 23t-26 8t-26 -8t-10 -24h-106q0 23 8 45t25 39.5t44 28t66 10.5t66.5 -9.5t44 -27t24 -40.5t7.5 -50v-220h-60l-21 31q-16 -16 -42.5 -26t-58.5 -10zM166 440q8 0 22 3.5
t24 12.5v37h-50q-13 0 -22 -6.5t-9 -19.5q0 -11 9 -19t26 -8z" />
    <glyph glyph-name="guillemotleft" unicode="&#xab;" horiz-adv-x="556" 
d="M33 299l111 210h135v-43l-83 -167l83 -168v-44h-135zM250 299l111 210h135v-43l-83 -167l83 -168v-44h-135z" />
    <glyph glyph-name="logicalnot" unicode="&#xac;" horiz-adv-x="573" 
d="M376 369h-319v131h459v-294h-140v163z" />
    <glyph glyph-name="uni00AD" unicode="&#xad;" horiz-adv-x="447" 
d="M55 384h337v-142h-337v142z" />
    <glyph glyph-name="registered" unicode="&#xae;" horiz-adv-x="413" 
d="M140 632h71q32 0 50 -15t18 -46q0 -20 -9 -32.5t-20 -19.5l29 -47v-16h-50l-31 55h-10v-55h-48v176zM212 553q7 0 12.5 3.5t5.5 13.5q0 8 -5.5 11.5t-12.5 3.5h-24v-32h24zM206 371q-35 0 -65.5 13t-53 36t-35.5 54.5t-13 68.5t13 68.5t35.5 54.5t53 36t65.5 13t65.5 -13
t53 -36t35.5 -54.5t13 -68.5t-13 -68.5t-35.5 -54.5t-53 -36t-65.5 -13zM206 415q25 0 47.5 9.5t38.5 26.5t25.5 40.5t9.5 51.5q0 27 -9.5 50.5t-25.5 41t-38.5 27t-47.5 9.5q-26 0 -48 -9.5t-38 -27t-25.5 -41t-9.5 -50.5q0 -28 9.5 -51.5t25.5 -40.5t38 -26.5t48 -9.5z
" />
    <glyph glyph-name="macron" unicode="&#xaf;" horiz-adv-x="415" 
d="M36 705h343v-110h-343v110z" />
    <glyph glyph-name="degree" unicode="&#xb0;" horiz-adv-x="394" 
d="M229 580q0 13 -9 21.5t-22 8.5q-15 0 -23 -9t-8 -21v-87q0 -13 7.5 -21.5t23.5 -8.5q14 0 22.5 8t8.5 22v87zM198 358q-74 0 -118.5 37.5t-44.5 113.5v55q0 76 44.5 113.5t118.5 37.5t118 -37.5t44 -113.5v-55q0 -76 -44 -113.5t-118 -37.5z" />
    <glyph glyph-name="plusminus" unicode="&#xb1;" horiz-adv-x="588" 
d="M223 352h-159v130h159v145h143v-145h158v-130h-158v-145h-143v145zM64 130h460v-130h-460v130z" />
    <glyph glyph-name="twosuperior" unicode="&#xb2;" horiz-adv-x="312" 
d="M19 450l79 57q28 22 43 34.5t22 20t8 13.5t1 14q0 6 -4.5 12.5t-15.5 6.5q-16 0 -19 -10t-3 -25h-116q0 32 10.5 57t29.5 41.5t44 25t54 8.5q62 0 98 -32t36 -79q0 -38 -17 -62.5t-46 -45.5l-46 -32h109v-96h-267v92z" />
    <glyph glyph-name="threesuperior" unicode="&#xb3;" horiz-adv-x="319" 
d="M165 353q-75 0 -112.5 36.5t-37.5 94.5h96q-1 -14 11 -23t32 -9q18 0 25.5 5.5t7.5 13.5q0 11 -10 15t-22 4h-26v78h26q14 0 21 3.5t7 14.5q0 20 -31 20q-17 0 -26.5 -9.5t-9.5 -25.5h-96q0 65 38 99.5t106 34.5q60 0 94 -29t34 -72q0 -23 -8.5 -39.5t-20.5 -25.5
q16 -8 27 -28t11 -45q0 -49 -36.5 -81t-99.5 -32z" />
    <glyph glyph-name="acute" unicode="&#xb4;" horiz-adv-x="311" 
d="M179 590h-123l57 140h141v-54z" />
    <glyph glyph-name="mu" unicode="&#xb5;" horiz-adv-x="612" 
d="M536 0h-90l-38 48q-23 -21 -59 -40.5t-91 -19.5q-7 0 -13 0.5t-12 1.5v-150h-158v689h158v-335q0 -29 13 -46.5t48 -17.5q16 0 30 5t25 11.5t18.5 13t10.5 9.5v360h158v-529z" />
    <glyph glyph-name="paragraph" unicode="&#xb6;" horiz-adv-x="645" 
d="M210 368q-81 0 -128 42t-47 120v8q0 80 47 121t128 41h350v-787h-145v644h-60v-644h-145v455z" />
    <glyph glyph-name="periodcentered" unicode="&#xb7;" horiz-adv-x="299" 
d="M65 387h169v-148h-169v148z" />
    <glyph glyph-name="cedilla" unicode="&#xb8;" horiz-adv-x="308" 
d="M133 0h123l-53 -160h-141v54z" />
    <glyph glyph-name="onesuperior" unicode="&#xb9;" horiz-adv-x="268" 
d="M106 534h-75v55l160 111h25v-342h-110v176z" />
    <glyph glyph-name="ordmasculine" unicode="&#xba;" horiz-adv-x="386" 
d="M193 353q-72 0 -114.5 36.5t-42.5 102.5v73q0 66 42.5 103t114.5 37q73 0 115 -37t42 -103v-73q0 -66 -42 -102.5t-115 -36.5zM194 451q24 0 35.5 11t11.5 25v82q0 16 -11.5 27t-35.5 11q-26 0 -37 -12t-11 -26v-82q0 -14 11 -25t37 -11z" />
    <glyph glyph-name="guillemotright" unicode="&#xbb;" horiz-adv-x="556" 
d="M314.002 299l-110.993 210h-134.992v-43l82.9951 -167l-82.9951 -168v-44h134.992zM531.002 299l-110.993 210h-134.992v-43l82.9951 -167l-82.9951 -168v-44h134.992z" />
    <glyph glyph-name="onequarter" unicode="&#xbc;" horiz-adv-x="747" 
d="M103 56l414 644h84v-57l-414 -643h-84v56zM106 534h-75v55l160 111h25v-342h-110v176zM604 343v-60l-81 -146h53v63h105v-63h34v-87h-34v-49h-105v49h-169v90l116 203h81z" />
    <glyph glyph-name="onehalf" unicode="&#xbd;" horiz-adv-x="757" 
d="M103 56l414 644h84v-57l-414 -643h-84v56zM106 534h-75v55l160 111h25v-342h-110v176zM464 93l79 57q28 22 43 34.5t22 20t8 13.5t1 14q0 6 -4.5 12.5t-15.5 6.5q-16 0 -19 -10t-3 -25h-116q0 32 10.5 57t29.5 41.5t44 25t54 8.5q62 0 98 -32t36 -79q0 -38 -17 -62.5
t-46 -45.5l-46 -32h109v-96h-267v92z" />
    <glyph glyph-name="threequarters" unicode="&#xbe;" horiz-adv-x="771" 
d="M127 56l414 644h84v-57l-414 -643h-84v56zM628 343v-60l-81 -146h53v63h105v-63h34v-87h-34v-49h-105v49h-169v90l116 203h81zM165 353q-75 0 -112.5 36.5t-37.5 94.5h96q-1 -14 11 -23t32 -9q18 0 25.5 5.5t7.5 13.5q0 11 -10 15t-22 4h-26v78h26q14 0 21 3.5t7 14.5
q0 20 -31 20q-17 0 -26.5 -9.5t-9.5 -25.5h-96q0 65 38 99.5t106 34.5q60 0 94 -29t34 -72q0 -23 -8.5 -39.5t-20.5 -25.5q16 -8 27 -28t11 -45q0 -49 -36.5 -81t-99.5 -32z" />
    <glyph glyph-name="questiondown" unicode="&#xbf;" horiz-adv-x="528" 
d="M345 200l-105 -73q-16 -11 -27.5 -20t-19 -19t-11.5 -22t-4 -28q0 -32 20.5 -50t55.5 -18q45 0 66 29t21 72h151q0 -59 -18.5 -104t-50.5 -76t-76.5 -47t-95.5 -16q-58 0 -101 16.5t-71.5 44.5t-43 65.5t-14.5 79.5q0 41 13 72t33.5 55t45.5 42t50 33l26 16v57h156v-109z
M345 381h-156v148h156v-148z" />
    <glyph glyph-name="Agrave" unicode="&#xc0;" horiz-adv-x="664" 
d="M439 151h-222l-50 -151h-152v56l232 644h169l233 -644v-56h-161zM265 295h126l-62 191zM194.033 863.687v57.8896h151.155l61.1045 -150.084h-132.93z" />
    <glyph glyph-name="Aacute" unicode="&#xc1;" horiz-adv-x="664" 
d="M439 151h-222l-50 -151h-152v56l232 644h169l233 -644v-56h-161zM265 295h126l-62 191zM415.892 771.492h-131.858l61.1055 150.084h151.154v-57.8896z" />
    <glyph glyph-name="Acircumflex" unicode="&#xc2;" horiz-adv-x="664" 
d="M439 151h-222l-50 -151h-152v56l232 644h169l233 -644v-56h-161zM265 295h126l-62 191zM500.567 825.094v-53.6016h-124.354l-34.3047 55.7461l-35.377 -55.7461h-127.57v53.6016l94.3379 96.4824h131.859z" />
    <glyph glyph-name="Atilde" unicode="&#xc3;" horiz-adv-x="664" 
d="M439 151h-222l-50 -151h-152v56l232 644h169l233 -644v-56h-161zM265 295h126l-62 191zM143.457 807.941q23.6201 45.1875 52.376 75.9971q28.7549 30.8096 72.915 30.8096q20.5391 0 34.917 -5.13574q14.3779 -5.13477 25.6748 -11.2959l26.7012 -15.4053
q16.4316 -9.24316 28.7559 -9.24316q13.3506 0 22.0801 9.24316q8.72852 9.24316 21.0527 31.8369l97.5625 -54.4307q-23.6201 -45.1865 -52.376 -75.9961q-28.7549 -30.8096 -72.915 -30.8096q-20.5391 0 -34.917 5.13477q-14.3779 5.13574 -25.6748 11.2969
l-26.7012 15.4053q-17.459 9.24219 -28.7559 9.24219q-13.3506 0 -22.0801 -9.24219q-8.72852 -9.24316 -21.0527 -31.8369z" />
    <glyph glyph-name="Adieresis" unicode="&#xc4;" horiz-adv-x="664" 
d="M439 151h-222l-50 -151h-152v56l232 644h169l233 -644v-56h-161zM265 295h126l-62 191zM137.97 895.464h168.308v-123.396h-168.308v123.396zM364.166 895.464h169.379v-123.396h-169.379v123.396z" />
    <glyph glyph-name="Aring" unicode="&#xc5;" horiz-adv-x="664" 
d="M439 151h-222l-50 -151h-152v56l232 644h169l233 -644v-56h-161zM265 295h126l-62 191zM220.889 856.492q0 23.6064 9.64844 43.9932q9.64844 20.3877 26.2646 35.9453q16.6162 15.5586 38.5928 24.1426t47.7051 8.58398q24.6562 0 46.6328 -8.58398t38.5928 -24.1426
q16.6162 -15.5576 26.2646 -35.9453q9.64844 -20.3867 9.64844 -43.9932q0 -23.6055 -9.64844 -44.5293q-9.64844 -20.9229 -26.2646 -35.9453q-16.6162 -15.0215 -38.5928 -24.1426q-21.9766 -9.12012 -46.6328 -9.12012q-25.7285 0 -47.7051 9.12012
q-21.9766 9.12109 -38.5928 24.1426q-16.6162 15.0225 -26.2646 35.9453q-9.64844 20.9238 -9.64844 44.5293zM312.011 856.492q0 -13.9482 9.64844 -21.9961q9.64844 -8.04688 21.4404 -8.04688t21.4404 8.04688q9.64844 8.04785 9.64844 21.9961
q0 15.0225 -9.64844 22.5332q-9.64844 7.51172 -21.4404 7.51172t-21.4404 -7.51172q-9.64844 -7.51074 -9.64844 -22.5332z" />
    <glyph glyph-name="AE" unicode="&#xc6;" horiz-adv-x="1027" 
d="M5 56l407 644h555v-150h-297v-129h251v-142h-251v-129h299v-150h-471v151h-249l-93 -151h-151v56zM498 295v258l-160 -258h160z" />
    <glyph glyph-name="Ccedilla" unicode="&#xc7;" horiz-adv-x="661" 
d="M270 -9q-102 17 -153.5 80t-51.5 166v226q0 120 70.5 186t207.5 66q52 0 100 -13.5t84.5 -43.5t58 -77.5t21.5 -114.5v-10h-172v10q0 26 -8.5 43.5t-23 28t-33 15t-38.5 4.5q-51 0 -73 -22t-22 -60v-249q0 -38 22 -60.5t73 -22.5q20 0 38.5 4t33 14.5t23 28.5t8.5 45v9
h172v-10q0 -59 -16.5 -102t-45 -73t-67 -47t-82.5 -23l-49 -149h-141v54z" />
    <glyph glyph-name="Egrave" unicode="&#xc8;" horiz-adv-x="613" 
d="M85 700h468v-150h-296v-128h250v-142h-250v-130h298v-150h-470v700zM204.033 863.687v57.8896h151.155l61.1045 -150.084h-132.93z" />
    <glyph glyph-name="Eacute" unicode="&#xc9;" horiz-adv-x="613" 
d="M85 700h468v-150h-296v-128h250v-142h-250v-130h298v-150h-470v700zM364.892 771.492h-131.858l61.1055 150.084h151.154v-57.8896z" />
    <glyph glyph-name="Ecircumflex" unicode="&#xca;" horiz-adv-x="613" 
d="M85 700h468v-150h-296v-128h250v-142h-250v-130h298v-150h-470v700zM487.567 825.094v-53.6016h-124.354l-34.3047 55.7461l-35.377 -55.7461h-127.57v53.6016l94.3379 96.4824h131.859z" />
    <glyph glyph-name="Edieresis" unicode="&#xcb;" horiz-adv-x="613" 
d="M85 700h468v-150h-296v-128h250v-142h-250v-130h298v-150h-470v700zM127.944 895.291h168.25v-123.366h-168.25v123.366zM354.063 895.291h169.321v-123.366h-169.321v123.366z" />
    <glyph glyph-name="Igrave" unicode="&#xcc;" horiz-adv-x="343" 
d="M85 700h172v-700h-172v700zM22.0332 863.687v57.8896h151.155l61.1045 -150.084h-132.93z" />
    <glyph glyph-name="Iacute" unicode="&#xcd;" horiz-adv-x="343" 
d="M85 700h172v-700h-172v700zM245.892 771.492h-131.858l61.1055 150.084h151.154v-57.8896z" />
    <glyph glyph-name="Icircumflex" unicode="&#xce;" horiz-adv-x="343" 
d="M85 700h172v-700h-172v700zM330.567 825.094v-53.6016h-124.354l-34.3047 55.7461l-35.377 -55.7461h-127.57v53.6016l94.3379 96.4824h131.859z" />
    <glyph glyph-name="Idieresis" unicode="&#xcf;" horiz-adv-x="343" 
d="M85 700h172v-700h-172v700zM-31.25 894.613h167.81v-123.093h-167.81v123.093zM194.277 894.613h168.878v-123.093h-168.878v123.093z" />
    <glyph glyph-name="Eth" unicode="&#xd0;" horiz-adv-x="721" 
d="M371 150q29 0 50 8t35 20t20.5 27t6.5 30v230q0 15 -6.5 30t-20.5 27.5t-35 20t-50 7.5h-88v-128h89v-142h-89v-130h88zM111 280h-91v142h91v278h260q65 0 117.5 -16t89.5 -46.5t57 -75t20 -101.5v-222q0 -58 -20 -102.5t-57 -75t-89.5 -46t-117.5 -15.5h-260v280z" />
    <glyph glyph-name="Ntilde" unicode="&#xd1;" horiz-adv-x="725" 
d="M85 700h158l229 -379v379h167v-700h-157l-230 379v-379h-167v700zM174.457 793.941q23.6201 45.1875 52.376 75.9971q28.7549 30.8096 72.915 30.8096q20.5391 0 34.917 -5.13574q14.3779 -5.13477 25.6748 -11.2959l26.7012 -15.4053q16.4316 -9.24316 28.7559 -9.24316
q13.3506 0 22.0801 9.24316q8.72852 9.24316 21.0527 31.8369l97.5625 -54.4307q-23.6201 -45.1865 -52.376 -75.9961q-28.7549 -30.8096 -72.915 -30.8096q-20.5391 0 -34.917 5.13477q-14.3779 5.13574 -25.6748 11.2969l-26.7012 15.4053
q-17.459 9.24219 -28.7559 9.24219q-13.3506 0 -22.0801 -9.24219q-8.72852 -9.24316 -21.0527 -31.8369z" />
    <glyph glyph-name="Ograve" unicode="&#xd2;" horiz-adv-x="699" 
d="M349 143q31 0 52 8.5t34.5 21t19.5 28.5t6 31v237q0 15 -6 30.5t-19.5 28t-34.5 21t-52 8.5q-30 0 -51.5 -8.5t-35 -21t-19.5 -28t-6 -30.5v-237q0 -15 6 -31t19.5 -28.5t35 -21t51.5 -8.5zM349 -15q-65 0 -117 17t-89.5 49.5t-57.5 79.5t-20 107v222q0 61 20 108.5
t57.5 80t89.5 49.5t117 17t117.5 -17t89.5 -49.5t57 -80t20 -108.5v-222q0 -60 -20 -107t-57 -79.5t-89.5 -49.5t-117.5 -17zM213.033 863.687v57.8896h151.155l61.1045 -150.084h-132.93z" />
    <glyph glyph-name="Oacute" unicode="&#xd3;" horiz-adv-x="699" 
d="M349 143q31 0 52 8.5t34.5 21t19.5 28.5t6 31v237q0 15 -6 30.5t-19.5 28t-34.5 21t-52 8.5q-30 0 -51.5 -8.5t-35 -21t-19.5 -28t-6 -30.5v-237q0 -15 6 -31t19.5 -28.5t35 -21t51.5 -8.5zM349 -15q-65 0 -117 17t-89.5 49.5t-57.5 79.5t-20 107v222q0 61 20 108.5
t57.5 80t89.5 49.5t117 17t117.5 -17t89.5 -49.5t57 -80t20 -108.5v-222q0 -60 -20 -107t-57 -79.5t-89.5 -49.5t-117.5 -17zM431.892 771.492h-131.858l61.1055 150.084h151.154v-57.8896z" />
    <glyph glyph-name="Ocircumflex" unicode="&#xd4;" horiz-adv-x="699" 
d="M349 143q31 0 52 8.5t34.5 21t19.5 28.5t6 31v237q0 15 -6 30.5t-19.5 28t-34.5 21t-52 8.5q-30 0 -51.5 -8.5t-35 -21t-19.5 -28t-6 -30.5v-237q0 -15 6 -31t19.5 -28.5t35 -21t51.5 -8.5zM349 -15q-65 0 -117 17t-89.5 49.5t-57.5 79.5t-20 107v222q0 61 20 108.5
t57.5 80t89.5 49.5t117 17t117.5 -17t89.5 -49.5t57 -80t20 -108.5v-222q0 -60 -20 -107t-57 -79.5t-89.5 -49.5t-117.5 -17zM519.567 825.094v-53.6016h-124.354l-34.3047 55.7461l-35.377 -55.7461h-127.57v53.6016l94.3379 96.4824h131.859z" />
    <glyph glyph-name="Otilde" unicode="&#xd5;" horiz-adv-x="699" 
d="M349 143q31 0 52 8.5t34.5 21t19.5 28.5t6 31v237q0 15 -6 30.5t-19.5 28t-34.5 21t-52 8.5q-30 0 -51.5 -8.5t-35 -21t-19.5 -28t-6 -30.5v-237q0 -15 6 -31t19.5 -28.5t35 -21t51.5 -8.5zM349 -15q-65 0 -117 17t-89.5 49.5t-57.5 79.5t-20 107v222q0 61 20 108.5
t57.5 80t89.5 49.5t117 17t117.5 -17t89.5 -49.5t57 -80t20 -108.5v-222q0 -60 -20 -107t-57 -79.5t-89.5 -49.5t-117.5 -17zM170.457 807.941q23.6201 45.1875 52.376 75.9971q28.7549 30.8096 72.915 30.8096q20.5391 0 34.917 -5.13574
q14.3779 -5.13477 25.6748 -11.2959l26.7012 -15.4053q16.4316 -9.24316 28.7559 -9.24316q13.3506 0 22.0801 9.24316q8.72852 9.24316 21.0527 31.8369l97.5625 -54.4307q-23.6201 -45.1865 -52.376 -75.9961q-28.7549 -30.8096 -72.915 -30.8096
q-20.5391 0 -34.917 5.13477q-14.3779 5.13574 -25.6748 11.2969l-26.7012 15.4053q-17.459 9.24219 -28.7559 9.24219q-13.3506 0 -22.0801 -9.24219q-8.72852 -9.24316 -21.0527 -31.8369z" />
    <glyph glyph-name="Odieresis" unicode="&#xd6;" horiz-adv-x="699" 
d="M349 143q31 0 52 8.5t34.5 21t19.5 28.5t6 31v237q0 15 -6 30.5t-19.5 28t-34.5 21t-52 8.5q-30 0 -51.5 -8.5t-35 -21t-19.5 -28t-6 -30.5v-237q0 -15 6 -31t19.5 -28.5t35 -21t51.5 -8.5zM349 -15q-65 0 -117 17t-89.5 49.5t-57.5 79.5t-20 107v222q0 61 20 108.5
t57.5 80t89.5 49.5t117 17t117.5 -17t89.5 -49.5t57 -80t20 -108.5v-222q0 -60 -20 -107t-57 -79.5t-89.5 -49.5t-117.5 -17zM157.97 895.464h168.308v-123.396h-168.308v123.396zM384.166 895.464h169.379v-123.396h-169.379v123.396z" />
    <glyph glyph-name="multiply" unicode="&#xd7;" horiz-adv-x="584" 
d="M64 179l134 134l-134 134l94 95l134 -135l134 135l94 -95l-133 -134l133 -134l-94 -94l-134 134l-134 -134z" />
    <glyph glyph-name="Oslash" unicode="&#xd8;" horiz-adv-x="699" 
d="M349 -15q-14 0 -27 1t-25 3l-23 -89h-126v56l23 74q-51 32 -78.5 84t-27.5 124v222q0 61 20 108.5t57.5 80t89.5 49.5t117 17q27 0 51 -3l24 88h126v-57l-24 -73q51 -32 79 -85t28 -125v-222q0 -60 -20 -107t-57 -79.5t-89.5 -49.5t-117.5 -17zM350 127q33 0 56.5 9
t37.5 23t20.5 31t6.5 33v256q0 27 -13 44l-125 -395q7 -1 10.5 -1h6.5zM229 223q0 -24 10 -41l123 390q-5 1 -7.5 1h-4.5q-33 0 -56 -9t-37.5 -22.5t-21 -30.5t-6.5 -32v-256z" />
    <glyph glyph-name="Ugrave" unicode="&#xd9;" horiz-adv-x="705" 
d="M352 -15q-64 0 -115.5 16.5t-87.5 48t-55 77t-19 102.5v471h172v-477q0 -13 5.5 -27t17.5 -26t32 -19.5t50 -7.5t50 7.5t32.5 19.5t17.5 26t5 27v477h172v-471q0 -57 -19 -102.5t-55 -77t-87.5 -48t-115.5 -16.5zM229.033 863.687v57.8896h151.155l61.1045 -150.084
h-132.93z" />
    <glyph glyph-name="Uacute" unicode="&#xda;" horiz-adv-x="705" 
d="M352 -15q-64 0 -115.5 16.5t-87.5 48t-55 77t-19 102.5v471h172v-477q0 -13 5.5 -27t17.5 -26t32 -19.5t50 -7.5t50 7.5t32.5 19.5t17.5 26t5 27v477h172v-471q0 -57 -19 -102.5t-55 -77t-87.5 -48t-115.5 -16.5zM411.892 771.492h-131.858l61.1055 150.084h151.154
v-57.8896z" />
    <glyph glyph-name="Ucircumflex" unicode="&#xdb;" horiz-adv-x="705" 
d="M352 -15q-64 0 -115.5 16.5t-87.5 48t-55 77t-19 102.5v471h172v-477q0 -13 5.5 -27t17.5 -26t32 -19.5t50 -7.5t50 7.5t32.5 19.5t17.5 26t5 27v477h172v-471q0 -57 -19 -102.5t-55 -77t-87.5 -48t-115.5 -16.5zM523.567 825.094v-53.6016h-124.354l-34.3047 55.7461
l-35.377 -55.7461h-127.57v53.6016l94.3379 96.4824h131.859z" />
    <glyph glyph-name="Udieresis" unicode="&#xdc;" horiz-adv-x="705" 
d="M352 -15q-64 0 -115.5 16.5t-87.5 48t-55 77t-19 102.5v471h172v-477q0 -13 5.5 -27t17.5 -26t32 -19.5t50 -7.5t50 7.5t32.5 19.5t17.5 26t5 27v477h172v-471q0 -57 -19 -102.5t-55 -77t-87.5 -48t-115.5 -16.5zM160.97 895.464h168.308v-123.396h-168.308v123.396z
M387.166 895.464h169.379v-123.396h-169.379v123.396z" />
    <glyph glyph-name="Yacute" unicode="&#xdd;" horiz-adv-x="619" 
d="M221 277l-215 366v57h164l141 -256l142 256h160v-57l-219 -360v-283h-173v277zM372.892 771.492h-131.858l61.1055 150.084h151.154v-57.8896z" />
    <glyph glyph-name="Thorn" unicode="&#xde;" horiz-adv-x="647" 
d="M85 700h172v-124h148q96 0 148.5 -59.5t52.5 -161.5q0 -51 -13.5 -92t-39.5 -70t-63 -45t-85 -16h-148v-132h-172v700zM372 282q9 0 19.5 4t19.5 12.5t15 22.5t6 34q0 21 -6 34.5t-15 21.5t-19.5 11.5t-19.5 3.5h-115v-144h115z" />
    <glyph glyph-name="germandbls" unicode="&#xdf;" horiz-adv-x="611" 
d="M75 464q0 118 61.5 181.5t167.5 63.5q54 0 95.5 -14.5t70 -40.5t43.5 -62t15 -78q0 -84 -51 -127q40 -18 64 -64t24 -104q0 -48 -16.5 -88.5t-47 -69.5t-74 -45t-96.5 -16q-13 0 -24 1t-23 4v139q7 -1 15 -1.5t17 -0.5q42 0 67 21t25 66t-24 65.5t-68 20.5h-34v137h23
q65 0 65 58q0 26 -17.5 41t-46.5 15q-73 0 -73 -81v-485h-158v464z" />
    <glyph glyph-name="agrave" unicode="&#xe0;" horiz-adv-x="576" 
d="M253 126q23 0 48 8t48 31v50h-77q-34 0 -54 -10.5t-20 -34.5q0 -17 12.5 -30.5t42.5 -13.5zM219 -12q-37 0 -69.5 10.5t-57 31.5t-38.5 51.5t-14 69.5q0 82 52 126t160 44h97v23q0 55 -66 55q-35 0 -50 -12t-15 -29h-154q0 40 13 73.5t40 58t68.5 38t97.5 13.5t98 -13.5
t69.5 -38t41.5 -58.5t14 -75v-356h-90l-38 48q-29 -27 -65.5 -43.5t-93.5 -16.5zM160 676v54h141l57 -140h-124z" />
    <glyph glyph-name="aacute" unicode="&#xe1;" horiz-adv-x="577" 
d="M253 126q23 0 48 8t48 31v50h-77q-34 0 -54 -10.5t-20 -34.5q0 -17 12.5 -30.5t42.5 -13.5zM219 -12q-37 0 -69.5 10.5t-57 31.5t-38.5 51.5t-14 69.5q0 82 52 126t160 44h97v23q0 55 -66 55q-35 0 -50 -12t-15 -29h-154q0 40 13 73.5t40 58t68.5 38t97.5 13.5t98 -13.5
t69.5 -38t41.5 -58.5t14 -75v-356h-90l-38 48q-29 -27 -65.5 -43.5t-93.5 -16.5zM328 590h-123l57 140h141v-54z" />
    <glyph glyph-name="acircumflex" unicode="&#xe2;" horiz-adv-x="576" 
d="M253 126q23 0 48 8t48 31v50h-77q-34 0 -54 -10.5t-20 -34.5q0 -17 12.5 -30.5t42.5 -13.5zM219 -12q-37 0 -69.5 10.5t-57 31.5t-38.5 51.5t-14 69.5q0 82 52 126t160 44h97v23q0 55 -66 55q-35 0 -50 -12t-15 -29h-154q0 40 13 73.5t40 58t68.5 38t97.5 13.5t98 -13.5
t69.5 -38t41.5 -58.5t14 -75v-356h-90l-38 48q-29 -27 -65.5 -43.5t-93.5 -16.5zM441 640v-50h-116l-32 52l-33 -52h-119v50l88 90h123z" />
    <glyph glyph-name="atilde" unicode="&#xe3;" horiz-adv-x="576" 
d="M253 126q23 0 48 8t48 31v50h-77q-34 0 -54 -10.5t-20 -34.5q0 -17 12.5 -30.5t42.5 -13.5zM219 -12q-37 0 -69.5 10.5t-57 31.5t-38.5 51.5t-14 69.5q0 82 52 126t160 44h97v23q0 55 -66 55q-35 0 -50 -12t-15 -29h-154q0 40 13 73.5t40 58t68.5 38t97.5 13.5t98 -13.5
t69.5 -38t41.5 -58.5t14 -75v-356h-90l-38 48q-29 -27 -65.5 -43.5t-93.5 -16.5zM112 628q23 44 51 74t71 30q20 0 34 -5t25 -11l26 -15q16 -9 28 -9q13 0 21.5 9t20.5 31l95 -53q-23 -44 -51 -74t-71 -30q-20 0 -34 5t-25 11l-26 15q-17 9 -28 9q-13 0 -21.5 -9t-20.5 -31z
" />
    <glyph glyph-name="adieresis" unicode="&#xe4;" horiz-adv-x="576" 
d="M253 126q23 0 48 8t48 31v50h-77q-34 0 -54 -10.5t-20 -34.5q0 -17 12.5 -30.5t42.5 -13.5zM219 -12q-37 0 -69.5 10.5t-57 31.5t-38.5 51.5t-14 69.5q0 82 52 126t160 44h97v23q0 55 -66 55q-35 0 -50 -12t-15 -29h-154q0 40 13 73.5t40 58t68.5 38t97.5 13.5t98 -13.5
t69.5 -38t41.5 -58.5t14 -75v-356h-90l-38 48q-29 -27 -65.5 -43.5t-93.5 -16.5zM110 705h157v-115h-157v115zM321 705h158v-115h-158v115z" />
    <glyph glyph-name="aring" unicode="&#xe5;" horiz-adv-x="576" 
d="M253 126q23 0 48 8t48 31v50h-77q-34 0 -54 -10.5t-20 -34.5q0 -17 12.5 -30.5t42.5 -13.5zM219 -12q-37 0 -69.5 10.5t-57 31.5t-38.5 51.5t-14 69.5q0 82 52 126t160 44h97v23q0 55 -66 55q-35 0 -50 -12t-15 -29h-154q0 40 13 73.5t40 58t68.5 38t97.5 13.5t98 -13.5
t69.5 -38t41.5 -58.5t14 -75v-356h-90l-38 48q-29 -27 -65.5 -43.5t-93.5 -16.5zM181 678q0 22 9 41t24.5 33.5t36 22.5t44.5 8q23 0 43.5 -8t36 -22.5t24.5 -33.5t9 -41t-9 -41.5t-24.5 -33.5t-36 -22.5t-43.5 -8.5q-24 0 -44.5 8.5t-36 22.5t-24.5 33.5t-9 41.5zM266 678
q0 -13 9 -20.5t20 -7.5t20 7.5t9 20.5q0 14 -9 21t-20 7t-20 -7t-9 -21z" />
    <glyph glyph-name="ae" unicode="&#xe6;" horiz-adv-x="859" 
d="M224 -12q-38 0 -71.5 10t-58.5 30.5t-39.5 50.5t-14.5 69q0 85 53 130t165 45h91v22q0 54 -66 54q-35 0 -50 -12t-15 -29h-154q0 40 13 73.5t40 58t68.5 38t97.5 13.5q42 0 79 -6.5t72 -30.5q34 23 73.5 30t77.5 7q49 0 90 -12t70.5 -36.5t46 -60.5t16.5 -84v-137h-302
v-27q0 -23 18.5 -38.5t60.5 -15.5q52 0 66 31h157q-9 -82 -66 -127.5t-157 -45.5q-60 0 -110.5 15.5t-85.5 55.5q-26 -29 -66.5 -50t-98.5 -21zM253 126q29 0 50.5 6t45.5 30v51h-64q-50 0 -68.5 -9t-18.5 -34q0 -17 12.5 -30.5t42.5 -13.5zM651 324v29q0 24 -19.5 37.5
t-54.5 13.5t-53 -14t-18 -37v-29h145z" />
    <glyph glyph-name="ccedilla" unicode="&#xe7;" horiz-adv-x="548" 
d="M196 -1q-66 18 -105 65.5t-39 119.5v162q0 46 16.5 82.5t47 61.5t72.5 38t93 13q49 0 89.5 -13t69.5 -39t45 -64t16 -87v-6h-158v6q0 29 -16.5 45t-51.5 16t-50 -16.5t-15 -39.5v-157q0 -23 15 -39.5t50 -16.5t51.5 15.5t16.5 42.5v12h158v-7q0 -44 -13.5 -79.5
t-38.5 -61.5t-59 -41.5t-74 -20.5l-49 -150h-141v54z" />
    <glyph glyph-name="egrave" unicode="&#xe8;" horiz-adv-x="563" 
d="M288 -12q-52 0 -95.5 12.5t-74.5 36.5t-48.5 60.5t-17.5 84.5v164q0 46 17.5 82.5t48.5 61.5t74.5 38t95.5 13q48 0 89 -12t71 -36.5t47 -60.5t17 -84v-136h-302v-29q0 -23 18 -38t60 -15q52 0 66 31h157q-8 -82 -66.5 -127.5t-156.5 -45.5zM354 325v28q0 24 -18.5 37.5
t-53.5 13.5t-53.5 -13.5t-18.5 -37.5v-28h144zM176 676v54h141l57 -140h-124z" />
    <glyph glyph-name="eacute" unicode="&#xe9;" horiz-adv-x="563" 
d="M288 -12q-52 0 -95.5 12.5t-74.5 36.5t-48.5 60.5t-17.5 84.5v164q0 46 17.5 82.5t48.5 61.5t74.5 38t95.5 13q48 0 89 -12t71 -36.5t47 -60.5t17 -84v-136h-302v-29q0 -23 18 -38t60 -15q52 0 66 31h157q-8 -82 -66.5 -127.5t-156.5 -45.5zM354 325v28q0 24 -18.5 37.5
t-53.5 13.5t-53.5 -13.5t-18.5 -37.5v-28h144zM335 590h-123l57 140h141v-54z" />
    <glyph glyph-name="ecircumflex" unicode="&#xea;" horiz-adv-x="563" 
d="M288 -12q-52 0 -95.5 12.5t-74.5 36.5t-48.5 60.5t-17.5 84.5v164q0 46 17.5 82.5t48.5 61.5t74.5 38t95.5 13q48 0 89 -12t71 -36.5t47 -60.5t17 -84v-136h-302v-29q0 -23 18 -38t60 -15q52 0 66 31h157q-8 -82 -66.5 -127.5t-156.5 -45.5zM354 325v28q0 24 -18.5 37.5
t-53.5 13.5t-53.5 -13.5t-18.5 -37.5v-28h144zM433 640v-50h-116l-32 52l-33 -52h-119v50l88 90h123z" />
    <glyph glyph-name="edieresis" unicode="&#xeb;" horiz-adv-x="563" 
d="M288 -12q-52 0 -95.5 12.5t-74.5 36.5t-48.5 60.5t-17.5 84.5v164q0 46 17.5 82.5t48.5 61.5t74.5 38t95.5 13q48 0 89 -12t71 -36.5t47 -60.5t17 -84v-136h-302v-29q0 -23 18 -38t60 -15q52 0 66 31h157q-8 -82 -66.5 -127.5t-156.5 -45.5zM354 325v28q0 24 -18.5 37.5
t-53.5 13.5t-53.5 -13.5t-18.5 -37.5v-28h144zM100 705h157v-115h-157v115zM311 705h158v-115h-158v115z" />
    <glyph glyph-name="igrave" unicode="&#xec;" horiz-adv-x="308" 
d="M20 676v54h141l57 -140h-124zM75 529h158v-529h-158v529z" />
    <glyph glyph-name="iacute" unicode="&#xed;" horiz-adv-x="308" 
d="M216 590h-123l57 140h141v-54zM75 529h158v-529h-158v529z" />
    <glyph glyph-name="icircumflex" unicode="&#xee;" horiz-adv-x="308" 
d="M75 529h158v-529h-158v529zM305 640v-50h-116l-32 52l-33 -52h-119v50l88 90h123z" />
    <glyph glyph-name="idieresis" unicode="&#xef;" horiz-adv-x="308" 
d="M-29 705h157v-115h-157v115zM182 705h158v-115h-158v115zM75 529h158v-529h-158v529z" />
    <glyph glyph-name="eth" unicode="&#xf0;" horiz-adv-x="562" 
d="M283 -12q-51 0 -94 13t-74.5 38.5t-49 61.5t-17.5 83v114q0 54 16.5 91t43.5 60t62 33t72 10q19 0 31.5 -1t22 -3t16.5 -4.5t15 -6.5q-14 10 -26 20.5t-26 23.5h-140v78h68l-33 33v73h142l78 -106h108v-78h-47q22 -32 35.5 -59t21 -56t10 -63t2.5 -79v-82
q0 -48 -17.5 -84.5t-49 -60.5t-75 -36.5t-95.5 -12.5zM283 130q42 0 60.5 18t18.5 41v122q-13 15 -32.5 27t-46.5 12q-15 0 -28.5 -3t-24.5 -9.5t-17.5 -18t-6.5 -28.5v-102q0 -24 19.5 -41.5t57.5 -17.5z" />
    <glyph glyph-name="ntilde" unicode="&#xf1;" horiz-adv-x="610" 
d="M75 529h90l38 -48q26 24 62 42t90 18q89 0 137 -55.5t48 -152.5v-333h-158v325q0 38 -18 56t-45 18q-17 0 -31.5 -5.5t-25.5 -12.5t-18.5 -14t-10.5 -10v-357h-158v529zM125 628q23 44 51 74t71 30q20 0 34 -5t25 -11l26 -15q16 -9 28 -9q13 0 21.5 9t20.5 31l95 -53
q-23 -44 -51 -74t-71 -30q-20 0 -34 5t-25 11l-26 15q-17 9 -28 9q-13 0 -21.5 -9t-20.5 -31z" />
    <glyph glyph-name="ograve" unicode="&#xf2;" horiz-adv-x="574" 
d="M288 130q38 0 57 17.5t19 41.5v149q0 25 -19 43t-57 18q-42 0 -60 -19t-18 -42v-149q0 -23 18 -41t60 -18zM288 -12q-59 0 -103 15t-73.5 41.5t-44.5 62t-15 77.5v162q0 41 15 76.5t44.5 62t73.5 41.5t103 15q58 0 102 -15t73 -41.5t44 -62t15 -76.5v-162
q0 -42 -15 -77.5t-44 -62t-73 -41.5t-102 -15zM164 676v54h141l57 -140h-124z" />
    <glyph glyph-name="oacute" unicode="&#xf3;" horiz-adv-x="574" 
d="M288 130q38 0 57 17.5t19 41.5v149q0 25 -19 43t-57 18q-42 0 -60 -19t-18 -42v-149q0 -23 18 -41t60 -18zM288 -12q-59 0 -103 15t-73.5 41.5t-44.5 62t-15 77.5v162q0 41 15 76.5t44.5 62t73.5 41.5t103 15q58 0 102 -15t73 -41.5t44 -62t15 -76.5v-162
q0 -42 -15 -77.5t-44 -62t-73 -41.5t-102 -15zM333 590h-123l57 140h141v-54z" />
    <glyph glyph-name="ocircumflex" unicode="&#xf4;" horiz-adv-x="574" 
d="M288 130q38 0 57 17.5t19 41.5v149q0 25 -19 43t-57 18q-42 0 -60 -19t-18 -42v-149q0 -23 18 -41t60 -18zM288 -12q-59 0 -103 15t-73.5 41.5t-44.5 62t-15 77.5v162q0 41 15 76.5t44.5 62t73.5 41.5t103 15q58 0 102 -15t73 -41.5t44 -62t15 -76.5v-162
q0 -42 -15 -77.5t-44 -62t-73 -41.5t-102 -15zM438 640v-50h-116l-32 52l-33 -52h-119v50l88 90h123z" />
    <glyph glyph-name="otilde" unicode="&#xf5;" horiz-adv-x="574" 
d="M288 130q38 0 57 17.5t19 41.5v149q0 25 -19 43t-57 18q-42 0 -60 -19t-18 -42v-149q0 -23 18 -41t60 -18zM288 -12q-59 0 -103 15t-73.5 41.5t-44.5 62t-15 77.5v162q0 41 15 76.5t44.5 62t73.5 41.5t103 15q58 0 102 -15t73 -41.5t44 -62t15 -76.5v-162
q0 -42 -15 -77.5t-44 -62t-73 -41.5t-102 -15zM100 628q23 44 51 74t71 30q20 0 34 -5t25 -11l26 -15q16 -9 28 -9q13 0 21.5 9t20.5 31l95 -53q-23 -44 -51 -74t-71 -30q-20 0 -34 5t-25 11l-26 15q-17 9 -28 9q-13 0 -21.5 -9t-20.5 -31z" />
    <glyph glyph-name="odieresis" unicode="&#xf6;" horiz-adv-x="574" 
d="M288 130q38 0 57 17.5t19 41.5v149q0 25 -19 43t-57 18q-42 0 -60 -19t-18 -42v-149q0 -23 18 -41t60 -18zM288 -12q-59 0 -103 15t-73.5 41.5t-44.5 62t-15 77.5v162q0 41 15 76.5t44.5 62t73.5 41.5t103 15q58 0 102 -15t73 -41.5t44 -62t15 -76.5v-162
q0 -42 -15 -77.5t-44 -62t-73 -41.5t-102 -15zM103 705h157v-115h-157v115zM314 705h158v-115h-158v115z" />
    <glyph glyph-name="divide" unicode="&#xf7;" horiz-adv-x="588" 
d="M202 185h184v-131h-184v131zM64 378h460v-130h-460v130zM202 572h184v-131h-184v131z" />
    <glyph glyph-name="oslash" unicode="&#xf8;" horiz-adv-x="584" 
d="M288 -12q-54 0 -94 12l-1 -2l-72 -124h-69v74l58 97q-29 26 -43.5 61.5t-14.5 77.5v162q0 41 15 76.5t44.5 62t73.5 41.5t103 15q52 0 96 -14v1l68 118h70v-74l-54 -92q27 -26 40.5 -60.5t13.5 -73.5v-162q0 -42 -15 -77.5t-44 -62t-73 -41.5t-102 -15zM322 405
q-17 5 -35 5q-47 0 -67 -21.5t-20 -47.5v-144zM287 116q44 0 65.5 20t21.5 47v145l-121 -208q13 -4 34 -4z" />
    <glyph glyph-name="ugrave" unicode="&#xf9;" horiz-adv-x="606" 
d="M530 0h-90l-38 48q-23 -21 -59 -40.5t-91 -19.5q-88 0 -135.5 54.5t-47.5 150.5v336h158v-325q0 -33 11.5 -53.5t49.5 -20.5q16 0 30 5t25 12t18.5 13t10.5 9v360h158v-529zM185 676v54h141l57 -140h-124z" />
    <glyph glyph-name="uacute" unicode="&#xfa;" horiz-adv-x="606" 
d="M530 0h-90l-38 48q-23 -21 -59 -40.5t-91 -19.5q-88 0 -135.5 54.5t-47.5 150.5v336h158v-325q0 -33 11.5 -53.5t49.5 -20.5q16 0 30 5t25 12t18.5 13t10.5 9v360h158v-529zM340 590h-123l57 140h141v-54z" />
    <glyph glyph-name="ucircumflex" unicode="&#xfb;" horiz-adv-x="606" 
d="M530 0h-90l-38 48q-23 -21 -59 -40.5t-91 -19.5q-88 0 -135.5 54.5t-47.5 150.5v336h158v-325q0 -33 11.5 -53.5t49.5 -20.5q16 0 30 5t25 12t18.5 13t10.5 9v360h158v-529zM451 640v-50h-116l-32 52l-33 -52h-119v50l88 90h123z" />
    <glyph glyph-name="udieresis" unicode="&#xfc;" horiz-adv-x="606" 
d="M530 0h-90l-38 48q-23 -21 -59 -40.5t-91 -19.5q-88 0 -135.5 54.5t-47.5 150.5v336h158v-325q0 -33 11.5 -53.5t49.5 -20.5q16 0 30 5t25 12t18.5 13t10.5 9v360h158v-529zM120 705h157v-115h-157v115zM331 705h158v-115h-158v115z" />
    <glyph glyph-name="yacute" unicode="&#xfd;" horiz-adv-x="520" 
d="M146 -104l42 104l-173 456v73h145l106 -311l97 311h143v-73l-229 -616h-131v56zM312 590h-123l57 140h141v-54z" />
    <glyph glyph-name="thorn" unicode="&#xfe;" horiz-adv-x="605" 
d="M357 541q37 0 71 -11t60 -34.5t41.5 -60t15.5 -87.5v-166q0 -51 -15.5 -88t-41.5 -60.5t-60 -34.5t-71 -11q-53 0 -82.5 13.5t-41.5 21.5v-183h-158v865h158v-199q11 8 41 21.5t83 13.5zM324 130q9 0 20 3.5t20.5 11.5t16 20t6.5 29v142q0 16 -6.5 28t-16 20t-20.5 11.5
t-20 3.5q-33 0 -54.5 -14t-36.5 -28v-185q15 -14 36.5 -28t54.5 -14z" />
    <glyph glyph-name="ydieresis" unicode="&#xff;" horiz-adv-x="520" 
d="M146 -104l42 104l-173 456v73h145l106 -311l97 311h143v-73l-229 -616h-131v56zM77 705h157v-115h-157v115zM288 705h158v-115h-158v115z" />
    <glyph glyph-name="Amacron" unicode="&#x100;" horiz-adv-x="664" 
d="M439 151h-222l-50 -151h-152v56l232 644h169l233 -644v-56h-161zM265 295h126l-62 191zM156.593 895.464h367.703v-118.03h-367.703v118.03z" />
    <glyph glyph-name="amacron" unicode="&#x101;" horiz-adv-x="576" 
d="M253 126q23 0 48 8t48 31v50h-77q-34 0 -54 -10.5t-20 -34.5q0 -17 12.5 -30.5t42.5 -13.5zM219 -12q-37 0 -69.5 10.5t-57 31.5t-38.5 51.5t-14 69.5q0 82 52 126t160 44h97v23q0 55 -66 55q-35 0 -50 -12t-15 -29h-154q0 40 13 73.5t40 58t68.5 38t97.5 13.5t98 -13.5
t69.5 -38t41.5 -58.5t14 -75v-356h-90l-38 48q-29 -27 -65.5 -43.5t-93.5 -16.5zM124 705h343v-110h-343v110z" />
    <glyph glyph-name="Aogonek" unicode="&#x104;" horiz-adv-x="664" 
d="M434 151h-212l-50 -151h-157v56l232 644h169l233 -644v-56q-17 -15 -24 -25.5t-7 -20.5q0 -21 33 -21h31v-93h-59q-51 0 -79 18.5t-28 54.5q0 18 11.5 40t36.5 47h-81zM269 295h118l-58 181z" />
    <glyph glyph-name="aogonek" unicode="&#x105;" horiz-adv-x="575" 
d="M481 -160q-51 0 -79.5 19.5t-28.5 53.5q0 38 43 87l-42 45q-29 -27 -63.5 -42t-91.5 -15q-36 0 -68.5 10t-57 30.5t-39 50.5t-14.5 69q0 82 52 127.5t160 45.5h97v23q0 55 -66 55q-35 0 -50 -12t-15 -29h-154q0 40 13 73.5t40 58t68.5 38t97.5 13.5t98 -13.5t69.5 -38
t41.5 -58.5t14 -75v-356q-31 -28 -31 -49q0 -18 36 -18h28v-93h-58zM253 126q30 0 51.5 6.5t44.5 32.5v47h-97q-31 0 -42.5 -13t-11.5 -29q0 -17 12.5 -30.5t42.5 -13.5z" />
    <glyph glyph-name="Cacute" unicode="&#x106;" horiz-adv-x="661" 
d="M343 -15q-137 0 -207.5 66t-70.5 186v226q0 120 70.5 186t207.5 66q52 0 100 -13.5t84.5 -43.5t58 -77.5t21.5 -114.5v-10h-172v10q0 26 -8.5 43.5t-23 28t-33 15t-38.5 4.5q-51 0 -73 -22t-22 -60v-249q0 -38 22 -60.5t73 -22.5q20 0 38.5 4t33 14.5t23 28.5t8.5 45v9
h172v-10q0 -67 -21.5 -114.5t-58 -77.5t-84.5 -43.5t-100 -13.5zM411.892 771.492h-131.858l61.1055 150.084h151.154v-57.8896z" />
    <glyph glyph-name="cacute" unicode="&#x107;" horiz-adv-x="548" 
d="M210 186q0 -23 15 -39.5t50 -16.5t51.5 15.5t16.5 42.5v12h158v-7q0 -49 -16.5 -87t-46 -64.5t-70 -40t-87.5 -13.5q-51 0 -93 13t-72.5 38.5t-47 61.5t-16.5 83v162q0 46 16.5 82.5t47 61.5t72.5 38t93 13q49 0 89.5 -13t69.5 -39t45 -64t16 -87v-6h-158v6
q0 29 -16.5 45t-51.5 16t-50 -16.5t-15 -39.5v-157zM342 590h-123l57 140h141v-54z" />
    <glyph glyph-name="Ccaron" unicode="&#x10c;" horiz-adv-x="661" 
d="M343 -15q-137 0 -207.5 66t-70.5 186v226q0 120 70.5 186t207.5 66q52 0 100 -13.5t84.5 -43.5t58 -77.5t21.5 -114.5v-10h-172v10q0 26 -8.5 43.5t-23 28t-33 15t-38.5 4.5q-51 0 -73 -22t-22 -60v-249q0 -38 22 -60.5t73 -22.5q20 0 38.5 4t33 14.5t23 28.5t8.5 45v9
h172v-10q0 -67 -21.5 -114.5t-58 -77.5t-84.5 -43.5t-100 -13.5zM414.158 772.068h-131.859l-94.3379 96.5703v53.6504h127.57l35.377 -55.7969l34.3047 55.7969h124.354v-53.6504z" />
    <glyph glyph-name="ccaron" unicode="&#x10d;" horiz-adv-x="548" 
d="M210 186q0 -23 15 -39.5t50 -16.5t51.5 15.5t16.5 42.5v12h158v-7q0 -49 -16.5 -87t-46 -64.5t-70 -40t-87.5 -13.5q-51 0 -93 13t-72.5 38.5t-47 61.5t-16.5 83v162q0 46 16.5 82.5t47 61.5t72.5 38t93 13q49 0 89.5 -13t69.5 -39t45 -64t16 -87v-6h-158v6
q0 29 -16.5 45t-51.5 16t-50 -16.5t-15 -39.5v-157zM337 590h-123l-88 90v50h119l33 -52l32 52h116v-50z" />
    <glyph glyph-name="Dcaron" unicode="&#x10e;" horiz-adv-x="694" 
d="M344 150q29 0 50.5 8t35 20t20 27t6.5 30v230q0 15 -6.5 30t-20 27.5t-35 20t-50.5 7.5h-87v-400h87zM85 700h259q132 0 208 -62t76 -177v-222q0 -116 -76 -177.5t-208 -61.5h-259v700zM420.158 772.068h-131.859l-94.3379 96.5703v53.6504h127.57l35.377 -55.7969
l34.3047 55.7969h124.354v-53.6504z" />
    <glyph glyph-name="dcaron" unicode="&#x10f;" horiz-adv-x="734" 
d="M621 705h143v-66l-72 -134h-99zM281 130q33 0 55 14t36 28v185q-14 14 -35.5 28t-54.5 14q-9 0 -20.5 -3.5t-21 -11.5t-16 -20t-6.5 -28v-143q0 -17 6.5 -29t16 -19.5t20.5 -11t20 -3.5zM249 -12q-38 0 -72 11t-60 34.5t-41.5 60.5t-15.5 88v166q0 51 15.5 87.5t41.5 60
t60 34.5t71 11q27 0 47.5 -4t35.5 -9.5t25 -11.5t16 -10v199h158v-705h-90l-38 48q-26 -23 -61.5 -41.5t-91.5 -18.5z" />
    <glyph glyph-name="Emacron" unicode="&#x112;" horiz-adv-x="613" 
d="M85 700h468v-150h-296v-128h250v-142h-250v-130h298v-150h-470v700zM143.593 895.464h367.703v-118.03h-367.703v118.03z" />
    <glyph glyph-name="emacron" unicode="&#x113;" horiz-adv-x="563" 
d="M288 -12q-52 0 -95.5 12.5t-74.5 36.5t-48.5 60.5t-17.5 84.5v164q0 46 17.5 82.5t48.5 61.5t74.5 38t95.5 13q48 0 89 -12t71 -36.5t47 -60.5t17 -84v-136h-302v-29q0 -23 18 -38t60 -15q52 0 66 31h157q-8 -82 -66.5 -127.5t-156.5 -45.5zM354 325v28q0 24 -18.5 37.5
t-53.5 13.5t-53.5 -13.5t-18.5 -37.5v-28h144zM117 705h343v-110h-343v110z" />
    <glyph glyph-name="Edotaccent" unicode="&#x116;" horiz-adv-x="613" 
d="M85 700h468v-150h-296v-128h250v-142h-250v-130h298v-150h-470v700zM242.961 895.464h169.38v-123.396h-169.38v123.396z" />
    <glyph glyph-name="edotaccent" unicode="&#x117;" horiz-adv-x="563" 
d="M288 -12q-52 0 -95.5 12.5t-74.5 36.5t-48.5 60.5t-17.5 84.5v164q0 46 17.5 82.5t48.5 61.5t74.5 38t95.5 13q48 0 89 -12t71 -36.5t47 -60.5t17 -84v-136h-302v-29q0 -23 18 -38t60 -15q52 0 66 31h157q-8 -82 -66.5 -127.5t-156.5 -45.5zM354 325v28q0 24 -18.5 37.5
t-53.5 13.5t-53.5 -13.5t-18.5 -37.5v-28h144zM204 705h158v-115h-158v115z" />
    <glyph glyph-name="Eogonek" unicode="&#x118;" horiz-adv-x="613" 
d="M85 700h468v-150h-296v-128h250v-142h-250v-130h298v-150q-17 -15 -24 -25.5t-7 -20.5q0 -21 33 -21h31v-93h-59q-51 0 -79 18.5t-28 54.5q0 18 11.5 40t36.5 47h-385v700z" />
    <glyph glyph-name="eogonek" unicode="&#x119;" horiz-adv-x="563" 
d="M387 -160q-51 0 -77.5 19.5t-26.5 53.5q0 35 39 77q-9 -1 -17 -1.5t-17 -0.5q-52 0 -95.5 12.5t-74.5 36.5t-48.5 60.5t-17.5 84.5v164q0 46 17.5 82.5t48.5 61.5t74.5 38t95.5 13q48 0 89 -12t71 -36.5t47 -60.5t17 -84v-136h-302v-29q0 -23 18 -38t60 -15q52 0 66 31
h157q-4 -47 -22 -79t-47 -55q-23 -19 -40 -33t-17 -39q0 -22 34 -22h30v-93h-62zM354 325v28q0 24 -18.5 37.5t-53.5 13.5t-53.5 -13.5t-18.5 -37.5v-28h144z" />
    <glyph glyph-name="Ecaron" unicode="&#x11a;" horiz-adv-x="613" 
d="M85 700h468v-150h-296v-128h250v-142h-250v-130h298v-150h-470v700zM391.158 772.068h-131.859l-94.3379 96.5703v53.6504h127.57l35.377 -55.7969l34.3047 55.7969h124.354v-53.6504z" />
    <glyph glyph-name="ecaron" unicode="&#x11b;" horiz-adv-x="563" 
d="M288 -12q-52 0 -95.5 12.5t-74.5 36.5t-48.5 60.5t-17.5 84.5v164q0 46 17.5 82.5t48.5 61.5t74.5 38t95.5 13q48 0 89 -12t71 -36.5t47 -60.5t17 -84v-136h-302v-29q0 -23 18 -38t60 -15q52 0 66 31h157q-8 -82 -66.5 -127.5t-156.5 -45.5zM354 325v28q0 24 -18.5 37.5
t-53.5 13.5t-53.5 -13.5t-18.5 -37.5v-28h144zM346 590h-123l-88 90v50h119l33 -52l32 52h116v-50z" />
    <glyph glyph-name="uni0122" unicode="&#x122;" horiz-adv-x="699" 
d="M341 143q39 0 65.5 17t43.5 36v51h-110v142h277v-389h-91l-34 56q-25 -32 -71 -51.5t-97 -19.5q-60 0 -108 16.5t-81.5 48t-51.5 76.5t-18 102v239q0 120 72.5 184t207.5 64q58 0 108 -16t86.5 -47t57 -77t20.5 -105h-173q0 42 -26.5 64.5t-76.5 22.5q-54 0 -79 -25
t-25 -68v-228q0 -43 25 -68t79 -25zM259 -67h153v-66l-72 -134h-109z" />
    <glyph glyph-name="uni0123" unicode="&#x123;" horiz-adv-x="606" 
d="M281 187q33 0 54.5 14.5t36.5 28.5v127q-15 14 -36.5 28t-54.5 14q-9 0 -19.5 -3.5t-20.5 -11.5t-16.5 -20t-6.5 -28v-84q0 -17 6.5 -29.5t16.5 -20.5t20.5 -11.5t19.5 -3.5zM530 34q0 -52 -17 -90.5t-48 -64t-73.5 -38.5t-93.5 -13q-108 0 -166 47.5t-58 131.5h157
q0 -3 1.5 -9.5t8 -12.5t19.5 -10.5t37 -4.5q43 0 59 19.5t16 44.5v46q-6 -4 -16 -10t-25 -11.5t-35.5 -9.5t-47.5 -4q-37 0 -71 11t-60 34.5t-41.5 60t-15.5 87.5v110q0 51 15.5 87.5t41.5 60t60 34.5t72 11q56 0 91.5 -18.5t61.5 -41.5l38 48h90v-495zM320.394 585.996
h-140.29v65.9961l66.0186 133.991h99.9453z" />
    <glyph glyph-name="Imacron" unicode="&#x12a;" horiz-adv-x="343" 
d="M85 700h172v-700h-172v700zM-15.4072 895.464h367.703v-118.03h-367.703v118.03z" />
    <glyph glyph-name="imacron" unicode="&#x12b;" horiz-adv-x="308" 
d="M-17 705h343v-110h-343v110zM75 529h158v-529h-158v529z" />
    <glyph glyph-name="Iogonek" unicode="&#x12e;" horiz-adv-x="343" 
d="M85 700h172v-700q-17 -15 -24 -25.5t-7 -20.5q0 -21 33 -21h31v-93h-59q-51 0 -79 18.5t-28 54.5q0 18 11.5 40t36.5 47h-87v700z" />
    <glyph glyph-name="iogonek" unicode="&#x12f;" horiz-adv-x="308" 
d="M75 529h158v-529q-17 -15 -24 -25.5t-7 -20.5q0 -21 33 -21h31v-93h-59q-51 0 -79 18.5t-28 54.5q0 18 11.5 40t36.5 47h-73v529zM75 705h158v-110h-158v110z" />
    <glyph glyph-name="dotlessi" unicode="&#x131;" horiz-adv-x="309" 
d="M75 529h158v-529h-158v529z" />
    <glyph glyph-name="uni0136" unicode="&#x136;" horiz-adv-x="662" 
d="M85 700h172v-275h62l155 275h152v-57l-166 -283l181 -304v-56h-163l-156 275h-65v-275h-172v700zM284 -67h153v-66l-72 -134h-109z" />
    <glyph glyph-name="uni0137" unicode="&#x137;" horiz-adv-x="581" 
d="M75 705h158v-365h42l128 189h131v-73l-123 -180l135 -203v-73h-134l-137 204h-42v-204h-158v705zM252.631 -67h140.3v-66l-66.0234 -134h-99.9521z" />
    <glyph glyph-name="Lacute" unicode="&#x139;" horiz-adv-x="572" 
d="M85 700h172v-550h300v-150h-472v700zM242.892 771.492h-131.858l61.1055 150.084h151.154v-57.8896z" />
    <glyph glyph-name="lacute" unicode="&#x13a;" horiz-adv-x="308" 
d="M75 705h158v-705h-158v705zM214 756h-123l57 140h141v-54z" />
    <glyph glyph-name="uni013B" unicode="&#x13b;" horiz-adv-x="572" 
d="M85 700h172v-550h300v-150h-472v700zM245 -67h153v-66l-72 -134h-109z" />
    <glyph glyph-name="uni013C" unicode="&#x13c;" horiz-adv-x="309" 
d="M75 705h158v-705h-158v705zM108.631 -67h140.3v-66l-66.0234 -134h-99.9521z" />
    <glyph glyph-name="Lcaron" unicode="&#x13d;" horiz-adv-x="572" 
d="M85 700h172v-550h300v-150h-472v700zM403 700h153v-66l-72 -134h-109z" />
    <glyph glyph-name="lcaron" unicode="&#x13e;" horiz-adv-x="435" 
d="M322 705h143v-66l-72 -134h-99zM75 705h158v-705h-158v705z" />
    <glyph glyph-name="Lslash" unicode="&#x141;" horiz-adv-x="607" 
d="M120 214l-53 -36h-54v111l107 77v334h172v-203l67 43h55v-111l-122 -85v-194h300v-150h-472v214z" />
    <glyph glyph-name="lslash" unicode="&#x142;" horiz-adv-x="424" 
d="M134 183l-61 -56h-73v97l134 136v345h158v-176l61 58h71v-99l-132 -133v-355h-158v183z" />
    <glyph glyph-name="Nacute" unicode="&#x143;" horiz-adv-x="725" 
d="M85 700h158l229 -379v379h167v-700h-157l-230 379v-379h-167v700zM418.892 771.492h-131.858l61.1055 150.084h151.154v-57.8896z" />
    <glyph glyph-name="nacute" unicode="&#x144;" horiz-adv-x="610" 
d="M75 529h90l38 -48q26 24 62 42t90 18q89 0 137 -55.5t48 -152.5v-333h-158v325q0 38 -18 56t-45 18q-17 0 -31.5 -5.5t-25.5 -12.5t-18.5 -14t-10.5 -10v-357h-158v529zM366 590h-123l57 140h141v-54z" />
    <glyph glyph-name="Ncommaaccent" unicode="&#x145;" horiz-adv-x="725" 
d="M85 700h158l229 -379v379h167v-700h-157l-230 379v-379h-167v700zM293 -67h153v-66l-72 -134h-109z" />
    <glyph glyph-name="ncommaaccent" unicode="&#x146;" horiz-adv-x="610" 
d="M75 529h90l38 -48q26 24 62 42t90 18q89 0 137 -55.5t48 -152.5v-333h-158v325q0 38 -18 56t-45 18q-17 0 -31.5 -5.5t-25.5 -12.5t-18.5 -14t-10.5 -10v-357h-158v529zM244.631 -67h140.3v-66l-66.0234 -134h-99.9521z" />
    <glyph glyph-name="Ncaron" unicode="&#x147;" horiz-adv-x="725" 
d="M85 700h158l229 -379v379h167v-700h-157l-230 379v-379h-167v700zM436.158 772.068h-131.859l-94.3379 96.5703v53.6504h127.57l35.377 -55.7969l34.3047 55.7969h124.354v-53.6504z" />
    <glyph glyph-name="ncaron" unicode="&#x148;" horiz-adv-x="610" 
d="M75 529h90l38 -48q26 24 62 42t90 18q89 0 137 -55.5t48 -152.5v-333h-158v325q0 38 -18 56t-45 18q-17 0 -31.5 -5.5t-25.5 -12.5t-18.5 -14t-10.5 -10v-357h-158v529zM367 590h-123l-88 90v50h119l33 -52l32 52h116v-50z" />
    <glyph glyph-name="Omacron" unicode="&#x14c;" horiz-adv-x="699" 
d="M349 143q31 0 52 8.5t34.5 21t19.5 28.5t6 31v237q0 15 -6 30.5t-19.5 28t-34.5 21t-52 8.5q-30 0 -51.5 -8.5t-35 -21t-19.5 -28t-6 -30.5v-237q0 -15 6 -31t19.5 -28.5t35 -21t51.5 -8.5zM349 -15q-65 0 -117 17t-89.5 49.5t-57.5 79.5t-20 107v222q0 61 20 108.5
t57.5 80t89.5 49.5t117 17t117.5 -17t89.5 -49.5t57 -80t20 -108.5v-222q0 -60 -20 -107t-57 -79.5t-89.5 -49.5t-117.5 -17zM174.593 895.464h367.703v-118.03h-367.703v118.03z" />
    <glyph glyph-name="omacron" unicode="&#x14d;" horiz-adv-x="574" 
d="M288 130q38 0 57 17.5t19 41.5v149q0 25 -19 43t-57 18q-42 0 -60 -19t-18 -42v-149q0 -23 18 -41t60 -18zM288 -12q-59 0 -103 15t-73.5 41.5t-44.5 62t-15 77.5v162q0 41 15 76.5t44.5 62t73.5 41.5t103 15q58 0 102 -15t73 -41.5t44 -62t15 -76.5v-162
q0 -42 -15 -77.5t-44 -62t-73 -41.5t-102 -15zM117 705h343v-110h-343v110z" />
    <glyph glyph-name="obreve" unicode="&#x14f;" horiz-adv-x="574" 
d="M288 130q38 0 57 17.5t19 41.5v149q0 25 -19 43t-57 18q-42 0 -60 -19t-18 -42v-149q0 -23 18 -41t60 -18zM288 -12q-59 0 -103 15t-73.5 41.5t-44.5 62t-15 77.5v162q0 41 15 76.5t44.5 62t73.5 41.5t103 15q58 0 102 -15t73 -41.5t44 -62t15 -76.5v-162
q0 -42 -15 -77.5t-44 -62t-73 -41.5t-102 -15zM289 595q-75 0 -122 35.5t-47 101.5v12h129v-9q0 -11 8.5 -22t31.5 -11q25 0 33.5 11t8.5 22v9h126v-12q0 -33 -12.5 -58.5t-34.5 -43t-53 -26.5t-68 -9z" />
    <glyph glyph-name="Ohungarumlaut" unicode="&#x150;" horiz-adv-x="699" 
d="M349 143q31 0 52 8.5t34.5 21t19.5 28.5t6 31v237q0 15 -6 30.5t-19.5 28t-34.5 21t-52 8.5q-30 0 -51.5 -8.5t-35 -21t-19.5 -28t-6 -30.5v-237q0 -15 6 -31t19.5 -28.5t35 -21t51.5 -8.5zM349 -15q-65 0 -117 17t-89.5 49.5t-57.5 79.5t-20 107v222q0 61 20 108.5
t57.5 80t89.5 49.5t117 17t117.5 -17t89.5 -49.5t57 -80t20 -108.5v-222q0 -60 -20 -107t-57 -79.5t-89.5 -49.5t-117.5 -17zM297.172 772.068h-121.139l61.1055 150.221h140.435v-57.9424zM499.783 772.068h-122.21l61.1055 150.221h140.435v-57.9424z" />
    <glyph glyph-name="ohungarumlaut" unicode="&#x151;" horiz-adv-x="574" 
d="M288 130q38 0 57 17.5t19 41.5v149q0 25 -19 43t-57 18q-42 0 -60 -19t-18 -42v-149q0 -23 18 -41t60 -18zM288 -12q-59 0 -103 15t-73.5 41.5t-44.5 62t-15 77.5v162q0 41 15 76.5t44.5 62t73.5 41.5t103 15q58 0 102 -15t73 -41.5t44 -62t15 -76.5v-162
q0 -42 -15 -77.5t-44 -62t-73 -41.5t-102 -15zM236 590h-113l57 140h131v-54zM425 590h-114l57 140h131v-54z" />
    <glyph glyph-name="OE" unicode="&#x152;" horiz-adv-x="989" 
d="M461 0q-26 -7 -53.5 -11t-58.5 -4q-65 0 -117 17t-89.5 49.5t-57.5 79.5t-20 107v222q0 61 20 108.5t57.5 80t89.5 49.5t117 17q29 0 58 -4t54 -11h468v-150h-296v-128h250v-142h-250v-130h298v-150h-470zM349 143q29 0 50.5 7.5t35 19.5t20 26.5t6.5 29.5v249
q0 14 -6.5 28.5t-20 26.5t-35 19.5t-50.5 7.5q-30 0 -51.5 -8.5t-35 -21t-19.5 -28t-6 -30.5v-237q0 -15 6 -31t19.5 -28.5t35 -21t51.5 -8.5z" />
    <glyph glyph-name="oe" unicode="&#x153;" horiz-adv-x="875" 
d="M288 -12q-59 0 -103 15t-73.5 41.5t-44.5 62t-15 77.5v162q0 41 15 76.5t44.5 62t73.5 41.5t103 15q48 0 86.5 -11t68.5 -31q63 42 157 42q48 0 89 -12t71 -36.5t47 -60.5t17 -84v-136h-302v-36q2 -20 20 -33t58 -13q26 0 42.5 8.5t23.5 22.5h157q-8 -82 -66.5 -127.5
t-156.5 -45.5q-46 0 -86 10t-72 30q-62 -40 -154 -40zM288 130q38 0 57 18t19 41v149q0 25 -19 43t-57 18q-42 0 -60 -19t-18 -42v-149q0 -23 18 -41t60 -18zM666 325v28q0 24 -18.5 37.5t-53.5 13.5t-53.5 -13.5t-18.5 -37.5v-28h144z" />
    <glyph glyph-name="Racute" unicode="&#x154;" horiz-adv-x="687" 
d="M85 700h307q113 0 169.5 -58.5t56.5 -163.5q0 -69 -28 -121t-79 -82l129 -219v-56h-167l-144 256h-72v-256h-172v700zM363 398q38 0 59.5 15.5t21.5 61.5q0 44 -21.5 59.5t-59.5 15.5h-106v-152h106zM385.892 771.492h-131.858l61.1055 150.084h151.154v-57.8896z" />
    <glyph glyph-name="racute" unicode="&#x155;" horiz-adv-x="397" 
d="M75 529h90l38 -48q7 9 18 19.5t26.5 19.5t35.5 15t46 6h45v-149h-45q-33 0 -57 -8t-39 -28v-356h-158v529zM262 590h-123l57 140h141v-54z" />
    <glyph glyph-name="Rcommaaccent" unicode="&#x156;" horiz-adv-x="675" 
d="M85 700h307q113 0 169.5 -58.5t56.5 -163.5q0 -69 -28 -121t-79 -82l129 -219v-56h-167l-144 256h-72v-256h-172v700zM363 398q38 0 59.5 15.5t21.5 61.5q0 44 -21.5 59.5t-59.5 15.5h-106v-152h106zM278 -67h153v-66l-72 -134h-109z" />
    <glyph glyph-name="uni0157" unicode="&#x157;" horiz-adv-x="397" 
d="M75 529h90l38 -48q7 9 18 19.5t26.5 19.5t35.5 15t46 6h45v-149h-45q-33 0 -57 -8t-39 -28v-356h-158v529zM108.631 -67h140.3v-66l-66.0234 -134h-99.9521z" />
    <glyph glyph-name="Rcaron" unicode="&#x158;" horiz-adv-x="687" 
d="M85 700h307q113 0 169.5 -58.5t56.5 -163.5q0 -69 -28 -121t-79 -82l129 -219v-56h-167l-144 256h-72v-256h-172v700zM363 398q38 0 59.5 15.5t21.5 61.5q0 44 -21.5 59.5t-59.5 15.5h-106v-152h106zM395.158 772.068h-131.859l-94.3379 96.5703v53.6504h127.57
l35.377 -55.7969l34.3047 55.7969h124.354v-53.6504z" />
    <glyph glyph-name="rcaron" unicode="&#x159;" horiz-adv-x="397" 
d="M75 529h90l38 -48q7 9 18 19.5t26.5 19.5t35.5 15t46 6h45v-149h-45q-33 0 -57 -8t-39 -28v-356h-158v529zM269 590h-123l-88 90v50h119l33 -52l32 52h116v-50z" />
    <glyph glyph-name="Sacute" unicode="&#x15a;" horiz-adv-x="657" 
d="M325 -15q-59 0 -111 15.5t-90.5 45.5t-61 75.5t-22.5 105.5h172q0 -27 12.5 -43.5t31.5 -25.5t41 -12t41 -3q45 0 67 14.5t22 40.5q0 24 -26.5 37t-76.5 30l-114 38q-19 6 -45 18.5t-50 35t-40.5 56t-16.5 81.5q0 50 18.5 91t53 70t84 44.5t111.5 15.5q58 0 107 -15
t85 -45t56 -75t20 -105h-173q0 42 -30.5 62t-72.5 20q-40 0 -62 -14t-22 -40q0 -25 18 -36t53 -23l111 -38q42 -14 76 -30t58 -38.5t37.5 -54t13.5 -76.5q0 -48 -16.5 -89t-50.5 -70.5t-86 -46t-122 -16.5zM389.892 771.492h-131.858l61.1055 150.084h151.154v-57.8896z" />
    <glyph glyph-name="sacute" unicode="&#x15b;" horiz-adv-x="563" 
d="M285 -12q-56 0 -100.5 14.5t-75.5 40.5t-48.5 61.5t-18.5 78.5h152q7 -26 31 -43t75 -17q29 0 45 8t16 24q0 24 -37 33l-136 33q-21 5 -43.5 15t-41.5 26.5t-31.5 41.5t-12.5 60q0 85 59 131t164 46q49 0 90.5 -13.5t72.5 -37.5t48.5 -58t17.5 -75h-151q-5 27 -29 38.5
t-56 11.5q-36 0 -49.5 -9t-13.5 -23q0 -11 8.5 -16t25.5 -9l147 -35q24 -5 45.5 -16.5t38.5 -29.5t27 -43.5t10 -59.5q0 -43 -17 -76t-47 -55.5t-72 -34.5t-93 -12zM333 590h-123l57 140h141v-54z" />
    <glyph glyph-name="scircumflex" unicode="&#x15d;" horiz-adv-x="563" 
d="M285 -12q-56 0 -100.5 14.5t-75.5 40.5t-48.5 61.5t-18.5 78.5h152q7 -26 31 -43t75 -17q29 0 45 8t16 24q0 24 -37 33l-136 33q-21 5 -43.5 15t-41.5 26.5t-31.5 41.5t-12.5 60q0 85 59 131t164 46q49 0 90.5 -13.5t72.5 -37.5t48.5 -58t17.5 -75h-151q-5 27 -29 38.5
t-56 11.5q-36 0 -49.5 -9t-13.5 -23q0 -11 8.5 -16t25.5 -9l147 -35q24 -5 45.5 -16.5t38.5 -29.5t27 -43.5t10 -59.5q0 -43 -17 -76t-47 -55.5t-72 -34.5t-93 -12zM437 640v-50h-116l-32 52l-33 -52h-119v50l88 90h123z" />
    <glyph glyph-name="Scaron" unicode="&#x160;" horiz-adv-x="657" 
d="M325 -15q-59 0 -111 15.5t-90.5 45.5t-61 75.5t-22.5 105.5h172q0 -27 12.5 -43.5t31.5 -25.5t41 -12t41 -3q45 0 67 14.5t22 40.5q0 24 -26.5 37t-76.5 30l-114 38q-19 6 -45 18.5t-50 35t-40.5 56t-16.5 81.5q0 50 18.5 91t53 70t84 44.5t111.5 15.5q58 0 107 -15
t85 -45t56 -75t20 -105h-173q0 42 -30.5 62t-72.5 20q-40 0 -62 -14t-22 -40q0 -25 18 -36t53 -23l111 -38q42 -14 76 -30t58 -38.5t37.5 -54t13.5 -76.5q0 -48 -16.5 -89t-50.5 -70.5t-86 -46t-122 -16.5zM401.158 772.068h-131.859l-94.3379 96.5703v53.6504h127.57
l35.377 -55.7969l34.3047 55.7969h124.354v-53.6504z" />
    <glyph glyph-name="scaron" unicode="&#x161;" horiz-adv-x="563" 
d="M285 -12q-56 0 -100.5 14.5t-75.5 40.5t-48.5 61.5t-18.5 78.5h152q7 -26 31 -43t75 -17q29 0 45 8t16 24q0 24 -37 33l-136 33q-21 5 -43.5 15t-41.5 26.5t-31.5 41.5t-12.5 60q0 85 59 131t164 46q49 0 90.5 -13.5t72.5 -37.5t48.5 -58t17.5 -75h-151q-5 27 -29 38.5
t-56 11.5q-36 0 -49.5 -9t-13.5 -23q0 -11 8.5 -16t25.5 -9l147 -35q24 -5 45.5 -16.5t38.5 -29.5t27 -43.5t10 -59.5q0 -43 -17 -76t-47 -55.5t-72 -34.5t-93 -12zM347 590h-123l-88 90v50h119l33 -52l32 52h116v-50z" />
    <glyph glyph-name="Tcaron" unicode="&#x164;" horiz-adv-x="578" 
d="M203 550h-188v150h547v-150h-187v-550h-172v550zM359.158 772.068h-131.859l-94.3379 96.5703v53.6504h127.57l35.377 -55.7969l34.3047 55.7969h124.354v-53.6504z" />
    <glyph glyph-name="tcaron" unicode="&#x165;" horiz-adv-x="540" 
d="M296 0q-63 0 -103.5 18t-64 47.5t-32 68t-8.5 80.5v179h-73v136h73v111h158v-111h112v-136h-112v-176q0 -50 18.5 -65.5t50.5 -15.5h43v-136h-62zM427 705h143v-66l-72 -134h-99z" />
    <glyph glyph-name="Umacron" unicode="&#x16a;" horiz-adv-x="705" 
d="M352 -15q-64 0 -115.5 16.5t-87.5 48t-55 77t-19 102.5v471h172v-477q0 -13 5.5 -27t17.5 -26t32 -19.5t50 -7.5t50 7.5t32.5 19.5t17.5 26t5 27v477h172v-471q0 -57 -19 -102.5t-55 -77t-87.5 -48t-115.5 -16.5zM177.593 895.464h367.703v-118.03h-367.703v118.03z" />
    <glyph glyph-name="umacron" unicode="&#x16b;" horiz-adv-x="606" 
d="M530 0h-90l-38 48q-23 -21 -59 -40.5t-91 -19.5q-88 0 -135.5 54.5t-47.5 150.5v336h158v-325q0 -33 11.5 -53.5t49.5 -20.5q16 0 30 5t25 12t18.5 13t10.5 9v360h158v-529zM131 705h343v-110h-343v110z" />
    <glyph glyph-name="Uring" unicode="&#x16e;" horiz-adv-x="705" 
d="M352 -15q-64 0 -115.5 16.5t-87.5 48t-55 77t-19 102.5v471h172v-477q0 -13 5.5 -27t17.5 -26t32 -19.5t50 -7.5t50 7.5t32.5 19.5t17.5 26t5 27v477h172v-471q0 -57 -19 -102.5t-55 -77t-87.5 -48t-115.5 -16.5zM242.889 866.492q0 23.6064 9.64844 43.9932
q9.64844 20.3877 26.2646 35.9453q16.6162 15.5586 38.5928 24.1426t47.7051 8.58398q24.6562 0 46.6328 -8.58398t38.5928 -24.1426q16.6162 -15.5576 26.2646 -35.9453q9.64844 -20.3867 9.64844 -43.9932q0 -23.6055 -9.64844 -44.5293
q-9.64844 -20.9229 -26.2646 -35.9453q-16.6162 -15.0215 -38.5928 -24.1426q-21.9766 -9.12012 -46.6328 -9.12012q-25.7285 0 -47.7051 9.12012q-21.9766 9.12109 -38.5928 24.1426q-16.6162 15.0225 -26.2646 35.9453q-9.64844 20.9238 -9.64844 44.5293z
M334.011 866.492q0 -13.9482 9.64844 -21.9961q9.64844 -8.04688 21.4404 -8.04688t21.4404 8.04688q9.64844 8.04785 9.64844 21.9961q0 15.0225 -9.64844 22.5332q-9.64844 7.51172 -21.4404 7.51172t-21.4404 -7.51172q-9.64844 -7.51074 -9.64844 -22.5332z" />
    <glyph glyph-name="uring" unicode="&#x16f;" horiz-adv-x="606" 
d="M530 0h-90l-38 48q-23 -21 -59 -40.5t-91 -19.5q-88 0 -135.5 54.5t-47.5 150.5v336h158v-325q0 -33 11.5 -53.5t49.5 -20.5q16 0 30 5t25 12t18.5 13t10.5 9v360h158v-529zM186 678q0 22 9 41t24.5 33.5t36 22.5t44.5 8q23 0 43.5 -8t36 -22.5t24.5 -33.5t9 -41
t-9 -41.5t-24.5 -33.5t-36 -22.5t-43.5 -8.5q-24 0 -44.5 8.5t-36 22.5t-24.5 33.5t-9 41.5zM271 678q0 -13 9 -20.5t20 -7.5t20 7.5t9 20.5q0 14 -9 21t-20 7t-20 -7t-9 -21z" />
    <glyph glyph-name="Uhungarumlaut" unicode="&#x170;" horiz-adv-x="705" 
d="M352 -15q-64 0 -115.5 16.5t-87.5 48t-55 77t-19 102.5v471h172v-477q0 -13 5.5 -27t17.5 -26t32 -19.5t50 -7.5t50 7.5t32.5 19.5t17.5 26t5 27v477h172v-471q0 -57 -19 -102.5t-55 -77t-87.5 -48t-115.5 -16.5zM301.172 772.068h-121.139l61.1055 150.221h140.435
v-57.9424zM503.783 772.068h-122.21l61.1055 150.221h140.435v-57.9424z" />
    <glyph glyph-name="uhungarumlaut" unicode="&#x171;" horiz-adv-x="606" 
d="M530 0h-90l-38 48q-23 -21 -59 -40.5t-91 -19.5q-88 0 -135.5 54.5t-47.5 150.5v336h158v-325q0 -33 11.5 -53.5t49.5 -20.5q16 0 30 5t25 12t18.5 13t10.5 9v360h158v-529zM250 590h-113l57 140h131v-54zM439 590h-114l57 140h131v-54z" />
    <glyph glyph-name="Uogonek" unicode="&#x172;" horiz-adv-x="705" 
d="M502 -160q-50 0 -78 19.5t-28 53.5q0 17 10 37.5t32 43.5q-39 -9 -86 -9q-64 0 -115.5 16.5t-87.5 48t-55 77t-19 102.5v471h172v-477q0 -13 5.5 -27t17.5 -26t32 -19.5t50 -7.5t50 7.5t32.5 19.5t17.5 26t5 27v477h172v-471q0 -71 -24 -114t-54 -69q-22 -18 -39 -41
t-17 -46q0 -30 38 -30h29v-89h-60v0z" />
    <glyph glyph-name="uogonek" unicode="&#x173;" horiz-adv-x="606" 
d="M227 529v-325q0 -33 11.5 -53.5t49.5 -20.5q16 0 30 5t25 11.5t18.5 13t10.5 9.5v360h158v-529q-17 -15 -24 -25.5t-7 -20.5q0 -21 29 -21h35v-93h-74q-39 0 -65.5 18.5t-26.5 54.5q0 22 10 42t33 45l-38 48q-23 -21 -59 -40.5t-91 -19.5q-88 0 -135.5 54.5t-47.5 150.5
v336h158z" />
    <glyph glyph-name="Ydieresis" unicode="&#x178;" horiz-adv-x="619" 
d="M221 277l-215 366v57h164l141 -256l142 256h160v-57l-219 -360v-283h-173v277zM113.944 899.291h168.25v-123.366h-168.25v123.366zM340.063 899.291h169.321v-123.366h-169.321v123.366z" />
    <glyph glyph-name="Zacute" unicode="&#x179;" horiz-adv-x="599" 
d="M35 150l308 400h-292v150h501v-149l-308 -401h321v-150h-530v150zM345.892 771.492h-131.858l61.1055 150.084h151.154v-57.8896z" />
    <glyph glyph-name="zacute" unicode="&#x17a;" horiz-adv-x="540" 
d="M49 136l227 257h-222v136h415v-136l-231 -257h249v-136h-438v136zM304 590h-123l57 140h141v-54z" />
    <glyph glyph-name="Zdotaccent" unicode="&#x17b;" horiz-adv-x="599" 
d="M35 150l308 400h-292v150h501v-149l-308 -401h321v-150h-530v150zM227.961 895.464h169.38v-123.396h-169.38v123.396z" />
    <glyph glyph-name="zdotaccent" unicode="&#x17c;" horiz-adv-x="540" 
d="M49 136l227 257h-222v136h415v-136l-231 -257h249v-136h-438v136zM184 705h158v-115h-158v115z" />
    <glyph glyph-name="Zcaron" unicode="&#x17d;" horiz-adv-x="599" 
d="M35 150l308 400h-292v150h501v-149l-308 -401h321v-150h-530v150zM378.158 772.068h-131.859l-94.3379 96.5703v53.6504h127.57l35.377 -55.7969l34.3047 55.7969h124.354v-53.6504z" />
    <glyph glyph-name="zcaron" unicode="&#x17e;" horiz-adv-x="540" 
d="M49 136l227 257h-222v136h415v-136l-231 -257h249v-136h-438v136zM326 590h-123l-88 90v50h119l33 -52l32 52h116v-50z" />
    <glyph glyph-name="florin" unicode="&#x192;" horiz-adv-x="376" 
d="M97 529q2 51 20.5 85.5t48.5 55.5t70 30t85 9q7 0 17.5 -0.5t21.5 -1.5v-128h-24q-42 0 -60.5 -13.5t-20.5 -36.5h106v-136h-116l-33 -385q-5 -51 -23.5 -85.5t-48 -55.5t-68.5 -30t-84 -9q-7 0 -16.5 0.5t-20.5 1.5v128h22q42 0 60.5 13.5t20.5 36.5l33 385h-63v136h73z
" />
    <glyph glyph-name="scommaaccent" unicode="&#x219;" horiz-adv-x="563" 
d="M285 -12q-56 0 -100.5 14.5t-75.5 40.5t-48.5 61.5t-18.5 78.5h152q7 -26 31 -43t75 -17q29 0 45 8t16 24q0 24 -37 33l-136 33q-21 5 -43.5 15t-41.5 26.5t-31.5 41.5t-12.5 60q0 85 59 131t164 46q49 0 90.5 -13.5t72.5 -37.5t48.5 -58t17.5 -75h-151q-5 27 -29 38.5
t-56 11.5q-36 0 -49.5 -9t-13.5 -23q0 -11 8.5 -16t25.5 -9l147 -35q24 -5 45.5 -16.5t38.5 -29.5t27 -43.5t10 -59.5q0 -43 -17 -76t-47 -55.5t-72 -34.5t-93 -12zM230.631 -67h140.3v-66l-66.0234 -134h-99.9521z" />
    <glyph glyph-name="circumflex" unicode="&#x2c6;" horiz-adv-x="410" 
d="M355 640v-50h-116l-32 52l-33 -52h-119v50l88 90h123z" />
    <glyph glyph-name="caron" unicode="&#x2c7;" horiz-adv-x="410" 
d="M266 590h-123l-88 90v50h119l33 -52l32 52h116v-50z" />
    <glyph glyph-name="breve" unicode="&#x2d8;" horiz-adv-x="411" 
d="M206 581q-75 0 -122 35.5t-47 101.5v12h129v-9q0 -11 8.5 -22t31.5 -11q25 0 33.5 11t8.5 22v9h126v-12q0 -33 -12.5 -58.5t-34.5 -43t-53 -26.5t-68 -9z" />
    <glyph glyph-name="dotaccent" unicode="&#x2d9;" horiz-adv-x="268" 
d="M55 705h158v-115h-158v115z" />
    <glyph glyph-name="ring" unicode="&#x2da;" horiz-adv-x="336" 
d="M54 678q0 22 9 41t24.5 33.5t36 22.5t44.5 8q23 0 43.5 -8t36 -22.5t24.5 -33.5t9 -41t-9 -41.5t-24.5 -33.5t-36 -22.5t-43.5 -8.5q-24 0 -44.5 8.5t-36 22.5t-24.5 33.5t-9 41.5zM139 678q0 -13 9 -20.5t20 -7.5t20 7.5t9 20.5q0 14 -9 21t-20 7t-20 -7t-9 -21z" />
    <glyph glyph-name="ogonek" unicode="&#x2db;" horiz-adv-x="288" 
d="M179 0q-17 -15 -24 -25.5t-7 -20.5q0 -21 29 -21h35v-93h-74q-39 0 -65.5 18.5t-26.5 54.5q0 22 11.5 42t36.5 45h85z" />
    <glyph glyph-name="tilde" unicode="&#x2dc;" horiz-adv-x="481" 
d="M54 628q23 44 51 74t71 30q20 0 34 -5t25 -11l26 -15q16 -9 28 -9q13 0 21.5 9t20.5 31l95 -53q-23 -44 -51 -74t-71 -30q-20 0 -34 5t-25 11l-26 15q-17 9 -28 9q-13 0 -21.5 -9t-20.5 -31z" />
    <glyph glyph-name="hungarumlaut" unicode="&#x2dd;" horiz-adv-x="488" 
d="M169 590h-113l57 140h131v-54zM358 590h-114l57 140h131v-54z" />
    <glyph glyph-name="uni03A9" unicode="&#x3a9;" horiz-adv-x="729" 
d="M476 469q0 15 -6 30.5t-19.5 28t-34.5 21t-52 8.5q-30 0 -51.5 -8.5t-35 -21t-19.5 -28t-6 -30.5v-194q0 -18 1.5 -37t7.5 -36.5t17 -31t31 -20.5v-150h-247v150h67q-32 32 -40.5 63t-8.5 62v185q0 61 20 108.5t57 80t89.5 49.5t117.5 17t117.5 -17t89.5 -49.5t57 -80
t20 -108.5v-185q0 -31 -8.5 -62t-41.5 -63h67v-150h-247v150q19 7 30.5 20.5t17.5 31t8 36.5t2 37v194z" />
    <glyph glyph-name="pi" unicode="&#x3c0;" horiz-adv-x="727" 
d="M122 393h-97v136h677v-136h-98v-393h-158v393h-166v-393h-158v393z" />
    <glyph glyph-name="uni0401" unicode="&#x401;" horiz-adv-x="613" 
d="M85 700h468v-150h-296v-128h250v-142h-250v-130h298v-150h-470v700zM123.788 893.958h167.896v-123.149h-167.896v123.149zM349.432 893.958h168.964v-123.149h-168.964v123.149z" />
    <glyph glyph-name="uni0402" unicode="&#x402;" horiz-adv-x="758" 
d="M185 550h-170v150h556v-150h-214v-115q24 3 47.5 4.5t52.5 1.5q128 0 194 -58t66 -161q0 -101 -53.5 -161.5t-157.5 -60.5h-77v150h30q46 0 64.5 18.5t18.5 51.5q0 38 -30.5 55.5t-82.5 17.5q-21 0 -40.5 -2t-31.5 -5v-286h-172v550z" />
    <glyph glyph-name="uni0403" unicode="&#x403;" horiz-adv-x="568" 
d="M366.892 771.492h-131.858l61.1055 150.084h151.154v-57.8896zM85 700h447v-150h-275v-550h-172v700z" />
    <glyph glyph-name="afii10053" unicode="&#x404;" horiz-adv-x="661" 
d="M339.02 -15q53.9971 0 102.494 13t84.9951 42q36.4971 29 58.4961 75.5t21.999 114.5h-156.991q0 -44 -28.998 -65.5t-76.9951 -21.5q-58.9961 0 -82.9951 24.5q-23.998 24.5 -23.998 65.5v47h182.988v142h-182.988v45q0 41 23.998 65.5q23.999 24.5 82.9951 24.5
q47.9971 0 76.9951 -21.5t28.998 -65.5h156.991q0 67 -21.999 114t-58.4961 76q-36.498 29 -84.9951 42t-102.494 13q-130.992 0 -202.487 -66q-71.4961 -66 -71.4961 -187v-224q0 -121 71.4961 -187q71.4951 -66 202.487 -66z" />
    <glyph glyph-name="afii10054" unicode="&#x405;" horiz-adv-x="657" 
d="M325 -15q-59 0 -111 15.5t-90.5 45.5t-61 75.5t-22.5 105.5h172q0 -27 12.5 -43.5t31.5 -25.5t41 -12t41 -3q45 0 67 14.5t22 40.5q0 24 -26.5 37t-76.5 30l-114 38q-19 6 -45 18.5t-50 35t-40.5 56t-16.5 81.5q0 50 18.5 91t53 70t84 44.5t111.5 15.5q58 0 107 -15
t85 -45t56 -75t20 -105h-173q0 42 -30.5 62t-72.5 20q-40 0 -62 -14t-22 -40q0 -25 18 -36t53 -23l111 -38q42 -14 76 -30t58 -38.5t37.5 -54t13.5 -76.5q0 -48 -16.5 -89t-50.5 -70.5t-86 -46t-122 -16.5z" />
    <glyph glyph-name="uni0406" unicode="&#x406;" horiz-adv-x="343" 
d="M85 700h172v-700h-172v700z" />
    <glyph glyph-name="uni0407" unicode="&#x407;" horiz-adv-x="343" 
d="M85 700h172v-700h-172v700zM-32.0303 895.464h168.308v-123.396h-168.308v123.396zM194.166 895.464h169.379v-123.396h-169.379v123.396z" />
    <glyph glyph-name="uni0408" unicode="&#x408;" horiz-adv-x="592" 
d="M266 -15q-52 0 -97.5 11t-79.5 37t-54 69t-20 108v34h172v-25q0 -44 22.5 -60t56.5 -16q33 0 55.5 16t22.5 60v481h172v-489q0 -64 -20.5 -107t-55 -69.5t-79.5 -38t-95 -11.5z" />
    <glyph glyph-name="uni0409" unicode="&#x409;" horiz-adv-x="1008" 
d="M440 550h-141v-196q0 -181 -64 -267.5t-200 -86.5h-15v157h15q34 0 54.5 11t31 37.5t13.5 70.5t3 109v315h475v-248h151q97 0 150.5 -61t53.5 -164q0 -52 -13.5 -94t-40 -71.5t-64.5 -45.5t-86 -16h-323v550zM730 150q10 0 21 3.5t20.5 12.5t15.5 23.5t6 35.5
q0 22 -6 36.5t-15.5 23.5t-20.5 13t-21 4h-118v-152h118z" />
    <glyph glyph-name="uni040A" unicode="&#x40a;" horiz-adv-x="1034" 
d="M466 294h-211v-294h-172v700h172v-257h211v257h172v-257h155q95 0 147.5 -59.5t52.5 -161.5q0 -103 -52.5 -162.5t-147.5 -59.5h-327v294zM758 150q9 0 20 3.5t20 12t15 22t6 34.5q0 20 -6 34t-15 22.5t-20 12t-20 3.5h-120v-144h120z" />
    <glyph glyph-name="uni040B" unicode="&#x40b;" horiz-adv-x="770" 
d="M357 433q21 4 46.5 6t50.5 2q49 0 95.5 -8t83.5 -31t59.5 -63.5t22.5 -105.5v-233h-172v210q0 35 -23 54t-74 19q-29 0 -48.5 -2t-40.5 -6v-275h-172v550h-170v150h556v-150h-214v-117z" />
    <glyph glyph-name="uni040C" unicode="&#x40c;" horiz-adv-x="662" 
d="M85 700h172v-275h62l155 275h152v-57l-166 -283l181 -304v-56h-163l-156 275h-65v-275h-172v700zM421.892 771.492h-131.858l61.1055 150.084h151.154v-57.8896z" />
    <glyph glyph-name="uni040E" unicode="&#x40e;" horiz-adv-x="608" 
d="M164 700l154 -309l135 309h150v-57l-287 -643h-151v56l70 151l-230 436v57h159zM308 742q-75 0 -122 35.5t-47 101.5v9h129v-6q0 -11 8.5 -22t31.5 -11q25 0 33.5 11t8.5 22v6h126v-9q0 -33 -12.5 -58.5t-34.5 -43t-53 -26.5t-68 -9z" />
    <glyph glyph-name="uni040F" unicode="&#x40f;" horiz-adv-x="721" 
d="M281 0h-196v700h172v-550h206v550h172v-700h-197v-136h-157v136z" />
    <glyph glyph-name="uni0410" unicode="&#x410;" horiz-adv-x="664" 
d="M439 151h-222l-50 -151h-152v56l232 644h169l233 -644v-56h-161zM265 295h126l-62 191z" />
    <glyph glyph-name="uni0411" unicode="&#x411;" horiz-adv-x="675" 
d="M85 700h501v-150h-329v-104h170q48 0 86 -16t64 -45t40 -70.5t14 -92.5q0 -102 -53.5 -162t-150.5 -60h-342v700zM397 150q9 0 19.5 4t19.5 12.5t15 22.5t6 34q0 21 -6 35t-15 22.5t-19.5 12t-19.5 3.5h-140v-146h140z" />
    <glyph glyph-name="uni0412" unicode="&#x412;" horiz-adv-x="674" 
d="M85 700h297q100 0 159 -49.5t59 -148.5q0 -45 -16.5 -80.5t-54.5 -58.5q20 -11 38.5 -24.5t32 -33t21.5 -45t8 -60.5q0 -103 -58.5 -151.5t-158.5 -48.5h-327v700zM372 423q8 0 17.5 3t17.5 10.5t13 19t5 29.5t-5 30.5t-13 20t-17.5 11t-17.5 3.5h-115v-127h115zM401 150
q8 0 17.5 3t17.5 10.5t13.5 19.5t5.5 30q0 19 -5.5 31.5t-13.5 20t-17.5 11t-17.5 3.5h-144v-129h144z" />
    <glyph glyph-name="uni0413" unicode="&#x413;" horiz-adv-x="568" 
d="M85 700h447v-150h-275v-550h-172v700z" />
    <glyph glyph-name="uni0414" unicode="&#x414;" horiz-adv-x="738" 
d="M20 150h63q10 15 20 34t18 45t12.5 61.5t4.5 85.5v324h482v-550h80v-286h-158v136h-364v-136h-158v286zM448 150v400h-152v-174q0 -47 -3.5 -82.5t-8.5 -62.5t-12 -46.5t-14 -34.5h190z" />
    <glyph glyph-name="uni0415" unicode="&#x415;" horiz-adv-x="613" 
d="M85 700h468v-150h-296v-128h250v-142h-250v-130h298v-150h-470v700z" />
    <glyph glyph-name="uni0416" unicode="&#x416;" horiz-adv-x="953" 
d="M390 275h-66l-142 -275h-164v56l164 303l-147 284v57h149l138 -275h68v275h173v-275h68l138 275h149v-57l-147 -284l164 -303v-56h-164l-142 275h-66v-275h-173v275z" />
    <glyph glyph-name="uni0417" unicode="&#x417;" horiz-adv-x="633" 
d="M324 -15q-57 0 -108.5 13.5t-90.5 43t-62 77t-23 115.5h172q0 -27 10 -45t26 -28t36 -14t41 -4q42 0 65.5 18t23.5 51q0 35 -24 51t-67 16h-86v142h86q38 0 58 17t20 49q0 31 -20.5 50.5t-59.5 19.5q-16 0 -32 -4t-28.5 -14t-20.5 -28t-8 -45h-173q0 67 21.5 114.5
t58 77.5t84.5 43.5t100 13.5q61 0 108.5 -16.5t79 -45.5t48 -68t16.5 -84q0 -52 -21.5 -89t-52.5 -61q17 -9 33 -21.5t28 -30.5t19 -41.5t7 -52.5q0 -50 -17.5 -90.5t-51.5 -69.5t-83 -44.5t-112 -15.5z" />
    <glyph glyph-name="uni0418" unicode="&#x418;" horiz-adv-x="731" 
d="M85 700h172v-390l230 390h158v-700h-172v390l-230 -390h-158v700z" />
    <glyph glyph-name="uni0419" unicode="&#x419;" horiz-adv-x="731" 
d="M85 700h172v-390l230 390h158v-700h-172v390l-230 -390h-158v700zM366 742q-75 0 -122 35.5t-47 101.5v9h129v-6q0 -11 8.5 -22t31.5 -11q25 0 33.5 11t8.5 22v6h126v-9q0 -33 -12.5 -58.5t-34.5 -43t-53 -26.5t-68 -9z" />
    <glyph glyph-name="uni041A" unicode="&#x41a;" horiz-adv-x="662" 
d="M85 700h172v-275h62l155 275h152v-57l-166 -283l181 -304v-56h-163l-156 275h-65v-275h-172v700z" />
    <glyph glyph-name="uni041B" unicode="&#x41b;" horiz-adv-x="708" 
d="M20 157h16q34 0 54.5 11t30.5 37.5t13 70.5t3 109v315h485v-700h-172v550h-151v-196q0 -181 -63.5 -267.5t-199.5 -86.5h-16v157z" />
    <glyph glyph-name="uni041C" unicode="&#x41c;" horiz-adv-x="821" 
d="M85 700h167l159 -283l159 283h165v-700h-167v395l-105 -188h-106l-105 188v-395h-167v700z" />
    <glyph glyph-name="uni041D" unicode="&#x41d;" horiz-adv-x="725" 
d="M85 700h172v-275h210v275h172v-700h-172v275h-210v-275h-172v700z" />
    <glyph glyph-name="uni041E" unicode="&#x41e;" horiz-adv-x="699" 
d="M349 143q31 0 52 8.5t34.5 21t19.5 28.5t6 31v237q0 15 -6 30.5t-19.5 28t-34.5 21t-52 8.5q-30 0 -51.5 -8.5t-35 -21t-19.5 -28t-6 -30.5v-237q0 -15 6 -31t19.5 -28.5t35 -21t51.5 -8.5zM349 -15q-65 0 -117 17t-89.5 49.5t-57.5 79.5t-20 107v222q0 61 20 108.5
t57.5 80t89.5 49.5t117 17t117.5 -17t89.5 -49.5t57 -80t20 -108.5v-222q0 -60 -20 -107t-57 -79.5t-89.5 -49.5t-117.5 -17z" />
    <glyph glyph-name="uni041F" unicode="&#x41f;" horiz-adv-x="719" 
d="M85 700h548v-700h-172v550h-204v-550h-172v700z" />
    <glyph glyph-name="uni0420" unicode="&#x420;" horiz-adv-x="655" 
d="M85 700h325q97 0 150.5 -61t53.5 -164q0 -52 -13.5 -94t-40 -71.5t-64.5 -45.5t-86 -16h-153v-248h-172v700zM377 398q10 0 21 3.5t20.5 12.5t15.5 23.5t6 35.5q0 22 -6 36.5t-15.5 23.5t-20.5 13t-21 4h-120v-152h120z" />
    <glyph glyph-name="uni0421" unicode="&#x421;" horiz-adv-x="661" 
d="M343 -15q-137 0 -207.5 66t-70.5 186v226q0 120 70.5 186t207.5 66q52 0 100 -13.5t84.5 -43.5t58 -77.5t21.5 -114.5v-10h-172v10q0 26 -8.5 43.5t-23 28t-33 15t-38.5 4.5q-51 0 -73 -22t-22 -60v-249q0 -38 22 -60.5t73 -22.5q20 0 38.5 4t33 14.5t23 28.5t8.5 45v9
h172v-10q0 -67 -21.5 -114.5t-58 -77.5t-84.5 -43.5t-100 -13.5z" />
    <glyph glyph-name="uni0422" unicode="&#x422;" horiz-adv-x="578" 
d="M203 550h-188v150h547v-150h-187v-550h-172v550z" />
    <glyph glyph-name="uni0423" unicode="&#x423;" horiz-adv-x="608" 
d="M164 700l154 -309l135 309h150v-57l-287 -643h-151v56l70 151l-230 436v57h159z" />
    <glyph glyph-name="uni0424" unicode="&#x424;" horiz-adv-x="910" 
d="M369 223v283h-42q-26 0 -46 -9.5t-34.5 -24.5t-22 -34t-7.5 -38v-71q0 -19 7.5 -38t22 -34t34.5 -24.5t46 -9.5h42zM583 223q25 0 45.5 9.5t35 24.5t22 34t7.5 38v71q0 19 -7.5 38t-22 34t-35 24.5t-45.5 9.5h-42v-283h42zM541 -12h-172v85h-38q-54 0 -105.5 15.5
t-91.5 47t-64.5 78.5t-24.5 110v81q0 63 24.5 110t64.5 78.5t91.5 47t105.5 15.5h38v73h172v-73h38q54 0 105.5 -15.5t91.5 -47t64.5 -78.5t24.5 -110v-81q0 -63 -24.5 -110t-64.5 -78.5t-91.5 -47t-105.5 -15.5h-38v-85z" />
    <glyph glyph-name="uni0425" unicode="&#x425;" horiz-adv-x="653" 
d="M430 369l205 -313v-56h-172l-139 218l-140 -218h-166v56l205 311l-180 276v57h172l114 -180l116 180h166v-57z" />
    <glyph glyph-name="uni0426" unicode="&#x426;" horiz-adv-x="748" 
d="M552 0h-467v700h172v-550h201v550h172v-550h80v-286h-158v136z" />
    <glyph glyph-name="uni0427" unicode="&#x427;" horiz-adv-x="671" 
d="M413 237q-21 -4 -46.5 -6t-50.5 -2q-49 0 -96 8t-83.5 31t-59 63.5t-22.5 105.5v263h172v-240q0 -35 23 -54t74 -19q29 0 48.5 2t40.5 6v305h172v-700h-172v237z" />
    <glyph glyph-name="uni0428" unicode="&#x428;" horiz-adv-x="1021" 
d="M85 700h172v-550h168v550h172v-550h166v550h172v-700h-850v700z" />
    <glyph glyph-name="uni0429" unicode="&#x429;" horiz-adv-x="1053" 
d="M857 0h-772v700h172v-550h168v550h172v-550h166v550h172v-550h80v-286h-158v136z" />
    <glyph glyph-name="uni042A" unicode="&#x42a;" horiz-adv-x="721" 
d="M153 550h-148v150h320v-248h151q97 0 150.5 -61t53.5 -164q0 -52 -13.5 -94t-40 -71.5t-64.5 -45.5t-86 -16h-323v550zM443 150q10 0 21 3.5t20.5 12.5t15.5 23.5t6 35.5q0 22 -6 36.5t-15.5 23.5t-20.5 13t-21 4h-118v-152h118z" />
    <glyph glyph-name="uni042B" unicode="&#x42b;" horiz-adv-x="936" 
d="M678 700h172v-700h-172v700zM85 700h172v-248h151q97 0 150.5 -61t53.5 -164q0 -52 -13.5 -94t-40 -71.5t-64.5 -45.5t-86 -16h-323v700zM375 150q10 0 21 3.5t20.5 12.5t15.5 23.5t6 35.5q0 22 -6 36.5t-15.5 23.5t-20.5 13t-21 4h-118v-152h118z" />
    <glyph glyph-name="uni042C" unicode="&#x42c;" horiz-adv-x="653" 
d="M85 700h172v-248h151q97 0 150.5 -61t53.5 -164q0 -52 -13.5 -94t-40 -71.5t-64.5 -45.5t-86 -16h-323v700zM375 150q10 0 21 3.5t20.5 12.5t15.5 23.5t6 35.5q0 22 -6 36.5t-15.5 23.5t-20.5 13t-21 4h-118v-152h118z" />
    <glyph glyph-name="uni042D" unicode="&#x42d;" horiz-adv-x="664" 
d="M324 -15q-54 0 -102.5 13t-85 42t-58.5 75.5t-22 114.5h157q0 -44 29 -65.5t77 -21.5q59 0 83 24.5t24 65.5v47h-183v142h183v45q0 41 -24 65.5t-83 24.5q-48 0 -77 -21.5t-29 -65.5h-157q0 67 22 114t58.5 76t85 42t102.5 13q131 0 202.5 -66t71.5 -187v-224
q0 -121 -71.5 -187t-202.5 -66z" />
    <glyph glyph-name="uni042E" unicode="&#x42e;" horiz-adv-x="962" 
d="M620 -15q-62 0 -112.5 16.5t-86.5 48t-55.5 76.5t-19.5 103v46h-89v-275h-172v700h172v-275h89v45q0 58 19.5 103.5t55.5 77t86.5 48t112.5 16.5q63 0 114 -16.5t87 -48t55.5 -77t19.5 -103.5v-241q0 -58 -19.5 -103t-55.5 -76.5t-87 -48t-114 -16.5zM621 143
q28 0 47.5 7.5t32 19.5t18 26.5t5.5 28.5v251q0 13 -5.5 27.5t-18 26.5t-32 19.5t-47.5 7.5t-47.5 -7.5t-32 -19.5t-18 -26.5t-5.5 -27.5v-251q0 -14 5.5 -28.5t18 -26.5t32 -19.5t47.5 -7.5z" />
    <glyph glyph-name="uni042F" unicode="&#x42f;" horiz-adv-x="672" 
d="M47 56l115 204q-48 35 -74 86t-26 117q0 110 57.5 173.5t170.5 63.5h296v-700h-173v239h-84l-123 -239h-159v56zM413 381v169h-85q-43 0 -67.5 -16t-24.5 -66q0 -26 7.5 -43t20.5 -26.5t31 -13.5t39 -4h79z" />
    <glyph glyph-name="uni0430" unicode="&#x430;" horiz-adv-x="576" 
d="M253 126q23 0 48 8t48 31v50h-77q-34 0 -54 -10.5t-20 -34.5q0 -17 12.5 -30.5t42.5 -13.5zM219 -12q-37 0 -69.5 10.5t-57 31.5t-38.5 51.5t-14 69.5q0 82 52 126t160 44h97v23q0 55 -66 55q-35 0 -50 -12t-15 -29h-154q0 40 13 73.5t40 58t68.5 38t97.5 13.5t98 -13.5
t69.5 -38t41.5 -58.5t14 -75v-356h-90l-38 48q-29 -27 -65.5 -43.5t-93.5 -16.5z" />
    <glyph glyph-name="uni0431" unicode="&#x431;" horiz-adv-x="582" 
d="M296 -12q-52 0 -95.5 12.5t-74.5 36.5t-48.5 60.5t-17.5 84.5v192q0 110 33 170.5t110 83.5l125 39q14 5 16.5 13t2.5 20v5h157v-5q0 -48 -11 -77t-30.5 -46.5t-47 -27t-60.5 -19.5l-84 -25q-31 -10 -49 -25.5t-18 -55.5v-26q13 24 47.5 47t89.5 23q37 0 71 -10t60 -33
t42 -59.5t16 -90.5v-91q0 -47 -17.5 -83t-48.5 -61.5t-74 -38.5t-94 -13zM296 130q38 0 57 17.5t19 41.5v76q0 32 -23.5 46.5t-50.5 14.5q-28 0 -47.5 -10t-32.5 -27v-100q0 -23 18 -41t60 -18z" />
    <glyph glyph-name="uni0432" unicode="&#x432;" horiz-adv-x="588" 
d="M75 529h248q43 0 78.5 -7.5t61 -25t39.5 -44.5t14 -66q0 -35 -12 -63t-33 -49q69 -35 69 -114q0 -50 -15.5 -81t-43 -48.5t-66.5 -24t-87 -6.5h-253v529zM332 129q25 0 34.5 11t9.5 28q0 18 -9.5 29t-34.5 11h-104v-79h104zM308 321q25 0 34.5 11t9.5 28q0 18 -9.5 29
t-34.5 11h-80v-79h80z" />
    <glyph glyph-name="uni0433" unicode="&#x433;" horiz-adv-x="481" 
d="M75 529h370v-136h-212v-393h-158v529z" />
    <glyph glyph-name="uni0434" unicode="&#x434;" horiz-adv-x="649" 
d="M23 136h58q20 32 27 67.5t7 88.5v237h429v-393h74v-258h-152v122h-288v-122h-155v258zM386 136v257h-122v-121q0 -29 -2.5 -64.5t-18.5 -71.5h143z" />
    <glyph glyph-name="uni0435" unicode="&#x435;" horiz-adv-x="563" 
d="M288 -12q-52 0 -95.5 12.5t-74.5 36.5t-48.5 60.5t-17.5 84.5v164q0 46 17.5 82.5t48.5 61.5t74.5 38t95.5 13q48 0 89 -12t71 -36.5t47 -60.5t17 -84v-136h-302v-29q0 -23 18 -38t60 -15q52 0 66 31h157q-8 -82 -66.5 -127.5t-156.5 -45.5zM354 325v28q0 24 -18.5 37.5
t-53.5 13.5t-53.5 -13.5t-18.5 -37.5v-28h144z" />
    <glyph glyph-name="uni0436" unicode="&#x436;" horiz-adv-x="804" 
d="M35 73l108 195l-100 188v73h124l105 -196h51v196h157v-196h53l104 196h124v-73l-100 -188l108 -195v-73h-134l-99 196h-56v-196h-157v196h-54l-100 -196h-134v73z" />
    <glyph glyph-name="uni0437" unicode="&#x437;" horiz-adv-x="574" 
d="M285 -12q-115 0 -178.5 56t-63.5 154h152q0 -30 19.5 -51.5t69.5 -21.5q33 0 53.5 11t20.5 34q0 17 -11.5 25.5t-31.5 8.5h-78v125h74q19 0 27.5 10t8.5 23q0 21 -19 31.5t-46 10.5q-24 0 -39 -6t-24 -15.5t-13 -22.5t-4 -28h-150q1 99 61 154t177 55q47 0 87.5 -11.5
t70 -32.5t46.5 -51.5t17 -68.5q0 -31 -12.5 -57.5t-31.5 -44.5q28 -20 41.5 -49t13.5 -61q0 -84 -63 -130.5t-174 -46.5z" />
    <glyph glyph-name="uni0438" unicode="&#x438;" horiz-adv-x="632" 
d="M75 529h151v-277l174 277h156v-529h-151v277l-174 -277h-156v529z" />
    <glyph glyph-name="uni0439" unicode="&#x439;" horiz-adv-x="632" 
d="M316 581q-75 0 -122 35.5t-47 101.5v12h129v-9q0 -11 8.5 -22t31.5 -11q25 0 33.5 11t8.5 22v9h126v-12q0 -33 -12.5 -58.5t-34.5 -43t-53 -26.5t-68 -9zM75 529h151v-277l174 277h156v-529h-151v277l-174 -277h-156v529z" />
    <glyph glyph-name="uni043A" unicode="&#x43a;" horiz-adv-x="575" 
d="M75 529h158v-196h57l113 196h130v-73l-107 -187l114 -196v-73h-140l-112 196h-55v-196h-158v529z" />
    <glyph glyph-name="uni043B" unicode="&#x43b;" horiz-adv-x="623" 
d="M34 143h21q42 0 55.5 23t13.5 68v295h423v-529h-157v393h-119v-185q0 -52 -15 -91t-41 -65t-61.5 -39t-76.5 -13h-43v143z" />
    <glyph glyph-name="uni043C" unicode="&#x43c;" horiz-adv-x="711" 
d="M75 529h154l127 -220l127 220h152v-529h-153v286l-91 -165h-72l-91 165v-286h-153v529z" />
    <glyph glyph-name="uni043D" unicode="&#x43d;" horiz-adv-x="616" 
d="M75 529h158v-196h149v196h158v-529h-158v197h-149v-197h-158v529z" />
    <glyph glyph-name="uni043E" unicode="&#x43e;" horiz-adv-x="574" 
d="M288 130q38 0 57 17.5t19 41.5v149q0 25 -19 43t-57 18q-42 0 -60 -19t-18 -42v-149q0 -23 18 -41t60 -18zM288 -12q-59 0 -103 15t-73.5 41.5t-44.5 62t-15 77.5v162q0 41 15 76.5t44.5 62t73.5 41.5t103 15q58 0 102 -15t73 -41.5t44 -62t15 -76.5v-162
q0 -42 -15 -77.5t-44 -62t-73 -41.5t-102 -15z" />
    <glyph glyph-name="uni043F" unicode="&#x43f;" horiz-adv-x="611" 
d="M75 529h460v-529h-158v393h-144v-393h-158v529z" />
    <glyph glyph-name="uni0440" unicode="&#x440;" horiz-adv-x="605" 
d="M324 399q-33 0 -55 -14t-36 -28v-185q14 -14 35.5 -28t54.5 -14q9 0 20.5 3.5t21 11.5t16 19.5t6.5 28.5v143q0 17 -6.5 29t-16 19.5t-20.5 11t-20 3.5zM356 541q37 0 71.5 -11t60.5 -34.5t41.5 -60.5t15.5 -88v-166q0 -51 -15.5 -87.5t-41.5 -60t-60 -34.5t-71 -11
q-27 0 -47.5 4t-35.5 9.5t-25 11.5t-16 10v-183h-158v689h90l38 -48q26 23 61.5 41.5t91.5 18.5z" />
    <glyph glyph-name="uni0441" unicode="&#x441;" horiz-adv-x="548" 
d="M210 186q0 -23 15 -39.5t50 -16.5t51.5 15.5t16.5 42.5v12h158v-7q0 -49 -16.5 -87t-46 -64.5t-70 -40t-87.5 -13.5q-51 0 -93 13t-72.5 38.5t-47 61.5t-16.5 83v162q0 46 16.5 82.5t47 61.5t72.5 38t93 13q49 0 89.5 -13t69.5 -39t45 -64t16 -87v-6h-158v6
q0 29 -16.5 45t-51.5 16t-50 -16.5t-15 -39.5v-157z" />
    <glyph glyph-name="uni0442" unicode="&#x442;" horiz-adv-x="504" 
d="M173 393h-158v136h474v-136h-158v-393h-158v393z" />
    <glyph glyph-name="uni0443" unicode="&#x443;" horiz-adv-x="520" 
d="M146 -104l42 104l-173 456v73h145l106 -311l97 311h143v-73l-229 -616h-131v56z" />
    <glyph glyph-name="uni0444" unicode="&#x444;" horiz-adv-x="838" 
d="M340 31q-17 -15 -43.5 -29.5t-70.5 -14.5q-32 0 -62 11t-53 34t-37 58t-14 83v181q0 48 14 83t37 58t53 34t62 11q44 0 70.5 -14.5t43.5 -29.5v209h158v-208q17 15 43.5 29.5t70.5 14.5q32 0 62 -11t53 -34t37 -58t14 -83v-181q0 -48 -14 -83t-37 -58t-53 -34t-62 -11
q-44 0 -70.5 14.5t-43.5 29.5v-192h-158v191zM620 333q0 32 -19 49t-46 17q-18 0 -33 -5.5t-24 -12.5v-233q9 -7 24 -12.5t33 -5.5q27 0 46 17t19 49v137zM218 196q0 -32 19 -49t46 -17q18 0 33 5.5t24 12.5v233q-9 7 -24 12.5t-33 5.5q-27 0 -46 -17t-19 -49v-137z" />
    <glyph glyph-name="uni0445" unicode="&#x445;" horiz-adv-x="536" 
d="M364 271l137 -198v-73h-141l-96 159l-95 -159h-134v73l134 191l-132 192v73h142l87 -146l92 146h132v-73z" />
    <glyph glyph-name="uni0446" unicode="&#x446;" horiz-adv-x="641" 
d="M455 0h-380v529h158v-393h142v393h158v-393h77v-258h-155v122z" />
    <glyph glyph-name="uni0447" unicode="&#x447;" horiz-adv-x="585" 
d="M352 167q-14 -3 -38.5 -6.5t-59.5 -3.5q-46 0 -84.5 9.5t-66 30.5t-43 55t-15.5 82v195h158v-171q0 -35 22 -47t60 -12q20 0 38 2.5t29 5.5v222h157v-529h-157v167z" />
    <glyph glyph-name="uni0448" unicode="&#x448;" horiz-adv-x="835" 
d="M75 529h158v-393h105v393h158v-393h105v393h158v-529h-684v529z" />
    <glyph glyph-name="uni0449" unicode="&#x449;" horiz-adv-x="867" 
d="M680 0h-605v529h158v-393h105v393h158v-393h105v393h158v-393h77v-258h-156v122z" />
    <glyph glyph-name="uni044A" unicode="&#x44a;" horiz-adv-x="597" 
d="M127 393h-132v136h290v-153h117q78 0 123 -51t45 -137t-45 -137t-123 -51h-275v393zM359 136q32 0 42.5 14.5t10.5 37.5t-10.5 37.5t-42.5 14.5h-74v-104h74z" />
    <glyph glyph-name="uni044B" unicode="&#x44b;" horiz-adv-x="795" 
d="M562 529h157v-529h-157v529zM75 529h158v-153h107q78 0 123 -51t45 -137t-45 -137t-123 -51h-265v529zM297 136q32 0 42.5 14.5t10.5 37.5t-10.5 37.5t-42.5 14.5h-64v-104h64z" />
    <glyph glyph-name="uni044C" unicode="&#x44c;" horiz-adv-x="545" 
d="M75 529h158v-153h117q78 0 123 -51t45 -137t-45 -137t-123 -51h-275v529zM307 136q32 0 42.5 14.5t10.5 37.5t-10.5 37.5t-42.5 14.5h-74v-104h74z" />
    <glyph glyph-name="uni044D" unicode="&#x44d;" horiz-adv-x="556" 
d="M273 -12q-50 0 -91.5 14t-71 41t-46 66t-16.5 89h146q0 -35 19.5 -54t61.5 -19q44 0 59.5 18t15.5 44v13h-118v129h118v12q0 27 -16.5 45t-60.5 18q-40 0 -59.5 -19t-19.5 -53h-146q0 102 61.5 155.5t163.5 53.5q52 0 94.5 -13.5t73 -39t47 -62t16.5 -83.5v-156
q0 -47 -16.5 -84t-46.5 -62.5t-73 -39t-95 -13.5z" />
    <glyph glyph-name="uni044E" unicode="&#x44e;" horiz-adv-x="808" 
d="M526 -12q-58 0 -101 14.5t-72 40.5t-43.5 61t-14.5 76v17h-62v-197h-158v529h158v-196h62v17q0 40 14.5 75t43.5 60.5t72 40.5t101 15q57 0 100 -15t72 -40.5t43.5 -60.5t14.5 -75v-170q0 -41 -14.5 -76t-43.5 -61t-72 -40.5t-100 -14.5zM526 130q36 0 54 16t18 39v157
q0 23 -18 40t-54 17q-39 0 -56 -17.5t-17 -39.5v-157q0 -21 17 -38t56 -17z" />
    <glyph glyph-name="uni044F" unicode="&#x44f;" horiz-adv-x="585" 
d="M61 73l81 116q-17 8 -32.5 21.5t-28 33t-20 46.5t-7.5 62q0 44 12.5 77.5t34.5 55.5t50 33t60 11h298v-529h-158v170h-44l-103 -170h-143v73zM351 291v102h-88q-32 0 -42 -14.5t-10 -36.5t10 -36.5t42 -14.5h88z" />
    <glyph glyph-name="uni0451" unicode="&#x451;" horiz-adv-x="563" 
d="M288 -12q-52 0 -95.5 12.5t-74.5 36.5t-48.5 60.5t-17.5 84.5v164q0 46 17.5 82.5t48.5 61.5t74.5 38t95.5 13q48 0 89 -12t71 -36.5t47 -60.5t17 -84v-136h-302v-29q0 -23 18 -38t60 -15q52 0 66 31h157q-8 -82 -66.5 -127.5t-156.5 -45.5zM354 325v28q0 24 -18.5 37.5
t-53.5 13.5t-53.5 -13.5t-18.5 -37.5v-28h144zM104 705h157v-115h-157v115zM315 705h158v-115h-158v115z" />
    <glyph glyph-name="uni0452" unicode="&#x452;" horiz-adv-x="603" 
d="M344 -30q8 0 17 1.5t16.5 7.5t12.5 17t5 30v201q0 38 -18 56t-45 18q-17 0 -31.5 -5.5t-25.5 -12.5t-18.5 -14t-10.5 -10v-259h-158v514h-77v110h77v81h158v-81h170v-110h-170v-107q22 14 51 25t71 11q90 0 137.5 -55.5t47.5 -152.5v-207q0 -35 -10.5 -71t-34 -64.5
t-60.5 -46.5t-90 -18h-16.5t-21.5 2v140h24z" />
    <glyph glyph-name="uni0453" unicode="&#x453;" horiz-adv-x="481" 
d="M299 590h-123l57 140h141v-54zM75 529h370v-136h-212v-393h-158v529z" />
    <glyph glyph-name="uni0454" unicode="&#x454;" horiz-adv-x="555" 
d="M283.017 -12q49.9971 0 91.4941 14q41.498 14 70.9961 41t45.9971 66t16.499 89h-145.991q0 -35 -19.499 -54q-19.498 -19 -61.4961 -19q-43.9971 0 -59.4961 18t-15.499 44v13h117.992v129h-117.992v12q0 27 16.499 45t60.4961 18q39.998 0 59.4961 -19
q19.499 -19 19.499 -53h145.991q0 102 -61.4961 155.5t-163.49 53.5q-51.9971 0 -94.4941 -13.5t-72.9951 -39q-30.499 -25.5 -46.998 -62q-16.498 -36.5 -16.498 -83.5v-156q0 -47 16.498 -84q16.499 -37 46.498 -62.5q29.998 -25.5 72.9951 -39t94.9941 -13.5z" />
    <glyph glyph-name="uni0455" unicode="&#x455;" horiz-adv-x="563" 
d="M285 -12q-56 0 -100.5 14.5t-75.5 40.5t-48.5 61.5t-18.5 78.5h152q7 -26 31 -43t75 -17q29 0 45 8t16 24q0 24 -37 33l-136 33q-21 5 -43.5 15t-41.5 26.5t-31.5 41.5t-12.5 60q0 85 59 131t164 46q49 0 90.5 -13.5t72.5 -37.5t48.5 -58t17.5 -75h-151q-5 27 -29 38.5
t-56 11.5q-36 0 -49.5 -9t-13.5 -23q0 -11 8.5 -16t25.5 -9l147 -35q24 -5 45.5 -16.5t38.5 -29.5t27 -43.5t10 -59.5q0 -43 -17 -76t-47 -55.5t-72 -34.5t-93 -12z" />
    <glyph glyph-name="uni0456" unicode="&#x456;" horiz-adv-x="309" 
d="M75 529h158v-529h-158v529zM75 705h158v-115h-158v115z" />
    <glyph glyph-name="uni0457" unicode="&#x457;" horiz-adv-x="308" 
d="M-29 705h157v-115h-157v115zM182 705h158v-115h-158v115zM75 529h158v-529h-158v529z" />
    <glyph glyph-name="uni0458" unicode="&#x458;" horiz-adv-x="310" 
d="M39 -172h-16.5t-21.5 2v140h20q16 0 27 4.5t17 16t8.5 31.5t2.5 51v456h158v-501q0 -35 -10.5 -71t-34 -64.5t-60.5 -46.5t-90 -18zM76 705h158v-115h-158v115z" />
    <glyph glyph-name="uni0459" unicode="&#x459;" horiz-adv-x="861" 
d="M391 393h-120v-185q0 -52 -15 -91t-41 -65t-61.5 -39t-76.5 -13h-43v143h21q42 0 55.5 23t13.5 68v295h425v-153h117q78 0 123 -51t45 -137t-45 -137t-123 -51h-275v393zM623 136q32 0 42.5 14.5t10.5 37.5t-10.5 37.5t-42.5 14.5h-74v-104h74z" />
    <glyph glyph-name="uni045A" unicode="&#x45a;" horiz-adv-x="854" 
d="M382 197h-149v-197h-158v529h158v-196h149v196h158v-153h119q79 0 123.5 -51t44.5 -137t-44.5 -137t-123.5 -51h-277v197zM617 136q32 0 42.5 16.5t10.5 35.5q0 24 -10.5 37.5t-42.5 13.5h-77v-103h77z" />
    <glyph glyph-name="uni045B" unicode="&#x45b;" horiz-adv-x="611" 
d="M88 514h-77v110h77v81h158v-81h170v-110h-170v-107q22 14 51 25t71 11q90 0 137.5 -55.5t47.5 -152.5v-235h-158v227q0 38 -18 56t-45 18q-17 0 -31.5 -5.5t-25.5 -12.5t-18.5 -14t-10.5 -10v-259h-158v514z" />
    <glyph glyph-name="uni045C" unicode="&#x45c;" horiz-adv-x="575" 
d="M339 590h-123l57 140h141v-54zM75 529h158v-196h57l113 196h130v-73l-107 -187l114 -196v-73h-140l-112 196h-55v-196h-158v529z" />
    <glyph glyph-name="uni045E" unicode="&#x45e;" horiz-adv-x="520" 
d="M146 -104l42 104l-173 456v73h145l106 -311l97 311h143v-73l-229 -616h-131v56zM260 581q-75 0 -122 35.5t-47 101.5v12h129v-9q0 -11 8.5 -22t31.5 -11q25 0 33.5 11t8.5 22v9h126v-12q0 -33 -12.5 -58.5t-34.5 -43t-53 -26.5t-68 -9z" />
    <glyph glyph-name="uni045F" unicode="&#x45f;" horiz-adv-x="609" 
d="M227 0h-152v529h158v-393h142v393h158v-529h-152v-122h-154v122z" />
    <glyph glyph-name="uni0490" unicode="&#x490;" horiz-adv-x="563" 
d="M85 700h285v130h157v-280h-270v-550h-172v700z" />
    <glyph glyph-name="uni0491" unicode="&#x491;" horiz-adv-x="476" 
d="M75 529h210v129h155v-265h-207v-393h-158v529z" />
    <glyph glyph-name="uni1E61" unicode="&#x1e61;" horiz-adv-x="563" 
d="M285 -12q-56 0 -100.5 14.5t-75.5 40.5t-48.5 61.5t-18.5 78.5h152q7 -26 31 -43t75 -17q29 0 45 8t16 24q0 24 -37 33l-136 33q-21 5 -43.5 15t-41.5 26.5t-31.5 41.5t-12.5 60q0 85 59 131t164 46q49 0 90.5 -13.5t72.5 -37.5t48.5 -58t17.5 -75h-151q-5 27 -29 38.5
t-56 11.5q-36 0 -49.5 -9t-13.5 -23q0 -11 8.5 -16t25.5 -9l147 -35q24 -5 45.5 -16.5t38.5 -29.5t27 -43.5t10 -59.5q0 -43 -17 -76t-47 -55.5t-72 -34.5t-93 -12zM211 705h158v-115h-158v115z" />
    <glyph glyph-name="uni1E63" unicode="&#x1e63;" horiz-adv-x="563" 
d="M285 -12q-56 0 -100.5 14.5t-75.5 40.5t-48.5 61.5t-18.5 78.5h152q7 -26 31 -43t75 -17q29 0 45 8t16 24q0 24 -37 33l-136 33q-21 5 -43.5 15t-41.5 26.5t-31.5 41.5t-12.5 60q0 85 59 131t164 46q49 0 90.5 -13.5t72.5 -37.5t48.5 -58t17.5 -75h-151q-5 27 -29 38.5
t-56 11.5q-36 0 -49.5 -9t-13.5 -23q0 -11 8.5 -16t25.5 -9l147 -35q24 -5 45.5 -16.5t38.5 -29.5t27 -43.5t10 -59.5q0 -43 -17 -76t-47 -55.5t-72 -34.5t-93 -12zM204 -71h158v-115h-158v115z" />
    <glyph glyph-name="endash" unicode="&#x2013;" horiz-adv-x="610" 
d="M54 377h503v-129h-503v129z" />
    <glyph glyph-name="emdash" unicode="&#x2014;" horiz-adv-x="867" 
d="M54 377h759v-129h-759v129z" />
    <glyph glyph-name="quoteleft" unicode="&#x2018;" horiz-adv-x="251" 
d="M178.005 429.009h-152.991v64.9961l85.9951 210.987h108.993z" />
    <glyph glyph-name="quoteright" unicode="&#x2019;" horiz-adv-x="251" 
d="M75 705h153v-65l-86 -211h-109z" />
    <glyph glyph-name="quotesinglbase" unicode="&#x201a;" horiz-adv-x="303" 
d="M75 148h153v-65l-86 -211h-109z" />
    <glyph glyph-name="quotedblleft" unicode="&#x201c;" horiz-adv-x="467" 
d="M178.005 429.009h-152.991v64.9961l85.9951 210.987h108.993zM394.005 429.009h-152.991v64.9961l85.9951 210.987h108.993z" />
    <glyph glyph-name="quotedblright" unicode="&#x201d;" horiz-adv-x="467" 
d="M75 705h153v-65l-86 -211h-109zM290 705h153v-65l-86 -211h-109z" />
    <glyph glyph-name="quotedblbase" unicode="&#x201e;" horiz-adv-x="505" 
d="M291 148h153v-65l-86 -211h-109zM75 148h153v-65l-86 -211h-109z" />
    <glyph glyph-name="dagger" unicode="&#x2020;" horiz-adv-x="554" 
d="M199 393h-174v136h174v176h158v-176h171v-136h-171v-553h-158v553z" />
    <glyph glyph-name="daggerdbl" unicode="&#x2021;" horiz-adv-x="554" 
d="M199 106h-174v136h174v151h-174v136h174v176h158v-176h171v-136h-171v-151h171v-136h-171v-266h-158v266z" />
    <glyph glyph-name="bullet" unicode="&#x2022;" horiz-adv-x="486" 
d="M243 131q-88 0 -138 47t-50 138v8q0 91 50 138t138 47t138 -47t50 -138v-8q0 -91 -50 -138t-138 -47z" />
    <glyph glyph-name="ellipsis" unicode="&#x2026;" horiz-adv-x="802" 
d="M65 148h169v-148h-169v148zM317 148h169v-148h-169v148zM568 148h169v-148h-169v148z" />
    <glyph glyph-name="perthousand" unicode="&#x2030;" horiz-adv-x="1182" 
d="M229 580q0 13 -9 21.5t-22 8.5q-15 0 -23 -9t-8 -21v-87q0 -13 7.5 -21.5t23.5 -8.5q14 0 22.5 8t8.5 22v87zM198 358q-74 0 -118.5 37.5t-44.5 113.5v55q0 76 44.5 113.5t118.5 37.5t118 -37.5t44 -113.5v-55q0 -76 -44 -113.5t-118 -37.5zM156 56l414 644h94v-57
l-414 -643h-94v56zM618 -15q-74 0 -118.5 39t-44.5 122v35q0 83 44.5 122t118.5 39t118 -38.5t44 -122.5v-35q0 -84 -44 -122.5t-118 -38.5zM649 207q0 13 -9 21.5t-22 8.5q-15 0 -23 -9t-8 -21v-87q0 -13 7.5 -21.5t23.5 -8.5q14 0 22.5 8t8.5 22v87zM985 -15
q-74 0 -118.5 39t-44.5 122v35q0 83 44.5 122t118.5 39t118 -38.5t44 -122.5v-35q0 -84 -44 -122.5t-118 -38.5zM1016 207q0 13 -9 21.5t-22 8.5q-15 0 -23 -9t-8 -21v-87q0 -13 7.5 -21.5t23.5 -8.5q14 0 22.5 8t8.5 22v87z" />
    <glyph glyph-name="guilsinglleft" unicode="&#x2039;" horiz-adv-x="338" 
d="M33 299l111 210h135v-43l-83 -167l83 -168v-44h-135z" />
    <glyph glyph-name="guilsinglright" unicode="&#x203a;" horiz-adv-x="338" 
d="M305.002 299l-110.993 210h-134.992v-43l82.9951 -167l-82.9951 -168v-44h134.992z" />
    <glyph glyph-name="fraction" unicode="&#x2044;" horiz-adv-x="414" 
d="M-42 56l414 644h84v-57l-414 -643h-84v56z" />
    <glyph glyph-name="fourinferior" unicode="&#x2084;" horiz-adv-x="362" 
d="M219 700v-60l-81 -146h53v63h105v-63h34v-87h-34v-49h-105v49h-169v90l116 203h81z" />
    <glyph glyph-name="Euro" unicode="&#x20ac;" horiz-adv-x="678" 
d="M373 -15q-53 0 -99 13t-81 39.5t-56.5 66.5t-24.5 94h-82v116h84v70h-84v116h85q3 48 22 88t51.5 68t79 43.5t105.5 15.5q50 0 95.5 -13.5t80 -43.5t55 -77.5t20.5 -114.5v-10h-148v10q0 30 -9 50.5t-23.5 33t-33 18t-38.5 5.5q-18 0 -35 -4t-31 -12.5t-23.5 -22.5
t-11.5 -34h125v-116h-125v-70h125v-116h-126q4 -35 30.5 -53t71.5 -18q48 0 76 23t28 84v10h148v-10q0 -67 -18.5 -114.5t-51.5 -77.5t-79.5 -43.5t-101.5 -13.5z" />
    <glyph glyph-name="uni20B4" unicode="&#x20b4;" horiz-adv-x="711" 
d="M359 -15q-57 0 -102.5 14t-78 39.5t-49.5 62t-17 81.5v47h-72v98h631v-98h-402v-32q0 -35 23.5 -52.5t68.5 -17.5q49 0 70 20.5t21 46.5h158q0 -48 -18 -86.5t-50.5 -66t-79 -42t-103.5 -14.5zM106 506q0 48 18 86.5t51 66t78.5 42t100.5 14.5q117 0 183.5 -55t66.5 -152
v-37h67v-98h-631v98h407v32q0 35 -23.5 52.5t-68.5 17.5q-49 0 -70 -20.5t-21 -46.5h-158z" />
    <glyph glyph-name="uni20BD" unicode="&#x20bd;" horiz-adv-x="642" 
d="M106 94h-80v122h80v61h-80v135h80v288h291q98 0 151.5 -57.5t53.5 -154.5q0 -98 -53.5 -154.5t-151.5 -56.5h-134v-61h155v-122h-155v-94h-157v94zM378 412q10 0 22 4t21.5 13t16 23.5t6.5 35.5t-6.5 35.5t-16 23.5t-21.5 13t-22 4h-115v-152h115z" />
    <glyph glyph-name="uni2116" unicode="&#x2116;" horiz-adv-x="1047" 
d="M85 700h144l211 -378v378h153v-700h-147l-208 377v-377h-153v700zM676 306h325v-119h-325v119zM870 580q0 13 -9 21.5t-22 8.5q-15 0 -23 -9t-8 -21v-87q0 -13 7.5 -21.5t23.5 -8.5q14 0 22.5 8t8.5 22v87zM839 358q-74 0 -118.5 37.5t-44.5 113.5v55q0 76 44.5 113.5
t118.5 37.5t118 -37.5t44 -113.5v-55q0 -76 -44 -113.5t-118 -37.5z" />
    <glyph glyph-name="trademark" unicode="&#x2122;" horiz-adv-x="689" 
d="M319 700h87l77 -130l77 130h84v-322h-88v178l-47 -88h-55l-47 86v-176h-88v322zM93 622h-87v78h263v-78h-87v-244h-89v244z" />
    <glyph glyph-name="Omega" unicode="&#x2126;" horiz-adv-x="727" 
d="M476 469q0 15 -6 30.5t-19.5 28t-34.5 21t-52 8.5q-30 0 -51.5 -8.5t-35 -21t-19.5 -28t-6 -30.5v-194q0 -18 1.5 -37t7.5 -36.5t17 -31t31 -20.5v-150h-247v150h67q-32 32 -40.5 63t-8.5 62v185q0 61 20 108.5t57 80t89.5 49.5t117.5 17t117.5 -17t89.5 -49.5t57 -80
t20 -108.5v-185q0 -31 -8.5 -62t-41.5 -63h67v-150h-247v150q19 7 30.5 20.5t17.5 31t8 36.5t2 37v194z" />
    <glyph glyph-name="partialdiff" unicode="&#x2202;" horiz-adv-x="580" 
d="M260 -12q-47 0 -87.5 11t-69.5 32t-45.5 52t-16.5 71q0 16 2.5 46.5t7.5 81.5q4 52 22 89t45.5 60t61.5 33.5t72 10.5q55 0 90.5 -22.5t47.5 -46.5q3 27 3 46q0 36 -14 58.5t-36.5 34.5t-49.5 16t-53 4q-36 0 -63.5 -3.5t-45.5 -6.5l10 138q27 7 63 10.5t76 3.5
q59 0 107 -16t81.5 -47t51.5 -75t18 -100q0 -23 -6.5 -98.5t-17.5 -188.5q-5 -48 -25.5 -84.5t-54 -60.5t-78 -36.5t-96.5 -12.5zM272 130q42 0 61.5 18t21.5 41l10 106q-12 17 -30 27.5t-48 10.5q-29 0 -53 -15.5t-27 -49.5q-4 -40 -5 -57t-1 -25q0 -26 17 -41t54 -15z" />
    <glyph glyph-name="Delta" unicode="&#x2206;" horiz-adv-x="662" 
d="M15 56l231 644h169l232 -644v-56h-632v56zM423 149l-96 320l-97 -320h193z" />
    <glyph glyph-name="product" unicode="&#x220f;" horiz-adv-x="682" 
d="M85 700h511v-775h-157v632h-196v-632h-158v775z" />
    <glyph glyph-name="summation" unicode="&#x2211;" horiz-adv-x="578" 
d="M45 67l136 246l-136 244v143h474v-143h-299l135 -244l-135 -246h312v-143h-487v143z" />
    <glyph glyph-name="minus" unicode="&#x2212;" horiz-adv-x="588" 
d="M64 378h460v-130h-460v130z" />
    <glyph glyph-name="radical" unicode="&#x221a;" horiz-adv-x="541" 
d="M79 326h-83v114h178l104 -328l146 685h116v-55l-182 -817h-131z" />
    <glyph glyph-name="infinity" unicode="&#x221e;" horiz-adv-x="922" 
d="M268 123q-51 0 -90.5 16.5t-67 44.5t-41.5 64.5t-14 76.5t14 76.5t41.5 64t67 44t90.5 16.5q52 0 100 -22.5t93 -62.5q45 39 91.5 62t102.5 23q51 0 90 -16.5t66 -44t41 -64t14 -76.5t-14 -76.5t-41 -64t-66 -44t-90 -16.5q-55 0 -102 23.5t-92 61.5q-45 -38 -92 -62
t-101 -24zM273 264q29 0 54.5 18.5t51.5 43.5q-25 23 -51 41.5t-55 18.5q-26 0 -47.5 -15.5t-21.5 -44.5t21.5 -45.5t47.5 -16.5zM648 264q26 0 47.5 16.5t21.5 45.5t-21.5 44.5t-47.5 15.5q-29 0 -55 -18.5t-51 -41.5q26 -25 51.5 -43.5t54.5 -18.5z" />
    <glyph glyph-name="integral" unicode="&#x222b;" horiz-adv-x="310" 
d="M4 -21h21q8 0 17.5 2t17 8t12.5 18t5 32v481q0 11 1 21t4 21q7 26 20.5 52t36 47t54.5 34.5t77 13.5q8 0 17 -0.5t21 -2.5v-140h-21q-8 0 -17.5 -2t-17 -8t-12.5 -18t-5 -32v-481q0 -11 -1 -21t-4 -21q-7 -26 -20.5 -52.5t-36 -47.5t-54.5 -34t-77 -13q-8 0 -17.5 0.5
t-20.5 2.5v140z" />
    <glyph glyph-name="approxequal" unicode="&#x2248;" horiz-adv-x="554" 
d="M64 171q7 19 19.5 41.5t30 41t40.5 31t52 12.5q18 0 37.5 -6.5t34.5 -15.5l30 -19q8 -5 14 -7.5t17 -2.5q12 0 21.5 8.5t22.5 33.5l107 -60q-7 -19 -19 -41t-29.5 -40.5t-40.5 -31t-52 -12.5q-19 0 -39 6.5t-35 16.5l-29 17q-8 5 -14.5 8t-16.5 3q-11 0 -20.5 -8.5
t-23.5 -33.5zM64 420q7 19 19.5 41.5t30 41t40.5 31t52 12.5q18 0 37.5 -6.5t34.5 -15.5l30 -19q8 -5 14 -7.5t17 -2.5q12 0 21.5 8.5t22.5 33.5l107 -60q-7 -19 -19 -41t-29.5 -40.5t-40.5 -31t-52 -12.5q-19 0 -39 6.5t-35 16.5l-29 17q-8 5 -14.5 8t-16.5 3
q-11 0 -20.5 -8.5t-23.5 -33.5z" />
    <glyph glyph-name="notequal" unicode="&#x2260;" horiz-adv-x="588" 
d="M64 56l53 84h-53v130h135l55 87h-190v130h272l88 140h100v-57l-53 -83h53v-130h-135l-55 -87h190v-130h-272l-88 -140h-100v56z" />
    <glyph glyph-name="lessequal" unicode="&#x2264;" horiz-adv-x="548" 
d="M64 353v127l346 147h74v-109l-248 -102l248 -100v-109h-74zM64 130h420v-130h-420v130z" />
    <glyph glyph-name="greaterequal" unicode="&#x2265;" horiz-adv-x="548" 
d="M64 316l248 100l-248 102v109h74l346 -147v-127l-346 -146h-74v109zM64 130h420v-130h-420v130z" />
    <glyph glyph-name="lozenge" unicode="&#x25ca;" horiz-adv-x="569" 
d="M45 350l183 350h118l177 -350l-178 -350h-117zM357 350l-72 163l-72 -163l72 -163z" />
    <glyph glyph-name="uniF64E" unicode="&#xf64e;" horiz-adv-x="595" 
d="M100 248v35h-67v78h67q4 46 22.5 79.5t48 56t68.5 33.5t85 11q93 0 153 -44t69 -131h-143q-8 25 -29 36t-50 11q-71 0 -80 -52h116v-78h-116v-35h116v-78h-116q8 -53 82 -53q35 0 52.5 12t24.5 38h144q-4 -42 -22 -75t-47 -56.5t-68.5 -35.5t-85.5 -12q-45 0 -84 12
t-69 35.5t-48.5 57t-22.5 77.5h-67v78h67z" />
    <glyph glyph-name="uniF653" unicode="&#xf653;" horiz-adv-x="559" 
d="M357 529q62 -19 98.5 -64t39.5 -108h-151q-8 34 -31.5 45t-52.5 11q-28 0 -40 -9.5t-12 -23.5q0 -15 10 -22t24 -11l142 -36q23 -6 45 -17t38.5 -28t26.5 -41.5t10 -58.5q0 -69 -39.5 -112t-107.5 -58v-85h-136v81q-84 15 -130 68t-48 123h152q3 -11 9.5 -22.5t18.5 -21
t30 -16t44 -6.5q24 0 39.5 8t15.5 26q0 28 -37 37l-131 33q-19 5 -41 15t-41.5 26.5t-32.5 41.5t-13 60q0 72 42 117t123 56v86h136v-94v0z" />
    <glyph glyph-name="commaaccent" unicode="&#xf6c3;" horiz-adv-x="987" 
d="M402 -67h153v-66l-72 -134h-109z" />
    <glyph glyph-name="uniF721" unicode="&#xf721;" horiz-adv-x="582" 
d="M236 170q0 -25 13.5 -39t46.5 -14q30 0 41.5 9t13.5 16h154q-1 -35 -17 -63t-43.5 -48.5t-66.5 -31.5t-86 -11q-97 0 -151 46.5t-54 126.5v9h-50v78h510v-78h-311zM37 361h310q0 22 -13.5 37t-46.5 15q-29 0 -40 -8.5t-13 -15.5h-155q1 34 16.5 62t42.5 48t65 31t83 11
q98 0 154.5 -44.5t56.5 -125.5v-10h50v-78h-510v78z" />
    <glyph glyph-name="uniF722" unicode="&#xf722;" horiz-adv-x="589" 
d="M122 65h-89v91h89v41h-89v112h89v220h287q72 0 112 -46t40 -123q0 -76 -40 -119.5t-112 -43.5h-129v-41h94v-91h-94v-65h-158v65zM361 309q26 0 34.5 12.5t8.5 29.5t-8.5 29.5t-34.5 12.5h-81v-84h81z" />
    <glyph glyph-name="uniF725" unicode="&#xf725;" horiz-adv-x="602" 
d="M47 136h68v58h-68v112h68v40q0 46 16 82.5t44.5 61.5t68 38t85.5 13q100 0 159.5 -51.5t59.5 -151.5v-6h-158v6q0 28 -13.5 44.5t-47.5 16.5q-30 0 -43.5 -14t-13.5 -37v-42h95v-112h-95v-58h276v-136h-501v136z" />
    <glyph glyph-name="uniF727" unicode="&#xf727;" horiz-adv-x="551" 
d="M200 73h-120v90h120v41h-120v90h62l-105 162v73h142l98 -172h6l98 172h133v-73l-103 -162h65v-90h-118v-41h118v-90h-118v-73h-158v73z" />
    <glyph glyph-name="uniFEFF" unicode="&#xfeff;" horiz-adv-x="0" 
 />
    <glyph glyph-name="eight.onum" horiz-adv-x="623" 
d="M311 -12q-120 0 -188 56.5t-68 158.5q0 27 7.5 52t20.5 46.5t30 38.5t36 26q-35 30 -56.5 63.5t-21.5 87.5q0 39 15.5 75t46 63.5t75.5 43.5t103 16t103 -16t75.5 -43.5t46 -63.5t15.5 -75q0 -54 -20 -87.5t-55 -63.5q19 -9 36 -26t30 -38.5t20 -46.5t7 -52
q0 -51 -18 -90.5t-51.5 -67.5t-81 -42.5t-107.5 -14.5zM228 503q0 -23 7 -38t19 -24.5t27 -13.5t30 -4q16 0 31 4t27 13.5t19 24.5t7 38q0 30 -18.5 53t-65.5 23q-46 0 -64.5 -23t-18.5 -53zM214 219q0 -17 5.5 -33t17 -28.5t30 -20t44.5 -7.5t44.5 7.5t30.5 20t17.5 28.5
t5.5 33q0 44 -29.5 64.5t-68.5 20.5q-19 0 -36.5 -5t-31 -15.5t-21.5 -26.5t-8 -38z" />
    <glyph glyph-name="nine.onum" horiz-adv-x="606" 
d="M155 -104l130 175q-7 -1 -12.5 -1h-10.5q-44 0 -83.5 11.5t-69.5 37t-47.5 67t-17.5 100.5q0 62 18.5 109.5t51.5 80t79.5 49t102.5 16.5q55 0 101.5 -16t80 -46.5t52 -74.5t18.5 -99q0 -47 -15.5 -97.5t-53.5 -106.5l-180 -261h-144v56zM296 194q48 0 71 28.5t23 74.5
q0 47 -23.5 74.5t-70.5 27.5q-48 0 -71.5 -27.5t-23.5 -74.5t24 -75t71 -28z" />
    <glyph glyph-name="seven.onum" horiz-adv-x="549" 
d="M138 -104l203 491h-165v-64h-145v206h468v-131l-224 -558h-137v56z" />
    <glyph glyph-name="six.onum" horiz-adv-x="593" 
d="M296 -12q-56 0 -102 16.5t-79.5 47t-52 74.5t-18.5 99q0 47 16 97t53 107l176 271h144v-57l-126 -184q5 1 11 1.5t11 0.5q43 0 83 -12t70 -38t48 -67.5t18 -100.5q0 -62 -18.5 -109.5t-51.5 -80t-79.5 -49t-102.5 -16.5zM296 130q48 0 71.5 27.5t23.5 74.5t-24 75.5
t-71 28.5q-48 0 -71 -29t-23 -75q0 -47 23.5 -74.5t70.5 -27.5z" />
    <glyph glyph-name="five.onum" horiz-adv-x="597" 
d="M291 -172q-104 0 -170.5 52.5t-76.5 150.5h152q5 -24 28.5 -42.5t65.5 -18.5q50 0 72.5 30.5t22.5 81.5q0 42 -23.5 73t-67.5 31q-39 0 -55.5 -14.5t-26.5 -30.5h-150l40 388h402v-142h-281l-12 -98q26 13 49.5 19t67.5 6q39 0 77.5 -12t68.5 -39t49 -71.5t19 -109.5
t-19 -113t-53 -79.5t-79.5 -46.5t-99.5 -15z" />
    <glyph glyph-name="four.onum" horiz-adv-x="561" 
d="M315 0h-294v125l217 404h139v-56l-177 -331h115v130h157v-130h73v-142h-73v-160h-157v160z" />
    <glyph glyph-name="three.onum" horiz-adv-x="601" 
d="M300 -172q-56 0 -102.5 14.5t-80 44.5t-52.5 75.5t-21 107.5h150q3 -48 29.5 -74t77.5 -26q47 0 67 22t20 54q0 73 -94 73h-45v142h46q28 0 51 16t23 54q0 25 -18 46.5t-56 21.5q-43 0 -63.5 -22.5t-24.5 -54.5h-149q11 108 73.5 163.5t163.5 55.5q55 0 97.5 -15.5
t71.5 -42t44 -63t15 -78.5q0 -52 -20 -85t-55 -60q39 -18 68.5 -57.5t29.5 -96.5q0 -101 -62.5 -158t-183.5 -57z" />
    <glyph glyph-name="two.onum" horiz-adv-x="565" 
d="M41 125l204 136q19 12 36 22t29.5 20t20 21t7.5 25q0 17 -13.5 33.5t-49.5 16.5t-55.5 -19t-19.5 -51h-158q0 43 12.5 82t40 67.5t71.5 45.5t107 17q59 0 101.5 -16.5t69.5 -43.5t39.5 -61t12.5 -70q0 -31 -9 -55.5t-23.5 -44t-33.5 -34t-40 -25.5l-89 -49h205v-142h-465
v125z" />
    <glyph glyph-name="zero.onum.mono" 
d="M309 -12q-57 0 -103 15.5t-78.5 46t-50.5 77.5t-18 110v55q0 63 18 110t50.5 77.5t78.5 46t103 15.5q56 0 102 -15.5t78.5 -46t50.5 -77.5t18 -110v-55q0 -63 -18 -110t-50.5 -77.5t-78.5 -46t-102 -15.5zM310 128q49 0 72 28t23 71v81l-138 -173q17 -7 43 -7zM212 223
l137 172q-17 7 -39 7q-52 0 -75 -28.5t-23 -71.5v-79z" />
    <glyph glyph-name="one.onum.mono" 
d="M98 142h140v171h-105v85l243 131h20v-387h139v-142h-437v142z" />
    <glyph glyph-name="one.onum" horiz-adv-x="354" 
d="M111 313h-65v85l203 131h20v-529h-158v313z" />
    <glyph glyph-name="three.onum.mono" 
d="M319 -172q-56 0 -102.5 14.5t-80 44.5t-52.5 75.5t-21 107.5h150q3 -48 29.5 -74t77.5 -26q47 0 67 22t20 54q0 73 -94 73h-45v142h46q28 0 51 16t23 54q0 25 -18 46.5t-56 21.5q-43 0 -63.5 -22.5t-24.5 -54.5h-149q11 108 73.5 163.5t163.5 55.5q55 0 97.5 -15.5
t71.5 -42t44 -63t15 -78.5q0 -52 -20 -85t-55 -60q39 -18 68.5 -57.5t29.5 -96.5q0 -101 -62.5 -158t-183.5 -57z" />
    <glyph glyph-name="four.onum.mono" 
d="M344 0h-294v125l217 404h139v-56l-177 -331h115v130h157v-130h73v-142h-73v-160h-157v160z" />
    <glyph glyph-name="five.onum.mono" 
d="M311 -172q-104 0 -170.5 52.5t-76.5 150.5h152q5 -24 28.5 -42.5t65.5 -18.5q50 0 72.5 30.5t22.5 81.5q0 42 -23.5 73t-67.5 31q-39 0 -55.5 -14.5t-26.5 -30.5h-150l40 388h402v-142h-281l-12 -98q26 13 49.5 19t67.5 6q39 0 77.5 -12t68.5 -39t49 -71.5t19 -109.5
t-19 -113t-53 -79.5t-79.5 -46.5t-99.5 -15z" />
    <glyph glyph-name="six.onum.mono" 
d="M319 -12q-56 0 -102 16.5t-79.5 47t-52 74.5t-18.5 99q0 47 16 97t53 107l176 271h144v-57l-126 -184q5 1 11 1.5t11 0.5q43 0 83 -12t70 -38t48 -67.5t18 -100.5q0 -62 -18.5 -109.5t-51.5 -80t-79.5 -49t-102.5 -16.5zM319 130q48 0 71.5 27.5t23.5 74.5t-24 75.5
t-71 28.5q-48 0 -71 -29t-23 -75q0 -47 23.5 -74.5t70.5 -27.5z" />
    <glyph glyph-name="seven.onum.mono" 
d="M185 -104l203 491h-165v-64h-145v206h468v-131l-224 -558h-137v56z" />
    <glyph glyph-name="eight.onum.mono" 
d="M312 -12q-120 0 -188 56.5t-68 158.5q0 27 7.5 52t20.5 46.5t30 38.5t36 26q-35 30 -56.5 63.5t-21.5 87.5q0 39 15.5 75t46 63.5t75.5 43.5t103 16t103 -16t75.5 -43.5t46 -63.5t15.5 -75q0 -54 -20 -87.5t-55 -63.5q19 -9 36 -26t30 -38.5t20 -46.5t7 -52
q0 -51 -18 -90.5t-51.5 -67.5t-81 -42.5t-107.5 -14.5zM229 503q0 -23 7 -38t19 -24.5t27 -13.5t30 -4q16 0 31 4t27 13.5t19 24.5t7 38q0 30 -18.5 53t-65.5 23q-46 0 -64.5 -23t-18.5 -53zM215 219q0 -17 5.5 -33t17 -28.5t30 -20t44.5 -7.5t44.5 7.5t30.5 20t17.5 28.5
t5.5 33q0 44 -29.5 64.5t-68.5 20.5q-19 0 -36.5 -5t-31 -15.5t-21.5 -26.5t-8 -38z" />
    <glyph glyph-name="nine.onum.mono" 
d="M165 -104l130 175q-7 -1 -12.5 -1h-10.5q-44 0 -83.5 11.5t-69.5 37t-47.5 67t-17.5 100.5q0 62 18.5 109.5t51.5 80t79.5 49t102.5 16.5q55 0 101.5 -16t80 -46.5t52 -74.5t18.5 -99q0 -47 -15.5 -97.5t-53.5 -106.5l-180 -261h-144v56zM306 194q48 0 71 28.5t23 74.5
q0 47 -23.5 74.5t-70.5 27.5q-48 0 -71.5 -27.5t-23.5 -74.5t24 -75t71 -28z" />
    <glyph glyph-name="uniF653.mono" 
d="M396 529q62 -19 98.5 -64t39.5 -108h-151q-8 34 -31.5 45t-52.5 11q-28 0 -40 -9.5t-12 -23.5q0 -15 10 -22t24 -11l142 -36q23 -6 45 -17t38.5 -28t26.5 -41.5t10 -58.5q0 -69 -39.5 -112t-107.5 -58v-85h-136v81q-84 15 -130 68t-48 123h152q3 -11 9.5 -22.5t18.5 -21
t30 -16t44 -6.5q24 0 39.5 8t15.5 26q0 28 -37 37l-131 33q-19 5 -41 15t-41.5 26.5t-32.5 41.5t-13 60q0 72 42 117t123 56v86h136v-94v0z" />
    <glyph glyph-name="uniF64E.mono" 
d="M117 248v35h-67v78h67q4 46 22.5 79.5t48 56t68.5 33.5t85 11q93 0 153 -44t69 -131h-143q-8 25 -29 36t-50 11q-71 0 -80 -52h116v-78h-116v-35h116v-78h-116q8 -53 82 -53q35 0 52.5 12t24.5 38h144q-4 -42 -22 -75t-47 -56.5t-68.5 -35.5t-85.5 -12q-45 0 -84 12
t-69 35.5t-48.5 57t-22.5 77.5h-67v78h67z" />
    <glyph glyph-name="uniF725.mono" 
d="M63 136h68v58h-68v112h68v40q0 46 16 82.5t44.5 61.5t68 38t85.5 13q100 0 159.5 -51.5t59.5 -151.5v-6h-158v6q0 28 -13.5 44.5t-47.5 16.5q-30 0 -43.5 -14t-13.5 -37v-42h95v-112h-95v-58h276v-136h-501v136z" />
    <glyph glyph-name="uniF727.mono" 
d="M236 73h-120v90h120v41h-120v90h62l-105 162v73h142l98 -172h6l98 172h133v-73l-103 -162h65v-90h-118v-41h118v-90h-118v-73h-158v73z" />
    <glyph glyph-name="uniF722.mono" 
d="M123 65h-89v91h89v41h-89v112h89v220h287q72 0 112 -46t40 -123q0 -76 -40 -119.5t-112 -43.5h-129v-41h94v-91h-94v-65h-158v65zM362 309q26 0 34.5 12.5t8.5 29.5t-8.5 29.5t-34.5 12.5h-81v-84h81z" />
    <glyph glyph-name="uniF721.mono" 
d="M268 170q0 -25 13.5 -39t46.5 -14q30 0 41.5 9t13.5 16h154q-1 -35 -17 -63t-43.5 -48.5t-66.5 -31.5t-86 -11q-97 0 -151 46.5t-54 126.5v9h-50v78h510v-78h-311zM69 361h310q0 22 -13.5 37t-46.5 15q-29 0 -40 -8.5t-13 -15.5h-155q1 34 16.5 62t42.5 48t65 31t83 11
q98 0 154.5 -44.5t56.5 -125.5v-10h50v-78h-510v78z" />
    <glyph glyph-name="zero.mono" 
d="M313 -15q-56 0 -101.5 15.5t-77.5 46t-49.5 76t-17.5 106.5v241q0 61 17.5 106.5t49.5 76.5t77.5 46.5t101.5 15.5q113 0 179.5 -62t66.5 -183v-241q0 -61 -17 -106.5t-49 -76t-77.5 -46t-102.5 -15.5zM313 127q47 0 67.5 27t20.5 65v187l-147 -261q11 -8 25 -13t34 -5z
M225 293l146 261q-22 19 -58 19q-24 0 -40.5 -7.5t-27 -20.5t-15.5 -30t-5 -36v-186z" />
    <glyph glyph-name="one.mono" 
d="M97 142h139v342h-105v85l243 131h20v-558h139v-142h-436v142z" />
    <glyph glyph-name="two.mono" 
d="M71 128l212 212q32 32 51 54t29.5 39.5t14 32.5t3.5 33q0 12 -3.5 25t-12.5 24t-23.5 18t-36.5 7q-27 0 -43.5 -9.5t-25.5 -25t-12.5 -34.5t-3.5 -38h-148q0 58 17.5 104t49 78.5t74.5 49.5t95 17q61 0 104.5 -19t71.5 -49.5t41 -69t13 -78.5q0 -37 -6.5 -65.5t-22 -56.5
t-42 -57.5t-66.5 -67.5l-115 -110h253v-142h-468v128z" />
    <glyph glyph-name="two.onum.mono" 
d="M67 125l204 136q19 12 36 22t29.5 20t20 21t7.5 25q0 17 -13.5 33.5t-49.5 16.5t-55.5 -19t-19.5 -51h-158q0 43 12.5 82t40 67.5t71.5 45.5t107 17q59 0 101.5 -16.5t69.5 -43.5t39.5 -61t12.5 -70q0 -31 -9 -55.5t-23.5 -44t-33.5 -34t-40 -25.5l-89 -49h205v-142h-465
v125z" />
    <glyph glyph-name="four.mono" 
d="M348 117h-302v121l215 462h133v-57l-176 -384h130v152h154v-152h74v-142h-74v-117h-154v117z" />
    <glyph glyph-name="five.mono" 
d="M305 -15q-106 0 -171.5 56t-74.5 160h152q5 -29 28 -51.5t68 -22.5q48 0 69.5 32t21.5 87q0 48 -21.5 78t-66.5 30q-21 0 -35 -4.5t-23.5 -12t-15 -16t-9.5 -15.5h-150l39 394h400v-142h-279l-12 -100q13 6 24.5 11t25 8t29.5 4.5t37 1.5q39 0 77 -12t68.5 -39.5
t49.5 -73t19 -112.5q0 -66 -18.5 -115t-52 -81.5t-79.5 -48.5t-100 -16z" />
    <glyph glyph-name="six.mono" 
d="M319 -15q-56 0 -102.5 16t-79.5 46.5t-51.5 74t-18.5 98.5q0 47 16 97.5t52 107.5l177 275h144v-57l-126 -189q5 1 11 1.5t10 0.5q44 0 84 -11.5t70 -37.5t48 -67.5t18 -100.5q0 -62 -18.5 -109.5t-51.5 -79.5t-79.5 -48.5t-102.5 -16.5zM319 127q47 0 70.5 27.5
t23.5 74.5t-24 74.5t-70 27.5q-48 0 -71 -28t-23 -74q0 -47 23.5 -74.5t70.5 -27.5z" />
    <glyph glyph-name="seven.mono" 
d="M190 56l195 502h-161v-65h-145v207h467v-133l-214 -567h-142v56z" />
    <glyph glyph-name="eight.mono" 
d="M312 715q58 0 103 -16t75.5 -43.5t46 -63.5t15.5 -75q0 -54 -21.5 -88t-56.5 -62q19 -11 36 -27t30 -37t20.5 -46t7.5 -53q0 -50 -18 -90.5t-51.5 -69t-81 -44t-105.5 -15.5q-59 0 -106 15.5t-80.5 44t-51.5 69t-18 90.5q0 28 7.5 53t20.5 46t30 37t36 27
q-35 28 -56.5 62t-21.5 88q0 39 15.5 75t46 63.5t75.5 43.5t103 16zM312 423q15 0 30 4t27 14t19 25t7 38q0 30 -18.5 52.5t-64.5 22.5t-64.5 -22.5t-18.5 -52.5q0 -23 7 -38t19 -25t27 -14t30 -4zM312 127q26 0 44.5 7.5t30 20t17 29t5.5 33.5q0 22 -8 38t-21.5 27
t-31 16.5t-36.5 5.5t-36.5 -5.5t-31 -16.5t-21.5 -27t-8 -38q0 -17 5.5 -33.5t17 -29t30 -20t44.5 -7.5z" />
    <glyph glyph-name="nine.mono" 
d="M306 715q56 0 102.5 -16t79.5 -46.5t51.5 -74t18.5 -98.5q0 -47 -16 -97.5t-52 -107.5l-177 -275h-144v57l126 189q-5 -1 -11 -1.5t-10 -0.5q-44 0 -84 11.5t-70 37.5t-48 67.5t-18 100.5q0 62 18.5 109.5t51.5 79.5t79.5 48.5t102.5 16.5zM306 573q-47 0 -70.5 -27.5
t-23.5 -74.5t24 -74.5t70 -27.5q48 0 71 28t23 74q0 47 -23.5 74.5t-70.5 27.5z" />
    <glyph glyph-name="dollar.mono" 
d="M218 227q0 -29 8.5 -48t22.5 -30.5t32.5 -16.5t38.5 -5q38 0 58.5 18t20.5 47q0 26 -15.5 38.5t-35.5 21.5l-100 46q-39 18 -71 37t-54.5 43.5t-34.5 56t-12 75.5q0 42 13 76t35.5 59.5t53 41.5t65.5 23v91h156v-95q30 -7 58 -24.5t49.5 -46t34 -67.5t12.5 -89h-157
q0 50 -23.5 72t-61.5 22q-31 0 -52.5 -16t-21.5 -45q0 -17 7 -28.5t19.5 -20.5t30 -16.5t38.5 -17.5l75 -35q33 -15 61 -32.5t48.5 -40t32 -51.5t11.5 -68q0 -75 -37 -132t-124 -80v-110h-156v108q-38 6 -71.5 24t-58 47.5t-39 71.5t-14.5 96h158z" />
    <glyph glyph-name="Euro.mono" 
d="M360 -15q-53 0 -99 13t-81 39.5t-56.5 66.5t-24.5 94h-82v116h84v70h-84v116h85q3 48 22 88t51.5 68t79 43.5t105.5 15.5q50 0 95.5 -13.5t80 -43.5t55 -77.5t20.5 -114.5v-10h-148v10q0 30 -9 50.5t-23.5 33t-33 18t-38.5 5.5q-18 0 -35 -4t-31 -12.5t-23.5 -22.5
t-11.5 -34h125v-116h-125v-70h125v-116h-126q4 -35 30.5 -53t71.5 -18q48 0 76 23t28 84v10h148v-10q0 -67 -18.5 -114.5t-51.5 -77.5t-79.5 -43.5t-101.5 -13.5z" />
    <glyph glyph-name="sterling.mono" 
d="M49 142h63v139h-63v142h63v96q0 46 16.5 82.5t46.5 62t72 38.5t93 13q49 0 90 -13.5t70.5 -40.5t45.5 -67.5t16 -95.5v-34h-158v35q0 39 -16.5 56.5t-50.5 17.5q-39 0 -53 -18t-14 -43v-89h108v-142h-108v-139h292v-142h-513v142z" />
    <glyph glyph-name="yen.mono" 
d="M231 88h-150v122h150v70h-150v122h96l-146 241v57h144l136 -244l136 244h141v-57l-146 -241h96v-122h-150v-70h150v-122h-150v-88h-157v88z" />
    <glyph glyph-name="uni20BD.mono" 
d="M110 94h-80v122h80v61h-80v135h80v288h291q98 0 151.5 -57.5t53.5 -154.5q0 -98 -53.5 -154.5t-151.5 -56.5h-134v-61h155v-122h-155v-94h-157v94zM382 412q10 0 22 4t21.5 13t16 23.5t6.5 35.5t-6.5 35.5t-16 23.5t-21.5 13t-22 4h-115v-152h115z" />
    <glyph glyph-name="uni20B4.mono" 
d="M317 -15q-57 0 -102.5 14t-78 39.5t-49.5 62t-17 81.5v47h-72v98h631v-98h-402v-32q0 -35 23.5 -52.5t68.5 -17.5q49 0 70 20.5t21 46.5h158q0 -48 -18 -86.5t-50.5 -66t-79 -42t-103.5 -14.5zM64 506q0 48 18 86.5t51 66t78.5 42t100.5 14.5q117 0 183.5 -55t66.5 -152
v-37h67v-98h-631v98h407v32q0 35 -23.5 52.5t-68.5 17.5q-49 0 -70 -20.5t-21 -46.5h-158z" />
    <glyph glyph-name="a.alt1" horiz-adv-x="606" 
d="M440 0l-38 48q-26 -23 -61.5 -41.5t-91.5 -18.5q-38 0 -72 11t-60 34.5t-41.5 60.5t-15.5 88v166q0 51 15.5 87.5t41.5 60t60 34.5t72 11q56 0 91.5 -18.5t61.5 -41.5l38 48h90v-529h-90zM281 130q33 0 55 14t36 28v185q-14 14 -35.5 28t-54.5 14q-9 0 -20.5 -3.5
t-21 -11t-16 -19.5t-6.5 -29v-143q0 -17 6.5 -29t16 -19.5t20.5 -11t20 -3.5z" />
    <glyph glyph-name="agrave.alt1" horiz-adv-x="606" 
d="M440 0l-38 48q-26 -23 -61.5 -41.5t-91.5 -18.5q-38 0 -72 11t-60 34.5t-41.5 60.5t-15.5 88v166q0 51 15.5 87.5t41.5 60t60 34.5t72 11q56 0 91.5 -18.5t61.5 -41.5l38 48h90v-529h-90zM281 130q33 0 55 14t36 28v185q-14 14 -35.5 28t-54.5 14q-9 0 -20.5 -3.5
t-21 -11t-16 -19.5t-6.5 -29v-143q0 -17 6.5 -29t16 -19.5t20.5 -11t20 -3.5zM180 676v54h141l57 -140h-124z" />
    <glyph glyph-name="aacute.alt1" horiz-adv-x="606" 
d="M440 0l-38 48q-26 -23 -61.5 -41.5t-91.5 -18.5q-38 0 -72 11t-60 34.5t-41.5 60.5t-15.5 88v166q0 51 15.5 87.5t41.5 60t60 34.5t72 11q56 0 91.5 -18.5t61.5 -41.5l38 48h90v-529h-90zM281 130q33 0 55 14t36 28v185q-14 14 -35.5 28t-54.5 14q-9 0 -20.5 -3.5
t-21 -11t-16 -19.5t-6.5 -29v-143q0 -17 6.5 -29t16 -19.5t20.5 -11t20 -3.5zM358 590h-123l57 140h141v-54z" />
    <glyph glyph-name="acircumflex.alt1" horiz-adv-x="606" 
d="M440 0l-38 48q-26 -23 -61.5 -41.5t-91.5 -18.5q-38 0 -72 11t-60 34.5t-41.5 60.5t-15.5 88v166q0 51 15.5 87.5t41.5 60t60 34.5t72 11q56 0 91.5 -18.5t61.5 -41.5l38 48h90v-529h-90zM281 130q33 0 55 14t36 28v185q-14 14 -35.5 28t-54.5 14q-9 0 -20.5 -3.5
t-21 -11t-16 -19.5t-6.5 -29v-143q0 -17 6.5 -29t16 -19.5t20.5 -11t20 -3.5zM458 640v-50h-116l-32 52l-33 -52h-119v50l88 90h123z" />
    <glyph glyph-name="atilde.alt1" horiz-adv-x="606" 
d="M440 0l-38 48q-26 -23 -61.5 -41.5t-91.5 -18.5q-38 0 -72 11t-60 34.5t-41.5 60.5t-15.5 88v166q0 51 15.5 87.5t41.5 60t60 34.5t72 11q56 0 91.5 -18.5t61.5 -41.5l38 48h90v-529h-90zM281 130q33 0 55 14t36 28v185q-14 14 -35.5 28t-54.5 14q-9 0 -20.5 -3.5
t-21 -11t-16 -19.5t-6.5 -29v-143q0 -17 6.5 -29t16 -19.5t20.5 -11t20 -3.5zM122 628q23 44 51 74t71 30q20 0 34 -5t25 -11l26 -15q16 -9 28 -9q13 0 21.5 9t20.5 31l95 -53q-23 -44 -51 -74t-71 -30q-20 0 -34 5t-25 11l-26 15q-17 9 -28 9q-13 0 -21.5 -9t-20.5 -31z
" />
    <glyph glyph-name="adieresis.alt1" horiz-adv-x="606" 
d="M440 0l-38 48q-26 -23 -61.5 -41.5t-91.5 -18.5q-38 0 -72 11t-60 34.5t-41.5 60.5t-15.5 88v166q0 51 15.5 87.5t41.5 60t60 34.5t72 11q56 0 91.5 -18.5t61.5 -41.5l38 48h90v-529h-90zM281 130q33 0 55 14t36 28v185q-14 14 -35.5 28t-54.5 14q-9 0 -20.5 -3.5
t-21 -11t-16 -19.5t-6.5 -29v-143q0 -17 6.5 -29t16 -19.5t20.5 -11t20 -3.5zM121 705h157v-115h-157v115zM332 705h158v-115h-158v115z" />
    <glyph glyph-name="aring.alt1" horiz-adv-x="606" 
d="M440 0l-38 48q-26 -23 -61.5 -41.5t-91.5 -18.5q-38 0 -72 11t-60 34.5t-41.5 60.5t-15.5 88v166q0 51 15.5 87.5t41.5 60t60 34.5t72 11q56 0 91.5 -18.5t61.5 -41.5l38 48h90v-529h-90zM281 130q33 0 55 14t36 28v185q-14 14 -35.5 28t-54.5 14q-9 0 -20.5 -3.5
t-21 -11t-16 -19.5t-6.5 -29v-143q0 -17 6.5 -29t16 -19.5t20.5 -11t20 -3.5zM195 678q0 22 9 41t24.5 33.5t36 22.5t44.5 8q23 0 43.5 -8t36 -22.5t24.5 -33.5t9 -41t-9 -41.5t-24.5 -33.5t-36 -22.5t-43.5 -8.5q-24 0 -44.5 8.5t-36 22.5t-24.5 33.5t-9 41.5zM280 678
q0 -13 9 -20.5t20 -7.5t20 7.5t9 20.5q0 14 -9 21t-20 7t-20 -7t-9 -21z" />
    <glyph glyph-name="amacron.alt1" horiz-adv-x="606" 
d="M440 0l-38 48q-26 -23 -61.5 -41.5t-91.5 -18.5q-38 0 -72 11t-60 34.5t-41.5 60.5t-15.5 88v166q0 51 15.5 87.5t41.5 60t60 34.5t72 11q56 0 91.5 -18.5t61.5 -41.5l38 48h90v-529h-90zM281 130q33 0 55 14t36 28v185q-14 14 -35.5 28t-54.5 14q-9 0 -20.5 -3.5
t-21 -11t-16 -19.5t-6.5 -29v-143q0 -17 6.5 -29t16 -19.5t20.5 -11t20 -3.5zM133 705h343v-110h-343v110z" />
    <glyph glyph-name="aogonek.alt1" horiz-adv-x="606" 
d="M402 48q-26 -23 -61.5 -41.5t-91.5 -18.5q-38 0 -72 11t-60 34.5t-41.5 60.5t-15.5 88v166q0 51 15.5 87.5t41.5 60t60 34.5t72 11q56 0 91.5 -18.5t61.5 -41.5l38 48h90v-529q-17 -15 -24 -25.5t-7 -20.5q0 -21 29 -21h35v-93h-74q-39 0 -65.5 18.5t-26.5 54.5
q0 22 10 42t33 45zM281 130q33 0 55 14t36 28v185q-14 14 -35.5 28t-54.5 14q-9 0 -20.5 -3.5t-21 -11t-16 -19.5t-6.5 -29v-143q0 -17 6.5 -29t16 -19.5t20.5 -11t20 -3.5z" />
    <glyph glyph-name="t.alt1" horiz-adv-x="371" 
d="M106 393h-76v136h76v176h158v-176h77v-136h-77v-393h-158v393z" />
    <glyph glyph-name="tcaron.alt1" horiz-adv-x="540" 
d="M427 705h143v-66l-72 -134h-99zM106 393h-76v136h76v176h158v-176h77v-136h-77v-393h-158v393z" />
    <glyph glyph-name="J.alt1" horiz-adv-x="577" 
d="M159 700h357v-489q0 -64 -20.5 -107t-55 -69.5t-79.5 -38t-95 -11.5q-52 0 -97.5 11t-79.5 37t-54 69t-20 108v34h172v-25q0 -44 22.5 -60t56.5 -16q33 0 55.5 16t22.5 60v331h-185v150z" />
    <glyph glyph-name="ampersand.alt1" horiz-adv-x="647" 
d="M353 340h276v-136h-60q-4 -51 -25 -91t-55.5 -68t-82 -42.5t-103.5 -14.5q-58 0 -106 15.5t-83 44.5t-54.5 70.5t-19.5 94.5q0 62 26 105t62 68q-25 26 -38.5 54.5t-13.5 73.5t16.5 81t45.5 61.5t70 39t90 13.5q107 0 165.5 -58t57.5 -161h-158q0 33 -13.5 56t-49.5 23
q-29 0 -44.5 -17.5t-15.5 -43.5t16.5 -42.5t51.5 -16.5h7v-136h-27q-40 0 -65 -23.5t-25 -66.5q0 -37 26 -65t81 -28q54 0 80 21.5t26 52.5h-58v136z" />
    <glyph glyph-name="ampersand.alt2" horiz-adv-x="629" 
d="M292 564q-19 0 -35.5 -13.5t-16.5 -47.5q0 -32 16.5 -45.5t35.5 -13.5h85l69 76h89v-76h69v-136h-69v-308h-234q-128 0 -192 50t-64 157q0 60 29 105t71 63q-38 23 -55 58.5t-17 81.5q0 91 59 138t158 47h100v-136h-98zM377 141v167h-92q-13 0 -25.5 -4.5t-23 -14.5
t-17 -26t-6.5 -40q0 -23 6.5 -38.5t17 -25t23 -14t25.5 -4.5h92z" />
    <glyph glyph-name="three.mono" 
d="M319 -15q-114 0 -182.5 65t-70.5 191h150q2 -51 25.5 -82.5t81.5 -31.5q43 0 63.5 23t20.5 57q0 39 -24 60.5t-73 21.5h-40v142h40q35 0 58.5 16.5t23.5 56.5q0 32 -20 50.5t-54 18.5q-25 0 -41.5 -8t-26.5 -21.5t-14 -31.5t-4 -38h-150q0 118 63.5 179.5t172.5 61.5
q56 0 98.5 -15t71.5 -41.5t43.5 -62.5t14.5 -78q0 -51 -20 -87t-55 -63q19 -9 36 -24.5t30 -36.5t20.5 -47t7.5 -55q0 -100 -63 -160t-183 -60z" />
    <glyph glyph-name="uni0430.alt1" horiz-adv-x="606" 
d="M440 0l-38 48q-26 -23 -61.5 -41.5t-91.5 -18.5q-38 0 -72 11t-60 34.5t-41.5 60.5t-15.5 88v166q0 51 15.5 87.5t41.5 60t60 34.5t72 11q56 0 91.5 -18.5t61.5 -41.5l38 48h90v-529h-90zM281 130q33 0 55 14t36 28v185q-14 14 -35.5 28t-54.5 14q-9 0 -20.5 -3.5
t-21 -11t-16 -19.5t-6.5 -29v-143q0 -17 6.5 -29t16 -19.5t20.5 -11t20 -3.5z" />
    <glyph glyph-name="uni0423.alt1" horiz-adv-x="608" 
d="M164 700l154 -310l135 310h150v-57l-201 -449q-25 -56 -47 -93.5t-48 -60t-61 -31.5t-86 -9h-37v162h36q29 0 46 7.5t27 29.5l4 9l-231 435v57h159z" />
    <glyph glyph-name="uni040E.alt1" horiz-adv-x="608" 
d="M164 700l154 -310l135 310h150v-57l-201 -449q-25 -56 -47 -93.5t-48 -60t-61 -31.5t-86 -9h-37v162h36q29 0 46 7.5t27 29.5l4 9l-231 435v57h159zM308 742q-75 0 -122 35.5t-47 101.5v9h129v-6q0 -11 8.5 -22t31.5 -11q25 0 33.5 11t8.5 22v6h126v-9q0 -33 -12.5 -58.5
t-34.5 -43t-53 -26.5t-68 -9z" />
    <glyph glyph-name="brevecap" horiz-adv-x="845" 
d="M422 742q-75 0 -122 35.5t-47 101.5v9h129v-6q0 -11 8.5 -22t31.5 -11q25 0 33.5 11t8.5 22v6h126v-9q0 -33 -12.5 -58.5t-34.5 -43t-53 -26.5t-68 -9z" />
    <glyph glyph-name="at.alt1" horiz-adv-x="751" 
d="M454 233q22 0 48.5 8.5t49.5 35.5v49h-84q-39 0 -53 -13.5t-14 -34.5q0 -19 13 -32t40 -13zM424 705q129 0 197 -71t68 -196v-328h-82l-31 45q-30 -28 -65 -42.5t-79 -14.5q-37 0 -69.5 10.5t-57 32t-38.5 54.5t-14 77q0 75 49 121t147 46h103v8q0 66 -36 97t-99 31h-87
q-60 0 -97.5 -34.5t-37.5 -100.5v-335q0 -66 37 -100.5t98 -34.5h109v-130h-112q-127 0 -196 69.5t-69 195.5v335q0 125 69.5 195t195.5 70h97z" />
    <glyph glyph-name="zero.onum" horiz-adv-x="635" 
d="M318 130q48 0 69.5 27.5t21.5 69.5v74q0 42 -21.5 70t-69.5 28q-49 0 -70.5 -28t-21.5 -70v-74q0 -42 21.5 -69.5t70.5 -27.5zM318 -12q-57 0 -103 15.5t-78.5 46t-50.5 77.5t-18 110v55q0 63 18 110t50.5 77.5t78.5 46t103 15.5q56 0 102 -15.5t78.5 -46t50.5 -77.5
t18 -110v-55q0 -63 -18 -110t-50.5 -77.5t-78.5 -46t-102 -15.5z" />
    </font>
</defs>
</svg>
