<?xml version="1.0" encoding="utf-8"?>
<!-- Generator: Adobe Illustrator 21.1.0, SVG Export Plug-In . SVG Version: 6.00 Build 0)  -->
<svg version="1.1" id="_x31_" xmlns="http://www.w3.org/2000/svg" xmlns:xlink="http://www.w3.org/1999/xlink" x="0px" y="0px"
	 viewBox="0 0 267 55.5" style="enable-background:new 0 0 267 55.5;" xml:space="preserve">
<style type="text/css">
	.st0{display:none;fill:#010101;}
</style>
<g>
	<path d="M0,3.4h23.7c9.4,0,14.9,6.4,14.9,16.4c0,10.1-5.5,16.5-14.9,16.5H12.5v18.1H0V3.4z M21.3,25.4c1.9,0,4.6-1.3,4.6-5.5
		c0-4.2-2.7-5.6-4.6-5.6h-8.7v11.1H21.3z"/>
	<path d="M47.7,3.4H70c10.9,0,16.5,6,16.5,16.2c0,6.6-2.9,11.9-7.8,14.8l9.4,15.9v4.1H75.9L65.5,35.8h-5.2v18.6H47.7V3.4z
		 M67.9,25.4c3.7,0,5.9-1.2,5.9-5.6c0-4.3-2.2-5.5-5.9-5.5h-7.7v11.1H67.9z"/>
	<path d="M122.7,3.4h12.2L146.4,24L158,3.4h12v51h-12.2V25.6l-7.6,13.7h-7.7l-7.6-13.7v28.8h-12.2V3.4z"/>
	<path d="M182.5,3.4h34.1v10.9H195v9.3h18.2V34H195v9.5h21.7v10.9h-34.2V3.4z"/>
	<path d="M225.6,37.1V20.9c0-11.8,8.2-18.6,20.7-18.6c12.6,0,20.7,6.8,20.7,18.6v16.2c0,11.7-8.1,18.4-20.7,18.4
		C233.8,55.5,225.6,48.7,225.6,37.1z M254.5,37.5V20.3c0-2.8-2.2-6.4-8.2-6.4c-5.9,0-8.2,3.6-8.2,6.4v17.3c0,2.9,2.3,6.5,8.2,6.5
		C252.3,44,254.5,40.4,254.5,37.5z"/>
</g>
<g>
	<rect x="55.5" y="36.7" class="st0" width="12.5" height="51.5"/>
</g>
<polygon points="97.7,3.4 97.7,54.4 110.2,54.4 110.2,18.5 101.8,3.4 "/>
<polygon points="107.5,0 116,15.1 116,0 "/>
</svg>
